M48
;DRILL file {KiCad 4.0.7} date 06/30/18 02:02:43
;FORMAT={2:4/ absolute / inch / suppress leading zeros}
FMAT,2
INCH,TZ
T1C0.016
T2C0.030
T3C0.031
T4C0.035
T5C0.039
T6C0.040
T7C0.043
T8C0.108
%
G90
G05
M72
T1
X11547Y-14585
X11797Y-14835
X12797Y-14585
X13547Y-14335
X13547Y-14835
X14047Y-14335
X14047Y-19335
X14547Y-19835
X15297Y-14085
X16047Y-18335
X16047Y-19335
X16297Y-17835
X16547Y-19335
X16547Y-20335
X17047Y-14335
X17297Y-14085
X17297Y-17835
X17297Y-18585
X17547Y-18085
X17797Y-14085
X17797Y-14585
X18547Y-19835
X19047Y-18085
X20047Y-18085
X20547Y-14335
X20547Y-16585
X20547Y-17585
X20797Y-14585
X21047Y-14835
X21047Y-16585
X21297Y-15835
X21297Y-16335
X21297Y-17335
X21297Y-19585
X21547Y-14335
X21547Y-16085
X21797Y-14585
X22047Y-14085
X22047Y-14835
X23047Y-14335
X23047Y-14835
X23297Y-16335
X23297Y-17085
X23547Y-17335
X26797Y-16835
X26797Y-17335
X27047Y-16335
X27047Y-17085
X27797Y-16335
X27797Y-16835
X28047Y-17085
T2
X13047Y-16085
X13047Y-17085
X13047Y-18085
X13047Y-19085
X15000Y-17000
X15000Y-21000
X15986Y-15559
X16000Y-17000
X16000Y-21000
X16986Y-15559
X17000Y-17000
X17000Y-21000
X17986Y-15559
X18000Y-17000
X18000Y-21000
X18986Y-15559
X19000Y-17000
X19000Y-21000
X20000Y-17000
X20000Y-21000
T3
X13047Y-23085
X13047Y-25053
X14547Y-22585
X14547Y-25585
X15547Y-22585
X15547Y-25585
X16547Y-22585
X16547Y-25585
X17547Y-22585
X17547Y-25585
X18547Y-22585
X18547Y-25585
X19547Y-22585
X19547Y-25585
X20547Y-22585
X20547Y-25585
X23797Y-15585
X23797Y-19585
X25297Y-15585
X25297Y-19585
X26797Y-15585
X26797Y-19585
T4
X30250Y-31500
X30250Y-32500
T5
X24047Y-22585
X27039Y-22585
T6
X12545Y-12325
X12545Y-13325
X13545Y-12325
X13545Y-13325
X14545Y-12325
X14545Y-13325
X15545Y-12325
X15545Y-13325
X16545Y-12325
X16545Y-13325
X17545Y-12325
X17545Y-13325
X18545Y-12325
X18545Y-13325
X19545Y-12325
X19545Y-13325
X20545Y-12325
X20545Y-13325
X21545Y-12325
X21545Y-13325
X22545Y-12325
X22545Y-13325
X23545Y-12325
X23545Y-13325
X24545Y-12325
X24545Y-13325
X25545Y-12325
X25545Y-13325
X26545Y-12325
X26545Y-13325
X27545Y-12325
X27545Y-13325
X28545Y-12325
X28545Y-13325
X29545Y-12325
X29545Y-13325
X30545Y-12325
X30545Y-13325
X31545Y-12325
X31545Y-13325
T7
X12728Y-30250
X12728Y-32809
X14500Y-30250
X14500Y-32809
X15978Y-30250
X15978Y-32809
X17750Y-30250
X17750Y-32809
X19228Y-30250
X19228Y-32809
X21000Y-30250
X21000Y-32809
X22478Y-30250
X22478Y-32809
X24250Y-30250
X24250Y-32809
X25728Y-30250
X25728Y-32809
X27500Y-30250
X27500Y-32809
T8
X10628Y-12825
X10628Y-32116
X33463Y-12825
X33463Y-32116
T2
X28031Y-18336G85X28031Y-18164
G05
X28031Y-26836G85X28031Y-26664
G05
X28910Y-16281G85X29122Y-16281
G05
X28910Y-20219G85X29122Y-20219
G05
X28910Y-24781G85X29122Y-24781
G05
X28910Y-28719G85X29122Y-28719
G05
X29894Y-15297G85X30106Y-15297
G05
X29894Y-18250G85X30106Y-18250
G05
X29894Y-21203G85X30106Y-21203
G05
X29894Y-23797G85X30106Y-23797
G05
X29894Y-26750G85X30106Y-26750
G05
X29894Y-29703G85X30106Y-29703
G05
X33937Y-16368G85X33937Y-16195
G05
X33937Y-20305G85X33937Y-20132
G05
X33937Y-24868G85X33937Y-24695
G05
X33937Y-28805G85X33937Y-28632
G05
T0
M30
