G04 #@! TF.FileFunction,Copper,L2,Bot,Signal*
%FSLAX46Y46*%
G04 Gerber Fmt 4.6, Leading zero omitted, Abs format (unit mm)*
G04 Created by KiCad (PCBNEW 4.0.7) date 06/12/18 20:28:49*
%MOMM*%
%LPD*%
G01*
G04 APERTURE LIST*
%ADD10C,0.100000*%
%ADD11R,1.727200X1.727200*%
%ADD12O,1.727200X1.727200*%
%ADD13R,2.000000X2.000000*%
%ADD14C,2.000000*%
%ADD15R,1.800000X1.800000*%
%ADD16C,1.800000*%
%ADD17R,1.600000X1.600000*%
%ADD18O,1.600000X1.600000*%
%ADD19R,1.524000X1.524000*%
%ADD20C,1.524000*%
%ADD21C,1.600000*%
%ADD22O,2.000000X1.524000*%
%ADD23O,1.524000X2.000000*%
%ADD24C,0.600000*%
%ADD25C,0.254000*%
G04 APERTURE END LIST*
D10*
D11*
X31865000Y-33845000D03*
D12*
X31865000Y-31305000D03*
X34405000Y-33845000D03*
X34405000Y-31305000D03*
X36945000Y-33845000D03*
X36945000Y-31305000D03*
X39485000Y-33845000D03*
X39485000Y-31305000D03*
X42025000Y-33845000D03*
X42025000Y-31305000D03*
X44565000Y-33845000D03*
X44565000Y-31305000D03*
X47105000Y-33845000D03*
X47105000Y-31305000D03*
X49645000Y-33845000D03*
X49645000Y-31305000D03*
X52185000Y-33845000D03*
X52185000Y-31305000D03*
X54725000Y-33845000D03*
X54725000Y-31305000D03*
X57265000Y-33845000D03*
X57265000Y-31305000D03*
X59805000Y-33845000D03*
X59805000Y-31305000D03*
X62345000Y-33845000D03*
X62345000Y-31305000D03*
X64885000Y-33845000D03*
X64885000Y-31305000D03*
X67425000Y-33845000D03*
X67425000Y-31305000D03*
X69965000Y-33845000D03*
X69965000Y-31305000D03*
X72505000Y-33845000D03*
X72505000Y-31305000D03*
X75045000Y-33845000D03*
X75045000Y-31305000D03*
X77585000Y-33845000D03*
X77585000Y-31305000D03*
X80125000Y-33845000D03*
X80125000Y-31305000D03*
D13*
X61087000Y-38989000D03*
D14*
X61087000Y-46589000D03*
D15*
X76835000Y-82550000D03*
D16*
X76835000Y-80010000D03*
D17*
X31750000Y-46990000D03*
D18*
X46990000Y-39370000D03*
X34290000Y-46990000D03*
X44450000Y-39370000D03*
X36830000Y-46990000D03*
X41910000Y-39370000D03*
X39370000Y-46990000D03*
X39370000Y-39370000D03*
X41910000Y-46990000D03*
X36830000Y-39370000D03*
X44450000Y-46990000D03*
X34290000Y-39370000D03*
X46990000Y-46990000D03*
X31750000Y-39370000D03*
D19*
X36830000Y-50800000D03*
D20*
X36830000Y-53340000D03*
X36830000Y-55880000D03*
X36830000Y-58420000D03*
X36830000Y-60960000D03*
X36830000Y-63500000D03*
X46990000Y-63500000D03*
X46990000Y-60960000D03*
X46990000Y-58420000D03*
X46990000Y-55880000D03*
X46990000Y-53340000D03*
X46990000Y-50800000D03*
D21*
X68580000Y-52070000D03*
D18*
X68580000Y-62230000D03*
D21*
X64770000Y-62230000D03*
D18*
X64770000Y-52070000D03*
D21*
X60960000Y-62230000D03*
D18*
X60960000Y-52070000D03*
D14*
X32330000Y-76835000D03*
X36830000Y-76835000D03*
X32330000Y-83335000D03*
X36830000Y-83335000D03*
X40585000Y-76835000D03*
X45085000Y-76835000D03*
X40585000Y-83335000D03*
X45085000Y-83335000D03*
X48840000Y-76835000D03*
X53340000Y-76835000D03*
X48840000Y-83335000D03*
X53340000Y-83335000D03*
X57095000Y-76835000D03*
X61595000Y-76835000D03*
X57095000Y-83335000D03*
X61595000Y-83335000D03*
X65350000Y-76835000D03*
X69850000Y-76835000D03*
X65350000Y-83335000D03*
X69850000Y-83335000D03*
D21*
X27940000Y-40640000D03*
X27940000Y-45640000D03*
D22*
X73700000Y-51355000D03*
X73700000Y-41355000D03*
X76200000Y-53855000D03*
X76200000Y-38855000D03*
D23*
X86200000Y-51355000D03*
X86200000Y-41355000D03*
D22*
X76200000Y-46355000D03*
D23*
X71200000Y-46355000D03*
D22*
X73700000Y-72945000D03*
X73700000Y-62945000D03*
X76200000Y-75445000D03*
X76200000Y-60445000D03*
D23*
X86200000Y-72945000D03*
X86200000Y-62945000D03*
D22*
X76200000Y-67945000D03*
D23*
X71200000Y-67945000D03*
D19*
X33020000Y-60960000D03*
D20*
X33020000Y-58420000D03*
X33020000Y-55880000D03*
X33020000Y-53340000D03*
D24*
X35687000Y-35814000D03*
X35560000Y-41529000D03*
X68580000Y-54864000D03*
X43561000Y-36322000D03*
X37338000Y-44577000D03*
X50292000Y-56769000D03*
X50292000Y-53975000D03*
X70485000Y-50165000D03*
X48895000Y-42545000D03*
X55118000Y-40259000D03*
X49911000Y-41783000D03*
X53848000Y-37846000D03*
X51943000Y-63500000D03*
X54991000Y-52451000D03*
X51435000Y-62865000D03*
X54356000Y-51689000D03*
X50546000Y-48514000D03*
X53086000Y-59690000D03*
X51181000Y-61722000D03*
X51181000Y-52451000D03*
X51816000Y-61087000D03*
X51816000Y-51689000D03*
X52451000Y-60452000D03*
X52451000Y-52451000D03*
X53721000Y-59055000D03*
X53721000Y-49530000D03*
X67437000Y-66040000D03*
D10*
X35687000Y-41402000D02*
X35687000Y-35814000D01*
X35560000Y-41529000D02*
X35687000Y-41402000D01*
X76200000Y-53855000D02*
X70732000Y-53855000D01*
X69723000Y-54864000D02*
X68580000Y-54864000D01*
X70732000Y-53855000D02*
X69723000Y-54864000D01*
X44565000Y-35318000D02*
X43561000Y-36322000D01*
X44565000Y-33845000D02*
X44565000Y-35318000D01*
X36830000Y-45085000D02*
X37338000Y-44577000D01*
X36830000Y-45085000D02*
X36830000Y-46990000D01*
X50292000Y-56769000D02*
X50292000Y-53975000D01*
X71675000Y-51355000D02*
X73700000Y-51355000D01*
X70485000Y-50165000D02*
X71675000Y-51355000D01*
X49911000Y-42545000D02*
X48895000Y-42545000D01*
X55118000Y-40259000D02*
X52832000Y-42545000D01*
X52832000Y-42545000D02*
X49911000Y-42545000D01*
X49911000Y-41783000D02*
X53848000Y-37846000D01*
X51943000Y-63500000D02*
X54991000Y-60452000D01*
X54991000Y-60452000D02*
X54991000Y-52451000D01*
X51435000Y-62865000D02*
X54356000Y-59944000D01*
X54356000Y-59944000D02*
X54356000Y-51689000D01*
X53086000Y-51054000D02*
X50546000Y-48514000D01*
X53086000Y-59690000D02*
X53086000Y-51689000D01*
X53086000Y-51689000D02*
X53086000Y-51054000D01*
X51181000Y-61722000D02*
X51181000Y-52451000D01*
X51816000Y-61087000D02*
X51816000Y-51689000D01*
X52451000Y-60452000D02*
X52451000Y-52451000D01*
X53721000Y-52451000D02*
X53721000Y-49530000D01*
X53721000Y-59055000D02*
X53721000Y-52451000D01*
X76200000Y-67945000D02*
X74041000Y-67945000D01*
X72136000Y-66040000D02*
X67437000Y-66040000D01*
X74041000Y-67945000D02*
X72136000Y-66040000D01*
D25*
G36*
X82423000Y-30582824D02*
X82260877Y-30744664D01*
X81768561Y-31930294D01*
X81767441Y-33214074D01*
X82257687Y-34400561D01*
X82423000Y-34566163D01*
X82423000Y-36195000D01*
X82433006Y-36244410D01*
X82461447Y-36286035D01*
X82503841Y-36313315D01*
X82550000Y-36322000D01*
X87810000Y-36322000D01*
X87810000Y-77978000D01*
X81280000Y-77978000D01*
X81230590Y-77988006D01*
X81188965Y-78016447D01*
X81161685Y-78058841D01*
X81153000Y-78105000D01*
X81153000Y-84328000D01*
X71022608Y-84328000D01*
X71002534Y-84307926D01*
X71269387Y-84209264D01*
X71495908Y-83599539D01*
X71471856Y-82949540D01*
X71269387Y-82460736D01*
X71002532Y-82362073D01*
X70029605Y-83335000D01*
X70043748Y-83349143D01*
X69864143Y-83528748D01*
X69850000Y-83514605D01*
X69835858Y-83528748D01*
X69656253Y-83349143D01*
X69670395Y-83335000D01*
X68697468Y-82362073D01*
X68430613Y-82460736D01*
X68204092Y-83070461D01*
X68228144Y-83720460D01*
X68430613Y-84209264D01*
X68697466Y-84307926D01*
X68677392Y-84328000D01*
X66669526Y-84328000D01*
X66735278Y-84262363D01*
X66984716Y-83661648D01*
X66985284Y-83011205D01*
X66736894Y-82410057D01*
X66509703Y-82182468D01*
X68877073Y-82182468D01*
X69850000Y-83155395D01*
X70822927Y-82182468D01*
X70724264Y-81915613D01*
X70114539Y-81689092D01*
X69464540Y-81713144D01*
X68975736Y-81915613D01*
X68877073Y-82182468D01*
X66509703Y-82182468D01*
X66277363Y-81949722D01*
X65676648Y-81700284D01*
X65026205Y-81699716D01*
X64425057Y-81948106D01*
X63964722Y-82407637D01*
X63715284Y-83008352D01*
X63714716Y-83658795D01*
X63963106Y-84259943D01*
X64031044Y-84328000D01*
X62767608Y-84328000D01*
X62747534Y-84307926D01*
X63014387Y-84209264D01*
X63240908Y-83599539D01*
X63216856Y-82949540D01*
X63014387Y-82460736D01*
X62747532Y-82362073D01*
X61774605Y-83335000D01*
X61788748Y-83349143D01*
X61609143Y-83528748D01*
X61595000Y-83514605D01*
X61580858Y-83528748D01*
X61401253Y-83349143D01*
X61415395Y-83335000D01*
X60442468Y-82362073D01*
X60175613Y-82460736D01*
X59949092Y-83070461D01*
X59973144Y-83720460D01*
X60175613Y-84209264D01*
X60442466Y-84307926D01*
X60422392Y-84328000D01*
X58414526Y-84328000D01*
X58480278Y-84262363D01*
X58729716Y-83661648D01*
X58730284Y-83011205D01*
X58481894Y-82410057D01*
X58254703Y-82182468D01*
X60622073Y-82182468D01*
X61595000Y-83155395D01*
X62567927Y-82182468D01*
X62469264Y-81915613D01*
X61859539Y-81689092D01*
X61209540Y-81713144D01*
X60720736Y-81915613D01*
X60622073Y-82182468D01*
X58254703Y-82182468D01*
X58022363Y-81949722D01*
X57421648Y-81700284D01*
X56771205Y-81699716D01*
X56170057Y-81948106D01*
X55709722Y-82407637D01*
X55460284Y-83008352D01*
X55459716Y-83658795D01*
X55708106Y-84259943D01*
X55776044Y-84328000D01*
X54512608Y-84328000D01*
X54492534Y-84307926D01*
X54759387Y-84209264D01*
X54985908Y-83599539D01*
X54961856Y-82949540D01*
X54759387Y-82460736D01*
X54492532Y-82362073D01*
X53519605Y-83335000D01*
X53533748Y-83349143D01*
X53354143Y-83528748D01*
X53340000Y-83514605D01*
X53325858Y-83528748D01*
X53146253Y-83349143D01*
X53160395Y-83335000D01*
X52187468Y-82362073D01*
X51920613Y-82460736D01*
X51694092Y-83070461D01*
X51718144Y-83720460D01*
X51920613Y-84209264D01*
X52187466Y-84307926D01*
X52167392Y-84328000D01*
X50159526Y-84328000D01*
X50225278Y-84262363D01*
X50474716Y-83661648D01*
X50475284Y-83011205D01*
X50226894Y-82410057D01*
X49999703Y-82182468D01*
X52367073Y-82182468D01*
X53340000Y-83155395D01*
X54312927Y-82182468D01*
X54214264Y-81915613D01*
X53604539Y-81689092D01*
X52954540Y-81713144D01*
X52465736Y-81915613D01*
X52367073Y-82182468D01*
X49999703Y-82182468D01*
X49767363Y-81949722D01*
X49166648Y-81700284D01*
X48516205Y-81699716D01*
X47915057Y-81948106D01*
X47454722Y-82407637D01*
X47205284Y-83008352D01*
X47204716Y-83658795D01*
X47453106Y-84259943D01*
X47521044Y-84328000D01*
X46257608Y-84328000D01*
X46237534Y-84307926D01*
X46504387Y-84209264D01*
X46730908Y-83599539D01*
X46706856Y-82949540D01*
X46504387Y-82460736D01*
X46237532Y-82362073D01*
X45264605Y-83335000D01*
X45278748Y-83349143D01*
X45099143Y-83528748D01*
X45085000Y-83514605D01*
X45070858Y-83528748D01*
X44891253Y-83349143D01*
X44905395Y-83335000D01*
X43932468Y-82362073D01*
X43665613Y-82460736D01*
X43439092Y-83070461D01*
X43463144Y-83720460D01*
X43665613Y-84209264D01*
X43932466Y-84307926D01*
X43912392Y-84328000D01*
X41904526Y-84328000D01*
X41970278Y-84262363D01*
X42219716Y-83661648D01*
X42220284Y-83011205D01*
X41971894Y-82410057D01*
X41744703Y-82182468D01*
X44112073Y-82182468D01*
X45085000Y-83155395D01*
X46057927Y-82182468D01*
X45959264Y-81915613D01*
X45349539Y-81689092D01*
X44699540Y-81713144D01*
X44210736Y-81915613D01*
X44112073Y-82182468D01*
X41744703Y-82182468D01*
X41512363Y-81949722D01*
X40911648Y-81700284D01*
X40261205Y-81699716D01*
X39660057Y-81948106D01*
X39199722Y-82407637D01*
X38950284Y-83008352D01*
X38949716Y-83658795D01*
X39198106Y-84259943D01*
X39266044Y-84328000D01*
X38002608Y-84328000D01*
X37982534Y-84307926D01*
X38249387Y-84209264D01*
X38475908Y-83599539D01*
X38451856Y-82949540D01*
X38249387Y-82460736D01*
X37982532Y-82362073D01*
X37009605Y-83335000D01*
X37023748Y-83349143D01*
X36844143Y-83528748D01*
X36830000Y-83514605D01*
X36815858Y-83528748D01*
X36636253Y-83349143D01*
X36650395Y-83335000D01*
X35677468Y-82362073D01*
X35410613Y-82460736D01*
X35184092Y-83070461D01*
X35208144Y-83720460D01*
X35410613Y-84209264D01*
X35677466Y-84307926D01*
X35657392Y-84328000D01*
X33649526Y-84328000D01*
X33715278Y-84262363D01*
X33964716Y-83661648D01*
X33965284Y-83011205D01*
X33716894Y-82410057D01*
X33489703Y-82182468D01*
X35857073Y-82182468D01*
X36830000Y-83155395D01*
X37802927Y-82182468D01*
X37704264Y-81915613D01*
X37094539Y-81689092D01*
X36444540Y-81713144D01*
X35955736Y-81915613D01*
X35857073Y-82182468D01*
X33489703Y-82182468D01*
X33257363Y-81949722D01*
X32656648Y-81700284D01*
X32006205Y-81699716D01*
X31405057Y-81948106D01*
X30944722Y-82407637D01*
X30695284Y-83008352D01*
X30694716Y-83658795D01*
X30943106Y-84259943D01*
X31011044Y-84328000D01*
X30607000Y-84328000D01*
X30607000Y-81650000D01*
X75287560Y-81650000D01*
X75287560Y-83450000D01*
X75331838Y-83685317D01*
X75470910Y-83901441D01*
X75683110Y-84046431D01*
X75935000Y-84097440D01*
X77735000Y-84097440D01*
X77970317Y-84053162D01*
X78186441Y-83914090D01*
X78331431Y-83701890D01*
X78382440Y-83450000D01*
X78382440Y-81650000D01*
X78338162Y-81414683D01*
X78199090Y-81198559D01*
X77986890Y-81053569D01*
X77966466Y-81049433D01*
X78135551Y-80880643D01*
X78369733Y-80316670D01*
X78370265Y-79706009D01*
X78137068Y-79141629D01*
X77705643Y-78709449D01*
X77141670Y-78475267D01*
X76531009Y-78474735D01*
X75966629Y-78707932D01*
X75534449Y-79139357D01*
X75300267Y-79703330D01*
X75299735Y-80313991D01*
X75532932Y-80878371D01*
X75700880Y-81046613D01*
X75699683Y-81046838D01*
X75483559Y-81185910D01*
X75338569Y-81398110D01*
X75287560Y-81650000D01*
X30607000Y-81650000D01*
X30607000Y-78105000D01*
X30596994Y-78055590D01*
X30568553Y-78013965D01*
X30526159Y-77986685D01*
X30480000Y-77978000D01*
X24257000Y-77978000D01*
X24257000Y-77158795D01*
X30694716Y-77158795D01*
X30943106Y-77759943D01*
X31402637Y-78220278D01*
X32003352Y-78469716D01*
X32653795Y-78470284D01*
X33254943Y-78221894D01*
X33489715Y-77987532D01*
X35857073Y-77987532D01*
X35955736Y-78254387D01*
X36565461Y-78480908D01*
X37215460Y-78456856D01*
X37704264Y-78254387D01*
X37802927Y-77987532D01*
X36830000Y-77014605D01*
X35857073Y-77987532D01*
X33489715Y-77987532D01*
X33715278Y-77762363D01*
X33964716Y-77161648D01*
X33965232Y-76570461D01*
X35184092Y-76570461D01*
X35208144Y-77220460D01*
X35410613Y-77709264D01*
X35677468Y-77807927D01*
X36650395Y-76835000D01*
X37009605Y-76835000D01*
X37982532Y-77807927D01*
X38249387Y-77709264D01*
X38453893Y-77158795D01*
X38949716Y-77158795D01*
X39198106Y-77759943D01*
X39657637Y-78220278D01*
X40258352Y-78469716D01*
X40908795Y-78470284D01*
X41509943Y-78221894D01*
X41744715Y-77987532D01*
X44112073Y-77987532D01*
X44210736Y-78254387D01*
X44820461Y-78480908D01*
X45470460Y-78456856D01*
X45959264Y-78254387D01*
X46057927Y-77987532D01*
X45085000Y-77014605D01*
X44112073Y-77987532D01*
X41744715Y-77987532D01*
X41970278Y-77762363D01*
X42219716Y-77161648D01*
X42220232Y-76570461D01*
X43439092Y-76570461D01*
X43463144Y-77220460D01*
X43665613Y-77709264D01*
X43932468Y-77807927D01*
X44905395Y-76835000D01*
X45264605Y-76835000D01*
X46237532Y-77807927D01*
X46504387Y-77709264D01*
X46708893Y-77158795D01*
X47204716Y-77158795D01*
X47453106Y-77759943D01*
X47912637Y-78220278D01*
X48513352Y-78469716D01*
X49163795Y-78470284D01*
X49764943Y-78221894D01*
X49999715Y-77987532D01*
X52367073Y-77987532D01*
X52465736Y-78254387D01*
X53075461Y-78480908D01*
X53725460Y-78456856D01*
X54214264Y-78254387D01*
X54312927Y-77987532D01*
X53340000Y-77014605D01*
X52367073Y-77987532D01*
X49999715Y-77987532D01*
X50225278Y-77762363D01*
X50474716Y-77161648D01*
X50475232Y-76570461D01*
X51694092Y-76570461D01*
X51718144Y-77220460D01*
X51920613Y-77709264D01*
X52187468Y-77807927D01*
X53160395Y-76835000D01*
X53519605Y-76835000D01*
X54492532Y-77807927D01*
X54759387Y-77709264D01*
X54963893Y-77158795D01*
X55459716Y-77158795D01*
X55708106Y-77759943D01*
X56167637Y-78220278D01*
X56768352Y-78469716D01*
X57418795Y-78470284D01*
X58019943Y-78221894D01*
X58254715Y-77987532D01*
X60622073Y-77987532D01*
X60720736Y-78254387D01*
X61330461Y-78480908D01*
X61980460Y-78456856D01*
X62469264Y-78254387D01*
X62567927Y-77987532D01*
X61595000Y-77014605D01*
X60622073Y-77987532D01*
X58254715Y-77987532D01*
X58480278Y-77762363D01*
X58729716Y-77161648D01*
X58730232Y-76570461D01*
X59949092Y-76570461D01*
X59973144Y-77220460D01*
X60175613Y-77709264D01*
X60442468Y-77807927D01*
X61415395Y-76835000D01*
X61774605Y-76835000D01*
X62747532Y-77807927D01*
X63014387Y-77709264D01*
X63218893Y-77158795D01*
X63714716Y-77158795D01*
X63963106Y-77759943D01*
X64422637Y-78220278D01*
X65023352Y-78469716D01*
X65673795Y-78470284D01*
X66274943Y-78221894D01*
X66509715Y-77987532D01*
X68877073Y-77987532D01*
X68975736Y-78254387D01*
X69585461Y-78480908D01*
X70235460Y-78456856D01*
X70724264Y-78254387D01*
X70822927Y-77987532D01*
X69850000Y-77014605D01*
X68877073Y-77987532D01*
X66509715Y-77987532D01*
X66735278Y-77762363D01*
X66984716Y-77161648D01*
X66985232Y-76570461D01*
X68204092Y-76570461D01*
X68228144Y-77220460D01*
X68430613Y-77709264D01*
X68697468Y-77807927D01*
X69670395Y-76835000D01*
X70029605Y-76835000D01*
X71002532Y-77807927D01*
X71269387Y-77709264D01*
X71495908Y-77099539D01*
X71471856Y-76449540D01*
X71269387Y-75960736D01*
X71002532Y-75862073D01*
X70029605Y-76835000D01*
X69670395Y-76835000D01*
X68697468Y-75862073D01*
X68430613Y-75960736D01*
X68204092Y-76570461D01*
X66985232Y-76570461D01*
X66985284Y-76511205D01*
X66736894Y-75910057D01*
X66509703Y-75682468D01*
X68877073Y-75682468D01*
X69850000Y-76655395D01*
X70822927Y-75682468D01*
X70735130Y-75445000D01*
X74532968Y-75445000D01*
X74639308Y-75979609D01*
X74942140Y-76432828D01*
X75395359Y-76735660D01*
X75929968Y-76842000D01*
X76470032Y-76842000D01*
X77004641Y-76735660D01*
X77457860Y-76432828D01*
X77760692Y-75979609D01*
X77867032Y-75445000D01*
X77760692Y-74910391D01*
X77457860Y-74457172D01*
X77004641Y-74154340D01*
X76470032Y-74048000D01*
X75929968Y-74048000D01*
X75395359Y-74154340D01*
X74942140Y-74457172D01*
X74639308Y-74910391D01*
X74532968Y-75445000D01*
X70735130Y-75445000D01*
X70724264Y-75415613D01*
X70114539Y-75189092D01*
X69464540Y-75213144D01*
X68975736Y-75415613D01*
X68877073Y-75682468D01*
X66509703Y-75682468D01*
X66277363Y-75449722D01*
X65676648Y-75200284D01*
X65026205Y-75199716D01*
X64425057Y-75448106D01*
X63964722Y-75907637D01*
X63715284Y-76508352D01*
X63714716Y-77158795D01*
X63218893Y-77158795D01*
X63240908Y-77099539D01*
X63216856Y-76449540D01*
X63014387Y-75960736D01*
X62747532Y-75862073D01*
X61774605Y-76835000D01*
X61415395Y-76835000D01*
X60442468Y-75862073D01*
X60175613Y-75960736D01*
X59949092Y-76570461D01*
X58730232Y-76570461D01*
X58730284Y-76511205D01*
X58481894Y-75910057D01*
X58254703Y-75682468D01*
X60622073Y-75682468D01*
X61595000Y-76655395D01*
X62567927Y-75682468D01*
X62469264Y-75415613D01*
X61859539Y-75189092D01*
X61209540Y-75213144D01*
X60720736Y-75415613D01*
X60622073Y-75682468D01*
X58254703Y-75682468D01*
X58022363Y-75449722D01*
X57421648Y-75200284D01*
X56771205Y-75199716D01*
X56170057Y-75448106D01*
X55709722Y-75907637D01*
X55460284Y-76508352D01*
X55459716Y-77158795D01*
X54963893Y-77158795D01*
X54985908Y-77099539D01*
X54961856Y-76449540D01*
X54759387Y-75960736D01*
X54492532Y-75862073D01*
X53519605Y-76835000D01*
X53160395Y-76835000D01*
X52187468Y-75862073D01*
X51920613Y-75960736D01*
X51694092Y-76570461D01*
X50475232Y-76570461D01*
X50475284Y-76511205D01*
X50226894Y-75910057D01*
X49999703Y-75682468D01*
X52367073Y-75682468D01*
X53340000Y-76655395D01*
X54312927Y-75682468D01*
X54214264Y-75415613D01*
X53604539Y-75189092D01*
X52954540Y-75213144D01*
X52465736Y-75415613D01*
X52367073Y-75682468D01*
X49999703Y-75682468D01*
X49767363Y-75449722D01*
X49166648Y-75200284D01*
X48516205Y-75199716D01*
X47915057Y-75448106D01*
X47454722Y-75907637D01*
X47205284Y-76508352D01*
X47204716Y-77158795D01*
X46708893Y-77158795D01*
X46730908Y-77099539D01*
X46706856Y-76449540D01*
X46504387Y-75960736D01*
X46237532Y-75862073D01*
X45264605Y-76835000D01*
X44905395Y-76835000D01*
X43932468Y-75862073D01*
X43665613Y-75960736D01*
X43439092Y-76570461D01*
X42220232Y-76570461D01*
X42220284Y-76511205D01*
X41971894Y-75910057D01*
X41744703Y-75682468D01*
X44112073Y-75682468D01*
X45085000Y-76655395D01*
X46057927Y-75682468D01*
X45959264Y-75415613D01*
X45349539Y-75189092D01*
X44699540Y-75213144D01*
X44210736Y-75415613D01*
X44112073Y-75682468D01*
X41744703Y-75682468D01*
X41512363Y-75449722D01*
X40911648Y-75200284D01*
X40261205Y-75199716D01*
X39660057Y-75448106D01*
X39199722Y-75907637D01*
X38950284Y-76508352D01*
X38949716Y-77158795D01*
X38453893Y-77158795D01*
X38475908Y-77099539D01*
X38451856Y-76449540D01*
X38249387Y-75960736D01*
X37982532Y-75862073D01*
X37009605Y-76835000D01*
X36650395Y-76835000D01*
X35677468Y-75862073D01*
X35410613Y-75960736D01*
X35184092Y-76570461D01*
X33965232Y-76570461D01*
X33965284Y-76511205D01*
X33716894Y-75910057D01*
X33489703Y-75682468D01*
X35857073Y-75682468D01*
X36830000Y-76655395D01*
X37802927Y-75682468D01*
X37704264Y-75415613D01*
X37094539Y-75189092D01*
X36444540Y-75213144D01*
X35955736Y-75415613D01*
X35857073Y-75682468D01*
X33489703Y-75682468D01*
X33257363Y-75449722D01*
X32656648Y-75200284D01*
X32006205Y-75199716D01*
X31405057Y-75448106D01*
X30944722Y-75907637D01*
X30695284Y-76508352D01*
X30694716Y-77158795D01*
X24257000Y-77158795D01*
X24257000Y-72945000D01*
X72032968Y-72945000D01*
X72139308Y-73479609D01*
X72442140Y-73932828D01*
X72895359Y-74235660D01*
X73429968Y-74342000D01*
X73970032Y-74342000D01*
X74504641Y-74235660D01*
X74957860Y-73932828D01*
X75260692Y-73479609D01*
X75297871Y-73292692D01*
X84797870Y-73292692D01*
X84946578Y-73820914D01*
X85286108Y-74252020D01*
X85764770Y-74520377D01*
X85856930Y-74537220D01*
X86073000Y-74414720D01*
X86073000Y-73072000D01*
X86327000Y-73072000D01*
X86327000Y-74414720D01*
X86543070Y-74537220D01*
X86635230Y-74520377D01*
X87113892Y-74252020D01*
X87453422Y-73820914D01*
X87602130Y-73292692D01*
X87443277Y-73072000D01*
X86327000Y-73072000D01*
X86073000Y-73072000D01*
X84956723Y-73072000D01*
X84797870Y-73292692D01*
X75297871Y-73292692D01*
X75367032Y-72945000D01*
X75297872Y-72597308D01*
X84797870Y-72597308D01*
X84956723Y-72818000D01*
X86073000Y-72818000D01*
X86073000Y-71475280D01*
X86327000Y-71475280D01*
X86327000Y-72818000D01*
X87443277Y-72818000D01*
X87602130Y-72597308D01*
X87453422Y-72069086D01*
X87113892Y-71637980D01*
X86635230Y-71369623D01*
X86543070Y-71352780D01*
X86327000Y-71475280D01*
X86073000Y-71475280D01*
X85856930Y-71352780D01*
X85764770Y-71369623D01*
X85286108Y-71637980D01*
X84946578Y-72069086D01*
X84797870Y-72597308D01*
X75297872Y-72597308D01*
X75260692Y-72410391D01*
X74957860Y-71957172D01*
X74504641Y-71654340D01*
X73970032Y-71548000D01*
X73429968Y-71548000D01*
X72895359Y-71654340D01*
X72442140Y-71957172D01*
X72139308Y-72410391D01*
X72032968Y-72945000D01*
X24257000Y-72945000D01*
X24257000Y-66802000D01*
X29210000Y-66802000D01*
X29259410Y-66791994D01*
X29301035Y-66763553D01*
X29328315Y-66721159D01*
X29337000Y-66675000D01*
X29337000Y-66225167D01*
X66501838Y-66225167D01*
X66643883Y-66568943D01*
X66906673Y-66832192D01*
X67250201Y-66974838D01*
X67622167Y-66975162D01*
X67965943Y-66833117D01*
X68074249Y-66725000D01*
X70186875Y-66725000D01*
X69909340Y-67140359D01*
X69803000Y-67674968D01*
X69803000Y-68215032D01*
X69909340Y-68749641D01*
X70212172Y-69202860D01*
X70665391Y-69505692D01*
X71200000Y-69612032D01*
X71734609Y-69505692D01*
X72187828Y-69202860D01*
X72490660Y-68749641D01*
X72597000Y-68215032D01*
X72597000Y-67674968D01*
X72546041Y-67418777D01*
X73556632Y-68429368D01*
X73778862Y-68577857D01*
X74041000Y-68630000D01*
X74739796Y-68630000D01*
X74942140Y-68932828D01*
X75395359Y-69235660D01*
X75929968Y-69342000D01*
X76470032Y-69342000D01*
X77004641Y-69235660D01*
X77457860Y-68932828D01*
X77760692Y-68479609D01*
X77867032Y-67945000D01*
X77760692Y-67410391D01*
X77457860Y-66957172D01*
X77004641Y-66654340D01*
X76470032Y-66548000D01*
X75929968Y-66548000D01*
X75395359Y-66654340D01*
X74942140Y-66957172D01*
X74739796Y-67260000D01*
X74324736Y-67260000D01*
X72620368Y-65555632D01*
X72398138Y-65407143D01*
X72136000Y-65355000D01*
X68074332Y-65355000D01*
X67967327Y-65247808D01*
X67623799Y-65105162D01*
X67251833Y-65104838D01*
X66908057Y-65246883D01*
X66644808Y-65509673D01*
X66502162Y-65853201D01*
X66501838Y-66225167D01*
X29337000Y-66225167D01*
X29337000Y-61245750D01*
X31623000Y-61245750D01*
X31623000Y-61848310D01*
X31719673Y-62081699D01*
X31898302Y-62260327D01*
X32131691Y-62357000D01*
X32734250Y-62357000D01*
X32893000Y-62198250D01*
X32893000Y-61087000D01*
X33147000Y-61087000D01*
X33147000Y-62198250D01*
X33305750Y-62357000D01*
X33908309Y-62357000D01*
X34141698Y-62260327D01*
X34320327Y-62081699D01*
X34417000Y-61848310D01*
X34417000Y-61245750D01*
X34407911Y-61236661D01*
X35432758Y-61236661D01*
X35644990Y-61750303D01*
X36037630Y-62143629D01*
X36245512Y-62229949D01*
X36039697Y-62314990D01*
X35646371Y-62707630D01*
X35433243Y-63220900D01*
X35432758Y-63776661D01*
X35644990Y-64290303D01*
X36037630Y-64683629D01*
X36550900Y-64896757D01*
X37106661Y-64897242D01*
X37620303Y-64685010D01*
X38013629Y-64292370D01*
X38226757Y-63779100D01*
X38227242Y-63223339D01*
X38015010Y-62709697D01*
X37622370Y-62316371D01*
X37414488Y-62230051D01*
X37620303Y-62145010D01*
X38013629Y-61752370D01*
X38226757Y-61239100D01*
X38226759Y-61236661D01*
X45592758Y-61236661D01*
X45804990Y-61750303D01*
X46197630Y-62143629D01*
X46405512Y-62229949D01*
X46199697Y-62314990D01*
X45806371Y-62707630D01*
X45593243Y-63220900D01*
X45592758Y-63776661D01*
X45804990Y-64290303D01*
X46197630Y-64683629D01*
X46710900Y-64896757D01*
X47266661Y-64897242D01*
X47780303Y-64685010D01*
X48173629Y-64292370D01*
X48386757Y-63779100D01*
X48387242Y-63223339D01*
X48175010Y-62709697D01*
X47782370Y-62316371D01*
X47574488Y-62230051D01*
X47780303Y-62145010D01*
X48173629Y-61752370D01*
X48386757Y-61239100D01*
X48387242Y-60683339D01*
X48175010Y-60169697D01*
X47782370Y-59776371D01*
X47590273Y-59696605D01*
X47721143Y-59642397D01*
X47790608Y-59400213D01*
X46990000Y-58599605D01*
X46189392Y-59400213D01*
X46258857Y-59642397D01*
X46399318Y-59692509D01*
X46199697Y-59774990D01*
X45806371Y-60167630D01*
X45593243Y-60680900D01*
X45592758Y-61236661D01*
X38226759Y-61236661D01*
X38227242Y-60683339D01*
X38015010Y-60169697D01*
X37622370Y-59776371D01*
X37430273Y-59696605D01*
X37561143Y-59642397D01*
X37630608Y-59400213D01*
X36830000Y-58599605D01*
X36029392Y-59400213D01*
X36098857Y-59642397D01*
X36239318Y-59692509D01*
X36039697Y-59774990D01*
X35646371Y-60167630D01*
X35433243Y-60680900D01*
X35432758Y-61236661D01*
X34407911Y-61236661D01*
X34258250Y-61087000D01*
X33147000Y-61087000D01*
X32893000Y-61087000D01*
X31781750Y-61087000D01*
X31623000Y-61245750D01*
X29337000Y-61245750D01*
X29337000Y-53616661D01*
X31622758Y-53616661D01*
X31834990Y-54130303D01*
X32227630Y-54523629D01*
X32435512Y-54609949D01*
X32229697Y-54694990D01*
X31836371Y-55087630D01*
X31623243Y-55600900D01*
X31622758Y-56156661D01*
X31834990Y-56670303D01*
X32227630Y-57063629D01*
X32435512Y-57149949D01*
X32229697Y-57234990D01*
X31836371Y-57627630D01*
X31623243Y-58140900D01*
X31622758Y-58696661D01*
X31834990Y-59210303D01*
X32187072Y-59563000D01*
X32131691Y-59563000D01*
X31898302Y-59659673D01*
X31719673Y-59838301D01*
X31623000Y-60071690D01*
X31623000Y-60674250D01*
X31781750Y-60833000D01*
X32893000Y-60833000D01*
X32893000Y-60813000D01*
X33147000Y-60813000D01*
X33147000Y-60833000D01*
X34258250Y-60833000D01*
X34417000Y-60674250D01*
X34417000Y-60071690D01*
X34320327Y-59838301D01*
X34141698Y-59659673D01*
X33908309Y-59563000D01*
X33852386Y-59563000D01*
X34203629Y-59212370D01*
X34416757Y-58699100D01*
X34417181Y-58212302D01*
X35420856Y-58212302D01*
X35448638Y-58767368D01*
X35607603Y-59151143D01*
X35849787Y-59220608D01*
X36650395Y-58420000D01*
X37009605Y-58420000D01*
X37810213Y-59220608D01*
X38052397Y-59151143D01*
X38239144Y-58627698D01*
X38218353Y-58212302D01*
X45580856Y-58212302D01*
X45608638Y-58767368D01*
X45767603Y-59151143D01*
X46009787Y-59220608D01*
X46810395Y-58420000D01*
X47169605Y-58420000D01*
X47970213Y-59220608D01*
X48212397Y-59151143D01*
X48399144Y-58627698D01*
X48371362Y-58072632D01*
X48212397Y-57688857D01*
X47970213Y-57619392D01*
X47169605Y-58420000D01*
X46810395Y-58420000D01*
X46009787Y-57619392D01*
X45767603Y-57688857D01*
X45580856Y-58212302D01*
X38218353Y-58212302D01*
X38211362Y-58072632D01*
X38052397Y-57688857D01*
X37810213Y-57619392D01*
X37009605Y-58420000D01*
X36650395Y-58420000D01*
X35849787Y-57619392D01*
X35607603Y-57688857D01*
X35420856Y-58212302D01*
X34417181Y-58212302D01*
X34417242Y-58143339D01*
X34205010Y-57629697D01*
X33812370Y-57236371D01*
X33604488Y-57150051D01*
X33810303Y-57065010D01*
X34203629Y-56672370D01*
X34416757Y-56159100D01*
X34417242Y-55603339D01*
X34205010Y-55089697D01*
X33812370Y-54696371D01*
X33604488Y-54610051D01*
X33810303Y-54525010D01*
X34203629Y-54132370D01*
X34416757Y-53619100D01*
X34417242Y-53063339D01*
X34205010Y-52549697D01*
X33812370Y-52156371D01*
X33299100Y-51943243D01*
X32743339Y-51942758D01*
X32229697Y-52154990D01*
X31836371Y-52547630D01*
X31623243Y-53060900D01*
X31622758Y-53616661D01*
X29337000Y-53616661D01*
X29337000Y-50038000D01*
X35420560Y-50038000D01*
X35420560Y-51562000D01*
X35464838Y-51797317D01*
X35603910Y-52013441D01*
X35816110Y-52158431D01*
X35999124Y-52195492D01*
X35646371Y-52547630D01*
X35433243Y-53060900D01*
X35432758Y-53616661D01*
X35644990Y-54130303D01*
X36037630Y-54523629D01*
X36245512Y-54609949D01*
X36039697Y-54694990D01*
X35646371Y-55087630D01*
X35433243Y-55600900D01*
X35432758Y-56156661D01*
X35644990Y-56670303D01*
X36037630Y-57063629D01*
X36229727Y-57143395D01*
X36098857Y-57197603D01*
X36029392Y-57439787D01*
X36830000Y-58240395D01*
X37630608Y-57439787D01*
X37561143Y-57197603D01*
X37420682Y-57147491D01*
X37620303Y-57065010D01*
X38013629Y-56672370D01*
X38226757Y-56159100D01*
X38227242Y-55603339D01*
X38015010Y-55089697D01*
X37622370Y-54696371D01*
X37414488Y-54610051D01*
X37620303Y-54525010D01*
X38013629Y-54132370D01*
X38226757Y-53619100D01*
X38227242Y-53063339D01*
X38015010Y-52549697D01*
X37662167Y-52196237D01*
X37827317Y-52165162D01*
X38043441Y-52026090D01*
X38188431Y-51813890D01*
X38239440Y-51562000D01*
X38239440Y-51076661D01*
X45592758Y-51076661D01*
X45804990Y-51590303D01*
X46197630Y-51983629D01*
X46405512Y-52069949D01*
X46199697Y-52154990D01*
X45806371Y-52547630D01*
X45593243Y-53060900D01*
X45592758Y-53616661D01*
X45804990Y-54130303D01*
X46197630Y-54523629D01*
X46405512Y-54609949D01*
X46199697Y-54694990D01*
X45806371Y-55087630D01*
X45593243Y-55600900D01*
X45592758Y-56156661D01*
X45804990Y-56670303D01*
X46197630Y-57063629D01*
X46389727Y-57143395D01*
X46258857Y-57197603D01*
X46189392Y-57439787D01*
X46990000Y-58240395D01*
X47790608Y-57439787D01*
X47721143Y-57197603D01*
X47580682Y-57147491D01*
X47780303Y-57065010D01*
X48173629Y-56672370D01*
X48386757Y-56159100D01*
X48387242Y-55603339D01*
X48175010Y-55089697D01*
X47782370Y-54696371D01*
X47574488Y-54610051D01*
X47780303Y-54525010D01*
X48145783Y-54160167D01*
X49356838Y-54160167D01*
X49498883Y-54503943D01*
X49607000Y-54612249D01*
X49607000Y-56131668D01*
X49499808Y-56238673D01*
X49357162Y-56582201D01*
X49356838Y-56954167D01*
X49498883Y-57297943D01*
X49761673Y-57561192D01*
X50105201Y-57703838D01*
X50477167Y-57704162D01*
X50496000Y-57696380D01*
X50496000Y-61084668D01*
X50388808Y-61191673D01*
X50246162Y-61535201D01*
X50245838Y-61907167D01*
X50387883Y-62250943D01*
X50592474Y-62455891D01*
X50500162Y-62678201D01*
X50499838Y-63050167D01*
X50641883Y-63393943D01*
X50904673Y-63657192D01*
X51015251Y-63703108D01*
X51149883Y-64028943D01*
X51412673Y-64292192D01*
X51756201Y-64434838D01*
X52128167Y-64435162D01*
X52471943Y-64293117D01*
X52735192Y-64030327D01*
X52877838Y-63686799D01*
X52877971Y-63533765D01*
X53897549Y-62514187D01*
X59524752Y-62514187D01*
X59742757Y-63041800D01*
X60146077Y-63445824D01*
X60673309Y-63664750D01*
X61244187Y-63665248D01*
X61771800Y-63447243D01*
X62175824Y-63043923D01*
X62394750Y-62516691D01*
X62394752Y-62514187D01*
X63334752Y-62514187D01*
X63552757Y-63041800D01*
X63956077Y-63445824D01*
X64483309Y-63664750D01*
X65054187Y-63665248D01*
X65581800Y-63447243D01*
X65985824Y-63043923D01*
X66204750Y-62516691D01*
X66205024Y-62201887D01*
X67145000Y-62201887D01*
X67145000Y-62258113D01*
X67254233Y-62807264D01*
X67565302Y-63272811D01*
X68030849Y-63583880D01*
X68580000Y-63693113D01*
X69129151Y-63583880D01*
X69571861Y-63288070D01*
X72107780Y-63288070D01*
X72124623Y-63380230D01*
X72392980Y-63858892D01*
X72824086Y-64198422D01*
X73352308Y-64347130D01*
X73573000Y-64188277D01*
X73573000Y-63072000D01*
X73827000Y-63072000D01*
X73827000Y-64188277D01*
X74047692Y-64347130D01*
X74575914Y-64198422D01*
X75007020Y-63858892D01*
X75275377Y-63380230D01*
X75291375Y-63292692D01*
X84797870Y-63292692D01*
X84946578Y-63820914D01*
X85286108Y-64252020D01*
X85764770Y-64520377D01*
X85856930Y-64537220D01*
X86073000Y-64414720D01*
X86073000Y-63072000D01*
X86327000Y-63072000D01*
X86327000Y-64414720D01*
X86543070Y-64537220D01*
X86635230Y-64520377D01*
X87113892Y-64252020D01*
X87453422Y-63820914D01*
X87602130Y-63292692D01*
X87443277Y-63072000D01*
X86327000Y-63072000D01*
X86073000Y-63072000D01*
X84956723Y-63072000D01*
X84797870Y-63292692D01*
X75291375Y-63292692D01*
X75292220Y-63288070D01*
X75169720Y-63072000D01*
X73827000Y-63072000D01*
X73573000Y-63072000D01*
X72230280Y-63072000D01*
X72107780Y-63288070D01*
X69571861Y-63288070D01*
X69594698Y-63272811D01*
X69905767Y-62807264D01*
X69946610Y-62601930D01*
X72107780Y-62601930D01*
X72230280Y-62818000D01*
X73573000Y-62818000D01*
X73573000Y-61701723D01*
X73827000Y-61701723D01*
X73827000Y-62818000D01*
X75169720Y-62818000D01*
X75292220Y-62601930D01*
X75291376Y-62597308D01*
X84797870Y-62597308D01*
X84956723Y-62818000D01*
X86073000Y-62818000D01*
X86073000Y-61475280D01*
X86327000Y-61475280D01*
X86327000Y-62818000D01*
X87443277Y-62818000D01*
X87602130Y-62597308D01*
X87453422Y-62069086D01*
X87113892Y-61637980D01*
X86635230Y-61369623D01*
X86543070Y-61352780D01*
X86327000Y-61475280D01*
X86073000Y-61475280D01*
X85856930Y-61352780D01*
X85764770Y-61369623D01*
X85286108Y-61637980D01*
X84946578Y-62069086D01*
X84797870Y-62597308D01*
X75291376Y-62597308D01*
X75275377Y-62509770D01*
X75007020Y-62031108D01*
X74575914Y-61691578D01*
X74047692Y-61542870D01*
X73827000Y-61701723D01*
X73573000Y-61701723D01*
X73352308Y-61542870D01*
X72824086Y-61691578D01*
X72392980Y-62031108D01*
X72124623Y-62509770D01*
X72107780Y-62601930D01*
X69946610Y-62601930D01*
X70015000Y-62258113D01*
X70015000Y-62201887D01*
X69905767Y-61652736D01*
X69594698Y-61187189D01*
X69129151Y-60876120D01*
X68580000Y-60766887D01*
X68030849Y-60876120D01*
X67565302Y-61187189D01*
X67254233Y-61652736D01*
X67145000Y-62201887D01*
X66205024Y-62201887D01*
X66205248Y-61945813D01*
X65987243Y-61418200D01*
X65583923Y-61014176D01*
X65056691Y-60795250D01*
X64485813Y-60794752D01*
X63958200Y-61012757D01*
X63554176Y-61416077D01*
X63335250Y-61943309D01*
X63334752Y-62514187D01*
X62394752Y-62514187D01*
X62395248Y-61945813D01*
X62177243Y-61418200D01*
X61773923Y-61014176D01*
X61246691Y-60795250D01*
X60675813Y-60794752D01*
X60148200Y-61012757D01*
X59744176Y-61416077D01*
X59525250Y-61943309D01*
X59524752Y-62514187D01*
X53897549Y-62514187D01*
X55475368Y-60936368D01*
X55623857Y-60714138D01*
X55676000Y-60452000D01*
X55676000Y-60445000D01*
X74532968Y-60445000D01*
X74639308Y-60979609D01*
X74942140Y-61432828D01*
X75395359Y-61735660D01*
X75929968Y-61842000D01*
X76470032Y-61842000D01*
X77004641Y-61735660D01*
X77457860Y-61432828D01*
X77760692Y-60979609D01*
X77867032Y-60445000D01*
X77760692Y-59910391D01*
X77457860Y-59457172D01*
X77004641Y-59154340D01*
X76470032Y-59048000D01*
X75929968Y-59048000D01*
X75395359Y-59154340D01*
X74942140Y-59457172D01*
X74639308Y-59910391D01*
X74532968Y-60445000D01*
X55676000Y-60445000D01*
X55676000Y-55049167D01*
X67644838Y-55049167D01*
X67786883Y-55392943D01*
X68049673Y-55656192D01*
X68393201Y-55798838D01*
X68765167Y-55799162D01*
X69108943Y-55657117D01*
X69217249Y-55549000D01*
X69723000Y-55549000D01*
X69985138Y-55496857D01*
X70207368Y-55348368D01*
X71015736Y-54540000D01*
X74739796Y-54540000D01*
X74942140Y-54842828D01*
X75395359Y-55145660D01*
X75929968Y-55252000D01*
X76470032Y-55252000D01*
X77004641Y-55145660D01*
X77457860Y-54842828D01*
X77760692Y-54389609D01*
X77867032Y-53855000D01*
X77760692Y-53320391D01*
X77457860Y-52867172D01*
X77004641Y-52564340D01*
X76470032Y-52458000D01*
X75929968Y-52458000D01*
X75395359Y-52564340D01*
X74942140Y-52867172D01*
X74739796Y-53170000D01*
X70732000Y-53170000D01*
X70469862Y-53222143D01*
X70247632Y-53370632D01*
X69439264Y-54179000D01*
X69217332Y-54179000D01*
X69110327Y-54071808D01*
X68766799Y-53929162D01*
X68394833Y-53928838D01*
X68051057Y-54070883D01*
X67787808Y-54333673D01*
X67645162Y-54677201D01*
X67644838Y-55049167D01*
X55676000Y-55049167D01*
X55676000Y-53088332D01*
X55783192Y-52981327D01*
X55925838Y-52637799D01*
X55926162Y-52265833D01*
X55833630Y-52041887D01*
X59525000Y-52041887D01*
X59525000Y-52098113D01*
X59634233Y-52647264D01*
X59945302Y-53112811D01*
X60410849Y-53423880D01*
X60960000Y-53533113D01*
X61509151Y-53423880D01*
X61974698Y-53112811D01*
X62285767Y-52647264D01*
X62395000Y-52098113D01*
X62395000Y-52041887D01*
X63335000Y-52041887D01*
X63335000Y-52098113D01*
X63444233Y-52647264D01*
X63755302Y-53112811D01*
X64220849Y-53423880D01*
X64770000Y-53533113D01*
X65319151Y-53423880D01*
X65784698Y-53112811D01*
X65808128Y-53077745D01*
X67751861Y-53077745D01*
X67825995Y-53323864D01*
X68363223Y-53516965D01*
X68933454Y-53489778D01*
X69334005Y-53323864D01*
X69408139Y-53077745D01*
X68580000Y-52249605D01*
X67751861Y-53077745D01*
X65808128Y-53077745D01*
X66095767Y-52647264D01*
X66205000Y-52098113D01*
X66205000Y-52041887D01*
X66167473Y-51853223D01*
X67133035Y-51853223D01*
X67160222Y-52423454D01*
X67326136Y-52824005D01*
X67572255Y-52898139D01*
X68400395Y-52070000D01*
X68759605Y-52070000D01*
X69587745Y-52898139D01*
X69833864Y-52824005D01*
X70026965Y-52286777D01*
X69999778Y-51716546D01*
X69833864Y-51315995D01*
X69587745Y-51241861D01*
X68759605Y-52070000D01*
X68400395Y-52070000D01*
X67572255Y-51241861D01*
X67326136Y-51315995D01*
X67133035Y-51853223D01*
X66167473Y-51853223D01*
X66095767Y-51492736D01*
X65808129Y-51062255D01*
X67751861Y-51062255D01*
X68580000Y-51890395D01*
X69408139Y-51062255D01*
X69334005Y-50816136D01*
X68796777Y-50623035D01*
X68226546Y-50650222D01*
X67825995Y-50816136D01*
X67751861Y-51062255D01*
X65808129Y-51062255D01*
X65784698Y-51027189D01*
X65319151Y-50716120D01*
X64770000Y-50606887D01*
X64220849Y-50716120D01*
X63755302Y-51027189D01*
X63444233Y-51492736D01*
X63335000Y-52041887D01*
X62395000Y-52041887D01*
X62285767Y-51492736D01*
X61974698Y-51027189D01*
X61509151Y-50716120D01*
X60960000Y-50606887D01*
X60410849Y-50716120D01*
X59945302Y-51027189D01*
X59634233Y-51492736D01*
X59525000Y-52041887D01*
X55833630Y-52041887D01*
X55784117Y-51922057D01*
X55521327Y-51658808D01*
X55291110Y-51563213D01*
X55291162Y-51503833D01*
X55149117Y-51160057D01*
X54886327Y-50896808D01*
X54542799Y-50754162D01*
X54406000Y-50754043D01*
X54406000Y-50350167D01*
X69549838Y-50350167D01*
X69691883Y-50693943D01*
X69954673Y-50957192D01*
X70298201Y-51099838D01*
X70451235Y-51099971D01*
X71190632Y-51839368D01*
X71412862Y-51987857D01*
X71675000Y-52040000D01*
X72239796Y-52040000D01*
X72442140Y-52342828D01*
X72895359Y-52645660D01*
X73429968Y-52752000D01*
X73970032Y-52752000D01*
X74504641Y-52645660D01*
X74957860Y-52342828D01*
X75260692Y-51889609D01*
X75297871Y-51702692D01*
X84797870Y-51702692D01*
X84946578Y-52230914D01*
X85286108Y-52662020D01*
X85764770Y-52930377D01*
X85856930Y-52947220D01*
X86073000Y-52824720D01*
X86073000Y-51482000D01*
X86327000Y-51482000D01*
X86327000Y-52824720D01*
X86543070Y-52947220D01*
X86635230Y-52930377D01*
X87113892Y-52662020D01*
X87453422Y-52230914D01*
X87602130Y-51702692D01*
X87443277Y-51482000D01*
X86327000Y-51482000D01*
X86073000Y-51482000D01*
X84956723Y-51482000D01*
X84797870Y-51702692D01*
X75297871Y-51702692D01*
X75367032Y-51355000D01*
X75297872Y-51007308D01*
X84797870Y-51007308D01*
X84956723Y-51228000D01*
X86073000Y-51228000D01*
X86073000Y-49885280D01*
X86327000Y-49885280D01*
X86327000Y-51228000D01*
X87443277Y-51228000D01*
X87602130Y-51007308D01*
X87453422Y-50479086D01*
X87113892Y-50047980D01*
X86635230Y-49779623D01*
X86543070Y-49762780D01*
X86327000Y-49885280D01*
X86073000Y-49885280D01*
X85856930Y-49762780D01*
X85764770Y-49779623D01*
X85286108Y-50047980D01*
X84946578Y-50479086D01*
X84797870Y-51007308D01*
X75297872Y-51007308D01*
X75260692Y-50820391D01*
X74957860Y-50367172D01*
X74504641Y-50064340D01*
X73970032Y-49958000D01*
X73429968Y-49958000D01*
X72895359Y-50064340D01*
X72442140Y-50367172D01*
X72239796Y-50670000D01*
X71958736Y-50670000D01*
X71420030Y-50131294D01*
X71420162Y-49979833D01*
X71278117Y-49636057D01*
X71015327Y-49372808D01*
X70671799Y-49230162D01*
X70299833Y-49229838D01*
X69956057Y-49371883D01*
X69692808Y-49634673D01*
X69550162Y-49978201D01*
X69549838Y-50350167D01*
X54406000Y-50350167D01*
X54406000Y-50167332D01*
X54513192Y-50060327D01*
X54655838Y-49716799D01*
X54656162Y-49344833D01*
X54514117Y-49001057D01*
X54251327Y-48737808D01*
X53907799Y-48595162D01*
X53535833Y-48594838D01*
X53192057Y-48736883D01*
X52928808Y-48999673D01*
X52786162Y-49343201D01*
X52785838Y-49715167D01*
X52835081Y-49834345D01*
X51481030Y-48480294D01*
X51481162Y-48328833D01*
X51339117Y-47985057D01*
X51096017Y-47741532D01*
X60114073Y-47741532D01*
X60212736Y-48008387D01*
X60822461Y-48234908D01*
X61472460Y-48210856D01*
X61961264Y-48008387D01*
X62059927Y-47741532D01*
X61087000Y-46768605D01*
X60114073Y-47741532D01*
X51096017Y-47741532D01*
X51076327Y-47721808D01*
X50732799Y-47579162D01*
X50360833Y-47578838D01*
X50017057Y-47720883D01*
X49753808Y-47983673D01*
X49611162Y-48327201D01*
X49610838Y-48699167D01*
X49752883Y-49042943D01*
X50015673Y-49306192D01*
X50359201Y-49448838D01*
X50512235Y-49448971D01*
X51817264Y-50754000D01*
X51630833Y-50753838D01*
X51287057Y-50895883D01*
X51023808Y-51158673D01*
X50881162Y-51502201D01*
X50881109Y-51563241D01*
X50652057Y-51657883D01*
X50388808Y-51920673D01*
X50246162Y-52264201D01*
X50245838Y-52636167D01*
X50387883Y-52979943D01*
X50447970Y-53040135D01*
X50106833Y-53039838D01*
X49763057Y-53181883D01*
X49499808Y-53444673D01*
X49357162Y-53788201D01*
X49356838Y-54160167D01*
X48145783Y-54160167D01*
X48173629Y-54132370D01*
X48386757Y-53619100D01*
X48387242Y-53063339D01*
X48175010Y-52549697D01*
X47782370Y-52156371D01*
X47574488Y-52070051D01*
X47780303Y-51985010D01*
X48173629Y-51592370D01*
X48386757Y-51079100D01*
X48387242Y-50523339D01*
X48175010Y-50009697D01*
X47782370Y-49616371D01*
X47269100Y-49403243D01*
X46713339Y-49402758D01*
X46199697Y-49614990D01*
X45806371Y-50007630D01*
X45593243Y-50520900D01*
X45592758Y-51076661D01*
X38239440Y-51076661D01*
X38239440Y-50038000D01*
X38195162Y-49802683D01*
X38056090Y-49586559D01*
X37843890Y-49441569D01*
X37592000Y-49390560D01*
X36068000Y-49390560D01*
X35832683Y-49434838D01*
X35616559Y-49573910D01*
X35471569Y-49786110D01*
X35420560Y-50038000D01*
X29337000Y-50038000D01*
X29337000Y-47625000D01*
X29326994Y-47575590D01*
X29298553Y-47533965D01*
X29256159Y-47506685D01*
X29210000Y-47498000D01*
X24257000Y-47498000D01*
X24257000Y-46647745D01*
X27111861Y-46647745D01*
X27185995Y-46893864D01*
X27723223Y-47086965D01*
X28293454Y-47059778D01*
X28694005Y-46893864D01*
X28768139Y-46647745D01*
X27940000Y-45819605D01*
X27111861Y-46647745D01*
X24257000Y-46647745D01*
X24257000Y-45423223D01*
X26493035Y-45423223D01*
X26520222Y-45993454D01*
X26686136Y-46394005D01*
X26932255Y-46468139D01*
X27760395Y-45640000D01*
X28119605Y-45640000D01*
X28947745Y-46468139D01*
X29193864Y-46394005D01*
X29267191Y-46190000D01*
X30302560Y-46190000D01*
X30302560Y-47790000D01*
X30346838Y-48025317D01*
X30485910Y-48241441D01*
X30698110Y-48386431D01*
X30950000Y-48437440D01*
X32550000Y-48437440D01*
X32785317Y-48393162D01*
X33001441Y-48254090D01*
X33146431Y-48041890D01*
X33177815Y-47886911D01*
X33275302Y-48032811D01*
X33740849Y-48343880D01*
X34290000Y-48453113D01*
X34839151Y-48343880D01*
X35304698Y-48032811D01*
X35560000Y-47650725D01*
X35815302Y-48032811D01*
X36280849Y-48343880D01*
X36830000Y-48453113D01*
X37379151Y-48343880D01*
X37844698Y-48032811D01*
X38100000Y-47650725D01*
X38355302Y-48032811D01*
X38820849Y-48343880D01*
X39370000Y-48453113D01*
X39919151Y-48343880D01*
X40384698Y-48032811D01*
X40640000Y-47650725D01*
X40895302Y-48032811D01*
X41360849Y-48343880D01*
X41910000Y-48453113D01*
X42459151Y-48343880D01*
X42924698Y-48032811D01*
X43180000Y-47650725D01*
X43435302Y-48032811D01*
X43900849Y-48343880D01*
X44450000Y-48453113D01*
X44999151Y-48343880D01*
X45464698Y-48032811D01*
X45734986Y-47628297D01*
X45837611Y-47845134D01*
X46252577Y-48221041D01*
X46640961Y-48381904D01*
X46863000Y-48259915D01*
X46863000Y-47117000D01*
X47117000Y-47117000D01*
X47117000Y-48259915D01*
X47339039Y-48381904D01*
X47727423Y-48221041D01*
X48142389Y-47845134D01*
X48381914Y-47339041D01*
X48260629Y-47117000D01*
X47117000Y-47117000D01*
X46863000Y-47117000D01*
X46843000Y-47117000D01*
X46843000Y-46863000D01*
X46863000Y-46863000D01*
X46863000Y-45720085D01*
X47117000Y-45720085D01*
X47117000Y-46863000D01*
X48260629Y-46863000D01*
X48381914Y-46640959D01*
X48232122Y-46324461D01*
X59441092Y-46324461D01*
X59465144Y-46974460D01*
X59667613Y-47463264D01*
X59934468Y-47561927D01*
X60907395Y-46589000D01*
X61266605Y-46589000D01*
X62239532Y-47561927D01*
X62506387Y-47463264D01*
X62732908Y-46853539D01*
X62708856Y-46203540D01*
X62659742Y-46084968D01*
X69803000Y-46084968D01*
X69803000Y-46625032D01*
X69909340Y-47159641D01*
X70212172Y-47612860D01*
X70665391Y-47915692D01*
X71200000Y-48022032D01*
X71734609Y-47915692D01*
X72187828Y-47612860D01*
X72490660Y-47159641D01*
X72597000Y-46625032D01*
X72597000Y-46355000D01*
X74532968Y-46355000D01*
X74639308Y-46889609D01*
X74942140Y-47342828D01*
X75395359Y-47645660D01*
X75929968Y-47752000D01*
X76470032Y-47752000D01*
X77004641Y-47645660D01*
X77457860Y-47342828D01*
X77760692Y-46889609D01*
X77867032Y-46355000D01*
X77760692Y-45820391D01*
X77457860Y-45367172D01*
X77004641Y-45064340D01*
X76470032Y-44958000D01*
X75929968Y-44958000D01*
X75395359Y-45064340D01*
X74942140Y-45367172D01*
X74639308Y-45820391D01*
X74532968Y-46355000D01*
X72597000Y-46355000D01*
X72597000Y-46084968D01*
X72490660Y-45550359D01*
X72187828Y-45097140D01*
X71734609Y-44794308D01*
X71200000Y-44687968D01*
X70665391Y-44794308D01*
X70212172Y-45097140D01*
X69909340Y-45550359D01*
X69803000Y-46084968D01*
X62659742Y-46084968D01*
X62506387Y-45714736D01*
X62239532Y-45616073D01*
X61266605Y-46589000D01*
X60907395Y-46589000D01*
X59934468Y-45616073D01*
X59667613Y-45714736D01*
X59441092Y-46324461D01*
X48232122Y-46324461D01*
X48142389Y-46134866D01*
X47727423Y-45758959D01*
X47339039Y-45598096D01*
X47117000Y-45720085D01*
X46863000Y-45720085D01*
X46640961Y-45598096D01*
X46252577Y-45758959D01*
X45837611Y-46134866D01*
X45734986Y-46351703D01*
X45464698Y-45947189D01*
X44999151Y-45636120D01*
X44450000Y-45526887D01*
X43900849Y-45636120D01*
X43435302Y-45947189D01*
X43180000Y-46329275D01*
X42924698Y-45947189D01*
X42459151Y-45636120D01*
X41910000Y-45526887D01*
X41360849Y-45636120D01*
X40895302Y-45947189D01*
X40640000Y-46329275D01*
X40384698Y-45947189D01*
X39919151Y-45636120D01*
X39370000Y-45526887D01*
X38820849Y-45636120D01*
X38355302Y-45947189D01*
X38100000Y-46329275D01*
X37844698Y-45947189D01*
X37515000Y-45726892D01*
X37515000Y-45512155D01*
X37523167Y-45512162D01*
X37706360Y-45436468D01*
X60114073Y-45436468D01*
X61087000Y-46409395D01*
X62059927Y-45436468D01*
X61961264Y-45169613D01*
X61351539Y-44943092D01*
X60701540Y-44967144D01*
X60212736Y-45169613D01*
X60114073Y-45436468D01*
X37706360Y-45436468D01*
X37866943Y-45370117D01*
X38130192Y-45107327D01*
X38272838Y-44763799D01*
X38273162Y-44391833D01*
X38131117Y-44048057D01*
X37868327Y-43784808D01*
X37524799Y-43642162D01*
X37152833Y-43641838D01*
X36809057Y-43783883D01*
X36545808Y-44046673D01*
X36403162Y-44390201D01*
X36403029Y-44543235D01*
X36345632Y-44600632D01*
X36197143Y-44822862D01*
X36145000Y-45085000D01*
X36145000Y-45726892D01*
X35815302Y-45947189D01*
X35560000Y-46329275D01*
X35304698Y-45947189D01*
X34839151Y-45636120D01*
X34290000Y-45526887D01*
X33740849Y-45636120D01*
X33275302Y-45947189D01*
X33178899Y-46091465D01*
X33153162Y-45954683D01*
X33014090Y-45738559D01*
X32801890Y-45593569D01*
X32550000Y-45542560D01*
X30950000Y-45542560D01*
X30714683Y-45586838D01*
X30498559Y-45725910D01*
X30353569Y-45938110D01*
X30302560Y-46190000D01*
X29267191Y-46190000D01*
X29386965Y-45856777D01*
X29359778Y-45286546D01*
X29193864Y-44885995D01*
X28947745Y-44811861D01*
X28119605Y-45640000D01*
X27760395Y-45640000D01*
X26932255Y-44811861D01*
X26686136Y-44885995D01*
X26493035Y-45423223D01*
X24257000Y-45423223D01*
X24257000Y-44632255D01*
X27111861Y-44632255D01*
X27940000Y-45460395D01*
X28768139Y-44632255D01*
X28694005Y-44386136D01*
X28156777Y-44193035D01*
X27586546Y-44220222D01*
X27185995Y-44386136D01*
X27111861Y-44632255D01*
X24257000Y-44632255D01*
X24257000Y-42730167D01*
X47959838Y-42730167D01*
X48101883Y-43073943D01*
X48364673Y-43337192D01*
X48708201Y-43479838D01*
X49080167Y-43480162D01*
X49423943Y-43338117D01*
X49532249Y-43230000D01*
X52832000Y-43230000D01*
X53094138Y-43177857D01*
X53316368Y-43029368D01*
X54647666Y-41698070D01*
X72107780Y-41698070D01*
X72124623Y-41790230D01*
X72392980Y-42268892D01*
X72824086Y-42608422D01*
X73352308Y-42757130D01*
X73573000Y-42598277D01*
X73573000Y-41482000D01*
X73827000Y-41482000D01*
X73827000Y-42598277D01*
X74047692Y-42757130D01*
X74575914Y-42608422D01*
X75007020Y-42268892D01*
X75275377Y-41790230D01*
X75291375Y-41702692D01*
X84797870Y-41702692D01*
X84946578Y-42230914D01*
X85286108Y-42662020D01*
X85764770Y-42930377D01*
X85856930Y-42947220D01*
X86073000Y-42824720D01*
X86073000Y-41482000D01*
X86327000Y-41482000D01*
X86327000Y-42824720D01*
X86543070Y-42947220D01*
X86635230Y-42930377D01*
X87113892Y-42662020D01*
X87453422Y-42230914D01*
X87602130Y-41702692D01*
X87443277Y-41482000D01*
X86327000Y-41482000D01*
X86073000Y-41482000D01*
X84956723Y-41482000D01*
X84797870Y-41702692D01*
X75291375Y-41702692D01*
X75292220Y-41698070D01*
X75169720Y-41482000D01*
X73827000Y-41482000D01*
X73573000Y-41482000D01*
X72230280Y-41482000D01*
X72107780Y-41698070D01*
X54647666Y-41698070D01*
X55151706Y-41194030D01*
X55303167Y-41194162D01*
X55646943Y-41052117D01*
X55687200Y-41011930D01*
X72107780Y-41011930D01*
X72230280Y-41228000D01*
X73573000Y-41228000D01*
X73573000Y-40111723D01*
X73827000Y-40111723D01*
X73827000Y-41228000D01*
X75169720Y-41228000D01*
X75292220Y-41011930D01*
X75291376Y-41007308D01*
X84797870Y-41007308D01*
X84956723Y-41228000D01*
X86073000Y-41228000D01*
X86073000Y-39885280D01*
X86327000Y-39885280D01*
X86327000Y-41228000D01*
X87443277Y-41228000D01*
X87602130Y-41007308D01*
X87453422Y-40479086D01*
X87113892Y-40047980D01*
X86635230Y-39779623D01*
X86543070Y-39762780D01*
X86327000Y-39885280D01*
X86073000Y-39885280D01*
X85856930Y-39762780D01*
X85764770Y-39779623D01*
X85286108Y-40047980D01*
X84946578Y-40479086D01*
X84797870Y-41007308D01*
X75291376Y-41007308D01*
X75275377Y-40919770D01*
X75007020Y-40441108D01*
X74575914Y-40101578D01*
X74047692Y-39952870D01*
X73827000Y-40111723D01*
X73573000Y-40111723D01*
X73352308Y-39952870D01*
X72824086Y-40101578D01*
X72392980Y-40441108D01*
X72124623Y-40919770D01*
X72107780Y-41011930D01*
X55687200Y-41011930D01*
X55910192Y-40789327D01*
X56052838Y-40445799D01*
X56053162Y-40073833D01*
X55911117Y-39730057D01*
X55648327Y-39466808D01*
X55304799Y-39324162D01*
X54932833Y-39323838D01*
X54589057Y-39465883D01*
X54325808Y-39728673D01*
X54183162Y-40072201D01*
X54183029Y-40225235D01*
X52548264Y-41860000D01*
X50845934Y-41860000D01*
X50845971Y-41816765D01*
X53881706Y-38781030D01*
X54033167Y-38781162D01*
X54376943Y-38639117D01*
X54640192Y-38376327D01*
X54782838Y-38032799D01*
X54782876Y-37989000D01*
X59439560Y-37989000D01*
X59439560Y-39989000D01*
X59483838Y-40224317D01*
X59622910Y-40440441D01*
X59835110Y-40585431D01*
X60087000Y-40636440D01*
X62087000Y-40636440D01*
X62322317Y-40592162D01*
X62538441Y-40453090D01*
X62683431Y-40240890D01*
X62734440Y-39989000D01*
X62734440Y-38855000D01*
X74532968Y-38855000D01*
X74639308Y-39389609D01*
X74942140Y-39842828D01*
X75395359Y-40145660D01*
X75929968Y-40252000D01*
X76470032Y-40252000D01*
X77004641Y-40145660D01*
X77457860Y-39842828D01*
X77760692Y-39389609D01*
X77867032Y-38855000D01*
X77760692Y-38320391D01*
X77457860Y-37867172D01*
X77004641Y-37564340D01*
X76470032Y-37458000D01*
X75929968Y-37458000D01*
X75395359Y-37564340D01*
X74942140Y-37867172D01*
X74639308Y-38320391D01*
X74532968Y-38855000D01*
X62734440Y-38855000D01*
X62734440Y-37989000D01*
X62690162Y-37753683D01*
X62551090Y-37537559D01*
X62338890Y-37392569D01*
X62087000Y-37341560D01*
X60087000Y-37341560D01*
X59851683Y-37385838D01*
X59635559Y-37524910D01*
X59490569Y-37737110D01*
X59439560Y-37989000D01*
X54782876Y-37989000D01*
X54783162Y-37660833D01*
X54641117Y-37317057D01*
X54378327Y-37053808D01*
X54034799Y-36911162D01*
X53662833Y-36910838D01*
X53319057Y-37052883D01*
X53055808Y-37315673D01*
X52913162Y-37659201D01*
X52913029Y-37812235D01*
X49877294Y-40847970D01*
X49725833Y-40847838D01*
X49382057Y-40989883D01*
X49118808Y-41252673D01*
X48976162Y-41596201D01*
X48976150Y-41610070D01*
X48709833Y-41609838D01*
X48366057Y-41751883D01*
X48102808Y-42014673D01*
X47960162Y-42358201D01*
X47959838Y-42730167D01*
X24257000Y-42730167D01*
X24257000Y-40924187D01*
X26504752Y-40924187D01*
X26722757Y-41451800D01*
X27126077Y-41855824D01*
X27653309Y-42074750D01*
X28224187Y-42075248D01*
X28751800Y-41857243D01*
X29155824Y-41453923D01*
X29374750Y-40926691D01*
X29375248Y-40355813D01*
X29157243Y-39828200D01*
X28753923Y-39424176D01*
X28555750Y-39341887D01*
X30315000Y-39341887D01*
X30315000Y-39398113D01*
X30424233Y-39947264D01*
X30735302Y-40412811D01*
X31200849Y-40723880D01*
X31750000Y-40833113D01*
X32299151Y-40723880D01*
X32764698Y-40412811D01*
X33020000Y-40030725D01*
X33275302Y-40412811D01*
X33740849Y-40723880D01*
X34290000Y-40833113D01*
X34839151Y-40723880D01*
X35002000Y-40615068D01*
X35002000Y-40764889D01*
X34767808Y-40998673D01*
X34625162Y-41342201D01*
X34624838Y-41714167D01*
X34766883Y-42057943D01*
X35029673Y-42321192D01*
X35373201Y-42463838D01*
X35745167Y-42464162D01*
X36088943Y-42322117D01*
X36352192Y-42059327D01*
X36494838Y-41715799D01*
X36495162Y-41343833D01*
X36372000Y-41045757D01*
X36372000Y-40742011D01*
X36830000Y-40833113D01*
X37379151Y-40723880D01*
X37844698Y-40412811D01*
X38100000Y-40030725D01*
X38355302Y-40412811D01*
X38820849Y-40723880D01*
X39370000Y-40833113D01*
X39919151Y-40723880D01*
X40384698Y-40412811D01*
X40640000Y-40030725D01*
X40895302Y-40412811D01*
X41360849Y-40723880D01*
X41910000Y-40833113D01*
X42459151Y-40723880D01*
X42924698Y-40412811D01*
X43180000Y-40030725D01*
X43435302Y-40412811D01*
X43900849Y-40723880D01*
X44450000Y-40833113D01*
X44999151Y-40723880D01*
X45464698Y-40412811D01*
X45720000Y-40030725D01*
X45975302Y-40412811D01*
X46440849Y-40723880D01*
X46990000Y-40833113D01*
X47539151Y-40723880D01*
X48004698Y-40412811D01*
X48315767Y-39947264D01*
X48425000Y-39398113D01*
X48425000Y-39341887D01*
X48315767Y-38792736D01*
X48004698Y-38327189D01*
X47539151Y-38016120D01*
X46990000Y-37906887D01*
X46440849Y-38016120D01*
X45975302Y-38327189D01*
X45720000Y-38709275D01*
X45464698Y-38327189D01*
X44999151Y-38016120D01*
X44450000Y-37906887D01*
X43900849Y-38016120D01*
X43435302Y-38327189D01*
X43180000Y-38709275D01*
X42924698Y-38327189D01*
X42459151Y-38016120D01*
X41910000Y-37906887D01*
X41360849Y-38016120D01*
X40895302Y-38327189D01*
X40640000Y-38709275D01*
X40384698Y-38327189D01*
X39919151Y-38016120D01*
X39370000Y-37906887D01*
X38820849Y-38016120D01*
X38355302Y-38327189D01*
X38100000Y-38709275D01*
X37844698Y-38327189D01*
X37379151Y-38016120D01*
X36830000Y-37906887D01*
X36372000Y-37997989D01*
X36372000Y-36451332D01*
X36479192Y-36344327D01*
X36621838Y-36000799D01*
X36622162Y-35628833D01*
X36480117Y-35285057D01*
X36474426Y-35279356D01*
X36945000Y-35372959D01*
X37518489Y-35258885D01*
X38004670Y-34934029D01*
X38215000Y-34619248D01*
X38425330Y-34934029D01*
X38911511Y-35258885D01*
X39485000Y-35372959D01*
X40058489Y-35258885D01*
X40544670Y-34934029D01*
X40760664Y-34610772D01*
X40818179Y-34733490D01*
X41250053Y-35127688D01*
X41665974Y-35299958D01*
X41898000Y-35178817D01*
X41898000Y-33972000D01*
X41878000Y-33972000D01*
X41878000Y-33718000D01*
X41898000Y-33718000D01*
X41898000Y-33698000D01*
X42152000Y-33698000D01*
X42152000Y-33718000D01*
X42172000Y-33718000D01*
X42172000Y-33972000D01*
X42152000Y-33972000D01*
X42152000Y-35178817D01*
X42384026Y-35299958D01*
X42799947Y-35127688D01*
X43231821Y-34733490D01*
X43289336Y-34610772D01*
X43505330Y-34934029D01*
X43790015Y-35124249D01*
X43527294Y-35386970D01*
X43375833Y-35386838D01*
X43032057Y-35528883D01*
X42768808Y-35791673D01*
X42626162Y-36135201D01*
X42625838Y-36507167D01*
X42767883Y-36850943D01*
X43030673Y-37114192D01*
X43374201Y-37256838D01*
X43746167Y-37257162D01*
X44089943Y-37115117D01*
X44353192Y-36852327D01*
X44495838Y-36508799D01*
X44495971Y-36355765D01*
X45049368Y-35802368D01*
X45197857Y-35580138D01*
X45250000Y-35318000D01*
X45250000Y-35184376D01*
X45624670Y-34934029D01*
X45835000Y-34619248D01*
X46045330Y-34934029D01*
X46531511Y-35258885D01*
X47105000Y-35372959D01*
X47678489Y-35258885D01*
X48164670Y-34934029D01*
X48375000Y-34619248D01*
X48585330Y-34934029D01*
X49071511Y-35258885D01*
X49645000Y-35372959D01*
X50218489Y-35258885D01*
X50704670Y-34934029D01*
X50915000Y-34619248D01*
X51125330Y-34934029D01*
X51611511Y-35258885D01*
X52185000Y-35372959D01*
X52758489Y-35258885D01*
X53244670Y-34934029D01*
X53455000Y-34619248D01*
X53665330Y-34934029D01*
X54151511Y-35258885D01*
X54725000Y-35372959D01*
X55298489Y-35258885D01*
X55784670Y-34934029D01*
X55995000Y-34619248D01*
X56205330Y-34934029D01*
X56691511Y-35258885D01*
X57265000Y-35372959D01*
X57838489Y-35258885D01*
X58324670Y-34934029D01*
X58535000Y-34619248D01*
X58745330Y-34934029D01*
X59231511Y-35258885D01*
X59805000Y-35372959D01*
X60378489Y-35258885D01*
X60864670Y-34934029D01*
X61080664Y-34610772D01*
X61138179Y-34733490D01*
X61570053Y-35127688D01*
X61985974Y-35299958D01*
X62218000Y-35178817D01*
X62218000Y-33972000D01*
X62198000Y-33972000D01*
X62198000Y-33718000D01*
X62218000Y-33718000D01*
X62218000Y-33698000D01*
X62472000Y-33698000D01*
X62472000Y-33718000D01*
X62492000Y-33718000D01*
X62492000Y-33972000D01*
X62472000Y-33972000D01*
X62472000Y-35178817D01*
X62704026Y-35299958D01*
X63119947Y-35127688D01*
X63551821Y-34733490D01*
X63609336Y-34610772D01*
X63825330Y-34934029D01*
X64311511Y-35258885D01*
X64885000Y-35372959D01*
X65458489Y-35258885D01*
X65944670Y-34934029D01*
X66155000Y-34619248D01*
X66365330Y-34934029D01*
X66851511Y-35258885D01*
X67425000Y-35372959D01*
X67998489Y-35258885D01*
X68484670Y-34934029D01*
X68695000Y-34619248D01*
X68905330Y-34934029D01*
X69391511Y-35258885D01*
X69965000Y-35372959D01*
X70538489Y-35258885D01*
X71024670Y-34934029D01*
X71235000Y-34619248D01*
X71445330Y-34934029D01*
X71931511Y-35258885D01*
X72505000Y-35372959D01*
X73078489Y-35258885D01*
X73564670Y-34934029D01*
X73775000Y-34619248D01*
X73985330Y-34934029D01*
X74471511Y-35258885D01*
X75045000Y-35372959D01*
X75618489Y-35258885D01*
X76104670Y-34934029D01*
X76315000Y-34619248D01*
X76525330Y-34934029D01*
X77011511Y-35258885D01*
X77585000Y-35372959D01*
X78158489Y-35258885D01*
X78644670Y-34934029D01*
X78860664Y-34610772D01*
X78918179Y-34733490D01*
X79350053Y-35127688D01*
X79765974Y-35299958D01*
X79998000Y-35178817D01*
X79998000Y-33972000D01*
X80252000Y-33972000D01*
X80252000Y-35178817D01*
X80484026Y-35299958D01*
X80899947Y-35127688D01*
X81331821Y-34733490D01*
X81579968Y-34204027D01*
X81459469Y-33972000D01*
X80252000Y-33972000D01*
X79998000Y-33972000D01*
X79978000Y-33972000D01*
X79978000Y-33718000D01*
X79998000Y-33718000D01*
X79998000Y-33698000D01*
X80252000Y-33698000D01*
X80252000Y-33718000D01*
X81459469Y-33718000D01*
X81579968Y-33485973D01*
X81331821Y-32956510D01*
X80913839Y-32574992D01*
X81184670Y-32394029D01*
X81509526Y-31907848D01*
X81623600Y-31334359D01*
X81623600Y-31275641D01*
X81509526Y-30702152D01*
X81184670Y-30215971D01*
X80698489Y-29891115D01*
X80125000Y-29777041D01*
X79551511Y-29891115D01*
X79065330Y-30215971D01*
X78855000Y-30530752D01*
X78644670Y-30215971D01*
X78158489Y-29891115D01*
X77585000Y-29777041D01*
X77011511Y-29891115D01*
X76525330Y-30215971D01*
X76315000Y-30530752D01*
X76104670Y-30215971D01*
X75618489Y-29891115D01*
X75045000Y-29777041D01*
X74471511Y-29891115D01*
X73985330Y-30215971D01*
X73769336Y-30539228D01*
X73711821Y-30416510D01*
X73279947Y-30022312D01*
X72864026Y-29850042D01*
X72632000Y-29971183D01*
X72632000Y-31178000D01*
X72652000Y-31178000D01*
X72652000Y-31432000D01*
X72632000Y-31432000D01*
X72632000Y-31452000D01*
X72378000Y-31452000D01*
X72378000Y-31432000D01*
X72358000Y-31432000D01*
X72358000Y-31178000D01*
X72378000Y-31178000D01*
X72378000Y-29971183D01*
X72145974Y-29850042D01*
X71730053Y-30022312D01*
X71298179Y-30416510D01*
X71240664Y-30539228D01*
X71024670Y-30215971D01*
X70538489Y-29891115D01*
X69965000Y-29777041D01*
X69391511Y-29891115D01*
X68905330Y-30215971D01*
X68689336Y-30539228D01*
X68631821Y-30416510D01*
X68199947Y-30022312D01*
X67784026Y-29850042D01*
X67552000Y-29971183D01*
X67552000Y-31178000D01*
X67572000Y-31178000D01*
X67572000Y-31432000D01*
X67552000Y-31432000D01*
X67552000Y-31452000D01*
X67298000Y-31452000D01*
X67298000Y-31432000D01*
X67278000Y-31432000D01*
X67278000Y-31178000D01*
X67298000Y-31178000D01*
X67298000Y-29971183D01*
X67065974Y-29850042D01*
X66650053Y-30022312D01*
X66218179Y-30416510D01*
X66160664Y-30539228D01*
X65944670Y-30215971D01*
X65458489Y-29891115D01*
X64885000Y-29777041D01*
X64311511Y-29891115D01*
X63825330Y-30215971D01*
X63615000Y-30530752D01*
X63404670Y-30215971D01*
X62918489Y-29891115D01*
X62345000Y-29777041D01*
X61771511Y-29891115D01*
X61285330Y-30215971D01*
X61075000Y-30530752D01*
X60864670Y-30215971D01*
X60378489Y-29891115D01*
X59805000Y-29777041D01*
X59231511Y-29891115D01*
X58745330Y-30215971D01*
X58535000Y-30530752D01*
X58324670Y-30215971D01*
X57838489Y-29891115D01*
X57265000Y-29777041D01*
X56691511Y-29891115D01*
X56205330Y-30215971D01*
X55989336Y-30539228D01*
X55931821Y-30416510D01*
X55499947Y-30022312D01*
X55084026Y-29850042D01*
X54852000Y-29971183D01*
X54852000Y-31178000D01*
X54872000Y-31178000D01*
X54872000Y-31432000D01*
X54852000Y-31432000D01*
X54852000Y-31452000D01*
X54598000Y-31452000D01*
X54598000Y-31432000D01*
X54578000Y-31432000D01*
X54578000Y-31178000D01*
X54598000Y-31178000D01*
X54598000Y-29971183D01*
X54365974Y-29850042D01*
X53950053Y-30022312D01*
X53518179Y-30416510D01*
X53460664Y-30539228D01*
X53244670Y-30215971D01*
X52758489Y-29891115D01*
X52185000Y-29777041D01*
X51611511Y-29891115D01*
X51125330Y-30215971D01*
X50915000Y-30530752D01*
X50704670Y-30215971D01*
X50218489Y-29891115D01*
X49645000Y-29777041D01*
X49071511Y-29891115D01*
X48585330Y-30215971D01*
X48369336Y-30539228D01*
X48311821Y-30416510D01*
X47879947Y-30022312D01*
X47464026Y-29850042D01*
X47232000Y-29971183D01*
X47232000Y-31178000D01*
X47252000Y-31178000D01*
X47252000Y-31432000D01*
X47232000Y-31432000D01*
X47232000Y-31452000D01*
X46978000Y-31452000D01*
X46978000Y-31432000D01*
X46958000Y-31432000D01*
X46958000Y-31178000D01*
X46978000Y-31178000D01*
X46978000Y-29971183D01*
X46745974Y-29850042D01*
X46330053Y-30022312D01*
X45898179Y-30416510D01*
X45840664Y-30539228D01*
X45624670Y-30215971D01*
X45138489Y-29891115D01*
X44565000Y-29777041D01*
X43991511Y-29891115D01*
X43505330Y-30215971D01*
X43295000Y-30530752D01*
X43084670Y-30215971D01*
X42598489Y-29891115D01*
X42025000Y-29777041D01*
X41451511Y-29891115D01*
X40965330Y-30215971D01*
X40755000Y-30530752D01*
X40544670Y-30215971D01*
X40058489Y-29891115D01*
X39485000Y-29777041D01*
X38911511Y-29891115D01*
X38425330Y-30215971D01*
X38209336Y-30539228D01*
X38151821Y-30416510D01*
X37719947Y-30022312D01*
X37304026Y-29850042D01*
X37072000Y-29971183D01*
X37072000Y-31178000D01*
X37092000Y-31178000D01*
X37092000Y-31432000D01*
X37072000Y-31432000D01*
X37072000Y-31452000D01*
X36818000Y-31452000D01*
X36818000Y-31432000D01*
X36798000Y-31432000D01*
X36798000Y-31178000D01*
X36818000Y-31178000D01*
X36818000Y-29971183D01*
X36585974Y-29850042D01*
X36170053Y-30022312D01*
X35738179Y-30416510D01*
X35680664Y-30539228D01*
X35464670Y-30215971D01*
X34978489Y-29891115D01*
X34405000Y-29777041D01*
X33831511Y-29891115D01*
X33345330Y-30215971D01*
X33135000Y-30530752D01*
X32924670Y-30215971D01*
X32438489Y-29891115D01*
X31865000Y-29777041D01*
X31291511Y-29891115D01*
X30805330Y-30215971D01*
X30480474Y-30702152D01*
X30366400Y-31275641D01*
X30366400Y-31334359D01*
X30480474Y-31907848D01*
X30791574Y-32373442D01*
X30766083Y-32378238D01*
X30549959Y-32517310D01*
X30404969Y-32729510D01*
X30353960Y-32981400D01*
X30353960Y-34708600D01*
X30398238Y-34943917D01*
X30537310Y-35160041D01*
X30749510Y-35305031D01*
X31001400Y-35356040D01*
X32728600Y-35356040D01*
X32963917Y-35311762D01*
X33180041Y-35172690D01*
X33325031Y-34960490D01*
X33333864Y-34916869D01*
X33345330Y-34934029D01*
X33831511Y-35258885D01*
X34405000Y-35372959D01*
X34904995Y-35273504D01*
X34894808Y-35283673D01*
X34752162Y-35627201D01*
X34751838Y-35999167D01*
X34893883Y-36342943D01*
X35002000Y-36451249D01*
X35002000Y-38124932D01*
X34839151Y-38016120D01*
X34290000Y-37906887D01*
X33740849Y-38016120D01*
X33275302Y-38327189D01*
X33020000Y-38709275D01*
X32764698Y-38327189D01*
X32299151Y-38016120D01*
X31750000Y-37906887D01*
X31200849Y-38016120D01*
X30735302Y-38327189D01*
X30424233Y-38792736D01*
X30315000Y-39341887D01*
X28555750Y-39341887D01*
X28226691Y-39205250D01*
X27655813Y-39204752D01*
X27128200Y-39422757D01*
X26724176Y-39826077D01*
X26505250Y-40353309D01*
X26504752Y-40924187D01*
X24257000Y-40924187D01*
X24257000Y-36322000D01*
X29210000Y-36322000D01*
X29259410Y-36311994D01*
X29301035Y-36283553D01*
X29328315Y-36241159D01*
X29337000Y-36195000D01*
X29337000Y-34796775D01*
X29729123Y-34405336D01*
X30221439Y-33219706D01*
X30222559Y-31935926D01*
X29732313Y-30749439D01*
X29337000Y-30353435D01*
X29337000Y-29337000D01*
X82423000Y-29337000D01*
X82423000Y-30582824D01*
X82423000Y-30582824D01*
G37*
X82423000Y-30582824D02*
X82260877Y-30744664D01*
X81768561Y-31930294D01*
X81767441Y-33214074D01*
X82257687Y-34400561D01*
X82423000Y-34566163D01*
X82423000Y-36195000D01*
X82433006Y-36244410D01*
X82461447Y-36286035D01*
X82503841Y-36313315D01*
X82550000Y-36322000D01*
X87810000Y-36322000D01*
X87810000Y-77978000D01*
X81280000Y-77978000D01*
X81230590Y-77988006D01*
X81188965Y-78016447D01*
X81161685Y-78058841D01*
X81153000Y-78105000D01*
X81153000Y-84328000D01*
X71022608Y-84328000D01*
X71002534Y-84307926D01*
X71269387Y-84209264D01*
X71495908Y-83599539D01*
X71471856Y-82949540D01*
X71269387Y-82460736D01*
X71002532Y-82362073D01*
X70029605Y-83335000D01*
X70043748Y-83349143D01*
X69864143Y-83528748D01*
X69850000Y-83514605D01*
X69835858Y-83528748D01*
X69656253Y-83349143D01*
X69670395Y-83335000D01*
X68697468Y-82362073D01*
X68430613Y-82460736D01*
X68204092Y-83070461D01*
X68228144Y-83720460D01*
X68430613Y-84209264D01*
X68697466Y-84307926D01*
X68677392Y-84328000D01*
X66669526Y-84328000D01*
X66735278Y-84262363D01*
X66984716Y-83661648D01*
X66985284Y-83011205D01*
X66736894Y-82410057D01*
X66509703Y-82182468D01*
X68877073Y-82182468D01*
X69850000Y-83155395D01*
X70822927Y-82182468D01*
X70724264Y-81915613D01*
X70114539Y-81689092D01*
X69464540Y-81713144D01*
X68975736Y-81915613D01*
X68877073Y-82182468D01*
X66509703Y-82182468D01*
X66277363Y-81949722D01*
X65676648Y-81700284D01*
X65026205Y-81699716D01*
X64425057Y-81948106D01*
X63964722Y-82407637D01*
X63715284Y-83008352D01*
X63714716Y-83658795D01*
X63963106Y-84259943D01*
X64031044Y-84328000D01*
X62767608Y-84328000D01*
X62747534Y-84307926D01*
X63014387Y-84209264D01*
X63240908Y-83599539D01*
X63216856Y-82949540D01*
X63014387Y-82460736D01*
X62747532Y-82362073D01*
X61774605Y-83335000D01*
X61788748Y-83349143D01*
X61609143Y-83528748D01*
X61595000Y-83514605D01*
X61580858Y-83528748D01*
X61401253Y-83349143D01*
X61415395Y-83335000D01*
X60442468Y-82362073D01*
X60175613Y-82460736D01*
X59949092Y-83070461D01*
X59973144Y-83720460D01*
X60175613Y-84209264D01*
X60442466Y-84307926D01*
X60422392Y-84328000D01*
X58414526Y-84328000D01*
X58480278Y-84262363D01*
X58729716Y-83661648D01*
X58730284Y-83011205D01*
X58481894Y-82410057D01*
X58254703Y-82182468D01*
X60622073Y-82182468D01*
X61595000Y-83155395D01*
X62567927Y-82182468D01*
X62469264Y-81915613D01*
X61859539Y-81689092D01*
X61209540Y-81713144D01*
X60720736Y-81915613D01*
X60622073Y-82182468D01*
X58254703Y-82182468D01*
X58022363Y-81949722D01*
X57421648Y-81700284D01*
X56771205Y-81699716D01*
X56170057Y-81948106D01*
X55709722Y-82407637D01*
X55460284Y-83008352D01*
X55459716Y-83658795D01*
X55708106Y-84259943D01*
X55776044Y-84328000D01*
X54512608Y-84328000D01*
X54492534Y-84307926D01*
X54759387Y-84209264D01*
X54985908Y-83599539D01*
X54961856Y-82949540D01*
X54759387Y-82460736D01*
X54492532Y-82362073D01*
X53519605Y-83335000D01*
X53533748Y-83349143D01*
X53354143Y-83528748D01*
X53340000Y-83514605D01*
X53325858Y-83528748D01*
X53146253Y-83349143D01*
X53160395Y-83335000D01*
X52187468Y-82362073D01*
X51920613Y-82460736D01*
X51694092Y-83070461D01*
X51718144Y-83720460D01*
X51920613Y-84209264D01*
X52187466Y-84307926D01*
X52167392Y-84328000D01*
X50159526Y-84328000D01*
X50225278Y-84262363D01*
X50474716Y-83661648D01*
X50475284Y-83011205D01*
X50226894Y-82410057D01*
X49999703Y-82182468D01*
X52367073Y-82182468D01*
X53340000Y-83155395D01*
X54312927Y-82182468D01*
X54214264Y-81915613D01*
X53604539Y-81689092D01*
X52954540Y-81713144D01*
X52465736Y-81915613D01*
X52367073Y-82182468D01*
X49999703Y-82182468D01*
X49767363Y-81949722D01*
X49166648Y-81700284D01*
X48516205Y-81699716D01*
X47915057Y-81948106D01*
X47454722Y-82407637D01*
X47205284Y-83008352D01*
X47204716Y-83658795D01*
X47453106Y-84259943D01*
X47521044Y-84328000D01*
X46257608Y-84328000D01*
X46237534Y-84307926D01*
X46504387Y-84209264D01*
X46730908Y-83599539D01*
X46706856Y-82949540D01*
X46504387Y-82460736D01*
X46237532Y-82362073D01*
X45264605Y-83335000D01*
X45278748Y-83349143D01*
X45099143Y-83528748D01*
X45085000Y-83514605D01*
X45070858Y-83528748D01*
X44891253Y-83349143D01*
X44905395Y-83335000D01*
X43932468Y-82362073D01*
X43665613Y-82460736D01*
X43439092Y-83070461D01*
X43463144Y-83720460D01*
X43665613Y-84209264D01*
X43932466Y-84307926D01*
X43912392Y-84328000D01*
X41904526Y-84328000D01*
X41970278Y-84262363D01*
X42219716Y-83661648D01*
X42220284Y-83011205D01*
X41971894Y-82410057D01*
X41744703Y-82182468D01*
X44112073Y-82182468D01*
X45085000Y-83155395D01*
X46057927Y-82182468D01*
X45959264Y-81915613D01*
X45349539Y-81689092D01*
X44699540Y-81713144D01*
X44210736Y-81915613D01*
X44112073Y-82182468D01*
X41744703Y-82182468D01*
X41512363Y-81949722D01*
X40911648Y-81700284D01*
X40261205Y-81699716D01*
X39660057Y-81948106D01*
X39199722Y-82407637D01*
X38950284Y-83008352D01*
X38949716Y-83658795D01*
X39198106Y-84259943D01*
X39266044Y-84328000D01*
X38002608Y-84328000D01*
X37982534Y-84307926D01*
X38249387Y-84209264D01*
X38475908Y-83599539D01*
X38451856Y-82949540D01*
X38249387Y-82460736D01*
X37982532Y-82362073D01*
X37009605Y-83335000D01*
X37023748Y-83349143D01*
X36844143Y-83528748D01*
X36830000Y-83514605D01*
X36815858Y-83528748D01*
X36636253Y-83349143D01*
X36650395Y-83335000D01*
X35677468Y-82362073D01*
X35410613Y-82460736D01*
X35184092Y-83070461D01*
X35208144Y-83720460D01*
X35410613Y-84209264D01*
X35677466Y-84307926D01*
X35657392Y-84328000D01*
X33649526Y-84328000D01*
X33715278Y-84262363D01*
X33964716Y-83661648D01*
X33965284Y-83011205D01*
X33716894Y-82410057D01*
X33489703Y-82182468D01*
X35857073Y-82182468D01*
X36830000Y-83155395D01*
X37802927Y-82182468D01*
X37704264Y-81915613D01*
X37094539Y-81689092D01*
X36444540Y-81713144D01*
X35955736Y-81915613D01*
X35857073Y-82182468D01*
X33489703Y-82182468D01*
X33257363Y-81949722D01*
X32656648Y-81700284D01*
X32006205Y-81699716D01*
X31405057Y-81948106D01*
X30944722Y-82407637D01*
X30695284Y-83008352D01*
X30694716Y-83658795D01*
X30943106Y-84259943D01*
X31011044Y-84328000D01*
X30607000Y-84328000D01*
X30607000Y-81650000D01*
X75287560Y-81650000D01*
X75287560Y-83450000D01*
X75331838Y-83685317D01*
X75470910Y-83901441D01*
X75683110Y-84046431D01*
X75935000Y-84097440D01*
X77735000Y-84097440D01*
X77970317Y-84053162D01*
X78186441Y-83914090D01*
X78331431Y-83701890D01*
X78382440Y-83450000D01*
X78382440Y-81650000D01*
X78338162Y-81414683D01*
X78199090Y-81198559D01*
X77986890Y-81053569D01*
X77966466Y-81049433D01*
X78135551Y-80880643D01*
X78369733Y-80316670D01*
X78370265Y-79706009D01*
X78137068Y-79141629D01*
X77705643Y-78709449D01*
X77141670Y-78475267D01*
X76531009Y-78474735D01*
X75966629Y-78707932D01*
X75534449Y-79139357D01*
X75300267Y-79703330D01*
X75299735Y-80313991D01*
X75532932Y-80878371D01*
X75700880Y-81046613D01*
X75699683Y-81046838D01*
X75483559Y-81185910D01*
X75338569Y-81398110D01*
X75287560Y-81650000D01*
X30607000Y-81650000D01*
X30607000Y-78105000D01*
X30596994Y-78055590D01*
X30568553Y-78013965D01*
X30526159Y-77986685D01*
X30480000Y-77978000D01*
X24257000Y-77978000D01*
X24257000Y-77158795D01*
X30694716Y-77158795D01*
X30943106Y-77759943D01*
X31402637Y-78220278D01*
X32003352Y-78469716D01*
X32653795Y-78470284D01*
X33254943Y-78221894D01*
X33489715Y-77987532D01*
X35857073Y-77987532D01*
X35955736Y-78254387D01*
X36565461Y-78480908D01*
X37215460Y-78456856D01*
X37704264Y-78254387D01*
X37802927Y-77987532D01*
X36830000Y-77014605D01*
X35857073Y-77987532D01*
X33489715Y-77987532D01*
X33715278Y-77762363D01*
X33964716Y-77161648D01*
X33965232Y-76570461D01*
X35184092Y-76570461D01*
X35208144Y-77220460D01*
X35410613Y-77709264D01*
X35677468Y-77807927D01*
X36650395Y-76835000D01*
X37009605Y-76835000D01*
X37982532Y-77807927D01*
X38249387Y-77709264D01*
X38453893Y-77158795D01*
X38949716Y-77158795D01*
X39198106Y-77759943D01*
X39657637Y-78220278D01*
X40258352Y-78469716D01*
X40908795Y-78470284D01*
X41509943Y-78221894D01*
X41744715Y-77987532D01*
X44112073Y-77987532D01*
X44210736Y-78254387D01*
X44820461Y-78480908D01*
X45470460Y-78456856D01*
X45959264Y-78254387D01*
X46057927Y-77987532D01*
X45085000Y-77014605D01*
X44112073Y-77987532D01*
X41744715Y-77987532D01*
X41970278Y-77762363D01*
X42219716Y-77161648D01*
X42220232Y-76570461D01*
X43439092Y-76570461D01*
X43463144Y-77220460D01*
X43665613Y-77709264D01*
X43932468Y-77807927D01*
X44905395Y-76835000D01*
X45264605Y-76835000D01*
X46237532Y-77807927D01*
X46504387Y-77709264D01*
X46708893Y-77158795D01*
X47204716Y-77158795D01*
X47453106Y-77759943D01*
X47912637Y-78220278D01*
X48513352Y-78469716D01*
X49163795Y-78470284D01*
X49764943Y-78221894D01*
X49999715Y-77987532D01*
X52367073Y-77987532D01*
X52465736Y-78254387D01*
X53075461Y-78480908D01*
X53725460Y-78456856D01*
X54214264Y-78254387D01*
X54312927Y-77987532D01*
X53340000Y-77014605D01*
X52367073Y-77987532D01*
X49999715Y-77987532D01*
X50225278Y-77762363D01*
X50474716Y-77161648D01*
X50475232Y-76570461D01*
X51694092Y-76570461D01*
X51718144Y-77220460D01*
X51920613Y-77709264D01*
X52187468Y-77807927D01*
X53160395Y-76835000D01*
X53519605Y-76835000D01*
X54492532Y-77807927D01*
X54759387Y-77709264D01*
X54963893Y-77158795D01*
X55459716Y-77158795D01*
X55708106Y-77759943D01*
X56167637Y-78220278D01*
X56768352Y-78469716D01*
X57418795Y-78470284D01*
X58019943Y-78221894D01*
X58254715Y-77987532D01*
X60622073Y-77987532D01*
X60720736Y-78254387D01*
X61330461Y-78480908D01*
X61980460Y-78456856D01*
X62469264Y-78254387D01*
X62567927Y-77987532D01*
X61595000Y-77014605D01*
X60622073Y-77987532D01*
X58254715Y-77987532D01*
X58480278Y-77762363D01*
X58729716Y-77161648D01*
X58730232Y-76570461D01*
X59949092Y-76570461D01*
X59973144Y-77220460D01*
X60175613Y-77709264D01*
X60442468Y-77807927D01*
X61415395Y-76835000D01*
X61774605Y-76835000D01*
X62747532Y-77807927D01*
X63014387Y-77709264D01*
X63218893Y-77158795D01*
X63714716Y-77158795D01*
X63963106Y-77759943D01*
X64422637Y-78220278D01*
X65023352Y-78469716D01*
X65673795Y-78470284D01*
X66274943Y-78221894D01*
X66509715Y-77987532D01*
X68877073Y-77987532D01*
X68975736Y-78254387D01*
X69585461Y-78480908D01*
X70235460Y-78456856D01*
X70724264Y-78254387D01*
X70822927Y-77987532D01*
X69850000Y-77014605D01*
X68877073Y-77987532D01*
X66509715Y-77987532D01*
X66735278Y-77762363D01*
X66984716Y-77161648D01*
X66985232Y-76570461D01*
X68204092Y-76570461D01*
X68228144Y-77220460D01*
X68430613Y-77709264D01*
X68697468Y-77807927D01*
X69670395Y-76835000D01*
X70029605Y-76835000D01*
X71002532Y-77807927D01*
X71269387Y-77709264D01*
X71495908Y-77099539D01*
X71471856Y-76449540D01*
X71269387Y-75960736D01*
X71002532Y-75862073D01*
X70029605Y-76835000D01*
X69670395Y-76835000D01*
X68697468Y-75862073D01*
X68430613Y-75960736D01*
X68204092Y-76570461D01*
X66985232Y-76570461D01*
X66985284Y-76511205D01*
X66736894Y-75910057D01*
X66509703Y-75682468D01*
X68877073Y-75682468D01*
X69850000Y-76655395D01*
X70822927Y-75682468D01*
X70735130Y-75445000D01*
X74532968Y-75445000D01*
X74639308Y-75979609D01*
X74942140Y-76432828D01*
X75395359Y-76735660D01*
X75929968Y-76842000D01*
X76470032Y-76842000D01*
X77004641Y-76735660D01*
X77457860Y-76432828D01*
X77760692Y-75979609D01*
X77867032Y-75445000D01*
X77760692Y-74910391D01*
X77457860Y-74457172D01*
X77004641Y-74154340D01*
X76470032Y-74048000D01*
X75929968Y-74048000D01*
X75395359Y-74154340D01*
X74942140Y-74457172D01*
X74639308Y-74910391D01*
X74532968Y-75445000D01*
X70735130Y-75445000D01*
X70724264Y-75415613D01*
X70114539Y-75189092D01*
X69464540Y-75213144D01*
X68975736Y-75415613D01*
X68877073Y-75682468D01*
X66509703Y-75682468D01*
X66277363Y-75449722D01*
X65676648Y-75200284D01*
X65026205Y-75199716D01*
X64425057Y-75448106D01*
X63964722Y-75907637D01*
X63715284Y-76508352D01*
X63714716Y-77158795D01*
X63218893Y-77158795D01*
X63240908Y-77099539D01*
X63216856Y-76449540D01*
X63014387Y-75960736D01*
X62747532Y-75862073D01*
X61774605Y-76835000D01*
X61415395Y-76835000D01*
X60442468Y-75862073D01*
X60175613Y-75960736D01*
X59949092Y-76570461D01*
X58730232Y-76570461D01*
X58730284Y-76511205D01*
X58481894Y-75910057D01*
X58254703Y-75682468D01*
X60622073Y-75682468D01*
X61595000Y-76655395D01*
X62567927Y-75682468D01*
X62469264Y-75415613D01*
X61859539Y-75189092D01*
X61209540Y-75213144D01*
X60720736Y-75415613D01*
X60622073Y-75682468D01*
X58254703Y-75682468D01*
X58022363Y-75449722D01*
X57421648Y-75200284D01*
X56771205Y-75199716D01*
X56170057Y-75448106D01*
X55709722Y-75907637D01*
X55460284Y-76508352D01*
X55459716Y-77158795D01*
X54963893Y-77158795D01*
X54985908Y-77099539D01*
X54961856Y-76449540D01*
X54759387Y-75960736D01*
X54492532Y-75862073D01*
X53519605Y-76835000D01*
X53160395Y-76835000D01*
X52187468Y-75862073D01*
X51920613Y-75960736D01*
X51694092Y-76570461D01*
X50475232Y-76570461D01*
X50475284Y-76511205D01*
X50226894Y-75910057D01*
X49999703Y-75682468D01*
X52367073Y-75682468D01*
X53340000Y-76655395D01*
X54312927Y-75682468D01*
X54214264Y-75415613D01*
X53604539Y-75189092D01*
X52954540Y-75213144D01*
X52465736Y-75415613D01*
X52367073Y-75682468D01*
X49999703Y-75682468D01*
X49767363Y-75449722D01*
X49166648Y-75200284D01*
X48516205Y-75199716D01*
X47915057Y-75448106D01*
X47454722Y-75907637D01*
X47205284Y-76508352D01*
X47204716Y-77158795D01*
X46708893Y-77158795D01*
X46730908Y-77099539D01*
X46706856Y-76449540D01*
X46504387Y-75960736D01*
X46237532Y-75862073D01*
X45264605Y-76835000D01*
X44905395Y-76835000D01*
X43932468Y-75862073D01*
X43665613Y-75960736D01*
X43439092Y-76570461D01*
X42220232Y-76570461D01*
X42220284Y-76511205D01*
X41971894Y-75910057D01*
X41744703Y-75682468D01*
X44112073Y-75682468D01*
X45085000Y-76655395D01*
X46057927Y-75682468D01*
X45959264Y-75415613D01*
X45349539Y-75189092D01*
X44699540Y-75213144D01*
X44210736Y-75415613D01*
X44112073Y-75682468D01*
X41744703Y-75682468D01*
X41512363Y-75449722D01*
X40911648Y-75200284D01*
X40261205Y-75199716D01*
X39660057Y-75448106D01*
X39199722Y-75907637D01*
X38950284Y-76508352D01*
X38949716Y-77158795D01*
X38453893Y-77158795D01*
X38475908Y-77099539D01*
X38451856Y-76449540D01*
X38249387Y-75960736D01*
X37982532Y-75862073D01*
X37009605Y-76835000D01*
X36650395Y-76835000D01*
X35677468Y-75862073D01*
X35410613Y-75960736D01*
X35184092Y-76570461D01*
X33965232Y-76570461D01*
X33965284Y-76511205D01*
X33716894Y-75910057D01*
X33489703Y-75682468D01*
X35857073Y-75682468D01*
X36830000Y-76655395D01*
X37802927Y-75682468D01*
X37704264Y-75415613D01*
X37094539Y-75189092D01*
X36444540Y-75213144D01*
X35955736Y-75415613D01*
X35857073Y-75682468D01*
X33489703Y-75682468D01*
X33257363Y-75449722D01*
X32656648Y-75200284D01*
X32006205Y-75199716D01*
X31405057Y-75448106D01*
X30944722Y-75907637D01*
X30695284Y-76508352D01*
X30694716Y-77158795D01*
X24257000Y-77158795D01*
X24257000Y-72945000D01*
X72032968Y-72945000D01*
X72139308Y-73479609D01*
X72442140Y-73932828D01*
X72895359Y-74235660D01*
X73429968Y-74342000D01*
X73970032Y-74342000D01*
X74504641Y-74235660D01*
X74957860Y-73932828D01*
X75260692Y-73479609D01*
X75297871Y-73292692D01*
X84797870Y-73292692D01*
X84946578Y-73820914D01*
X85286108Y-74252020D01*
X85764770Y-74520377D01*
X85856930Y-74537220D01*
X86073000Y-74414720D01*
X86073000Y-73072000D01*
X86327000Y-73072000D01*
X86327000Y-74414720D01*
X86543070Y-74537220D01*
X86635230Y-74520377D01*
X87113892Y-74252020D01*
X87453422Y-73820914D01*
X87602130Y-73292692D01*
X87443277Y-73072000D01*
X86327000Y-73072000D01*
X86073000Y-73072000D01*
X84956723Y-73072000D01*
X84797870Y-73292692D01*
X75297871Y-73292692D01*
X75367032Y-72945000D01*
X75297872Y-72597308D01*
X84797870Y-72597308D01*
X84956723Y-72818000D01*
X86073000Y-72818000D01*
X86073000Y-71475280D01*
X86327000Y-71475280D01*
X86327000Y-72818000D01*
X87443277Y-72818000D01*
X87602130Y-72597308D01*
X87453422Y-72069086D01*
X87113892Y-71637980D01*
X86635230Y-71369623D01*
X86543070Y-71352780D01*
X86327000Y-71475280D01*
X86073000Y-71475280D01*
X85856930Y-71352780D01*
X85764770Y-71369623D01*
X85286108Y-71637980D01*
X84946578Y-72069086D01*
X84797870Y-72597308D01*
X75297872Y-72597308D01*
X75260692Y-72410391D01*
X74957860Y-71957172D01*
X74504641Y-71654340D01*
X73970032Y-71548000D01*
X73429968Y-71548000D01*
X72895359Y-71654340D01*
X72442140Y-71957172D01*
X72139308Y-72410391D01*
X72032968Y-72945000D01*
X24257000Y-72945000D01*
X24257000Y-66802000D01*
X29210000Y-66802000D01*
X29259410Y-66791994D01*
X29301035Y-66763553D01*
X29328315Y-66721159D01*
X29337000Y-66675000D01*
X29337000Y-66225167D01*
X66501838Y-66225167D01*
X66643883Y-66568943D01*
X66906673Y-66832192D01*
X67250201Y-66974838D01*
X67622167Y-66975162D01*
X67965943Y-66833117D01*
X68074249Y-66725000D01*
X70186875Y-66725000D01*
X69909340Y-67140359D01*
X69803000Y-67674968D01*
X69803000Y-68215032D01*
X69909340Y-68749641D01*
X70212172Y-69202860D01*
X70665391Y-69505692D01*
X71200000Y-69612032D01*
X71734609Y-69505692D01*
X72187828Y-69202860D01*
X72490660Y-68749641D01*
X72597000Y-68215032D01*
X72597000Y-67674968D01*
X72546041Y-67418777D01*
X73556632Y-68429368D01*
X73778862Y-68577857D01*
X74041000Y-68630000D01*
X74739796Y-68630000D01*
X74942140Y-68932828D01*
X75395359Y-69235660D01*
X75929968Y-69342000D01*
X76470032Y-69342000D01*
X77004641Y-69235660D01*
X77457860Y-68932828D01*
X77760692Y-68479609D01*
X77867032Y-67945000D01*
X77760692Y-67410391D01*
X77457860Y-66957172D01*
X77004641Y-66654340D01*
X76470032Y-66548000D01*
X75929968Y-66548000D01*
X75395359Y-66654340D01*
X74942140Y-66957172D01*
X74739796Y-67260000D01*
X74324736Y-67260000D01*
X72620368Y-65555632D01*
X72398138Y-65407143D01*
X72136000Y-65355000D01*
X68074332Y-65355000D01*
X67967327Y-65247808D01*
X67623799Y-65105162D01*
X67251833Y-65104838D01*
X66908057Y-65246883D01*
X66644808Y-65509673D01*
X66502162Y-65853201D01*
X66501838Y-66225167D01*
X29337000Y-66225167D01*
X29337000Y-61245750D01*
X31623000Y-61245750D01*
X31623000Y-61848310D01*
X31719673Y-62081699D01*
X31898302Y-62260327D01*
X32131691Y-62357000D01*
X32734250Y-62357000D01*
X32893000Y-62198250D01*
X32893000Y-61087000D01*
X33147000Y-61087000D01*
X33147000Y-62198250D01*
X33305750Y-62357000D01*
X33908309Y-62357000D01*
X34141698Y-62260327D01*
X34320327Y-62081699D01*
X34417000Y-61848310D01*
X34417000Y-61245750D01*
X34407911Y-61236661D01*
X35432758Y-61236661D01*
X35644990Y-61750303D01*
X36037630Y-62143629D01*
X36245512Y-62229949D01*
X36039697Y-62314990D01*
X35646371Y-62707630D01*
X35433243Y-63220900D01*
X35432758Y-63776661D01*
X35644990Y-64290303D01*
X36037630Y-64683629D01*
X36550900Y-64896757D01*
X37106661Y-64897242D01*
X37620303Y-64685010D01*
X38013629Y-64292370D01*
X38226757Y-63779100D01*
X38227242Y-63223339D01*
X38015010Y-62709697D01*
X37622370Y-62316371D01*
X37414488Y-62230051D01*
X37620303Y-62145010D01*
X38013629Y-61752370D01*
X38226757Y-61239100D01*
X38226759Y-61236661D01*
X45592758Y-61236661D01*
X45804990Y-61750303D01*
X46197630Y-62143629D01*
X46405512Y-62229949D01*
X46199697Y-62314990D01*
X45806371Y-62707630D01*
X45593243Y-63220900D01*
X45592758Y-63776661D01*
X45804990Y-64290303D01*
X46197630Y-64683629D01*
X46710900Y-64896757D01*
X47266661Y-64897242D01*
X47780303Y-64685010D01*
X48173629Y-64292370D01*
X48386757Y-63779100D01*
X48387242Y-63223339D01*
X48175010Y-62709697D01*
X47782370Y-62316371D01*
X47574488Y-62230051D01*
X47780303Y-62145010D01*
X48173629Y-61752370D01*
X48386757Y-61239100D01*
X48387242Y-60683339D01*
X48175010Y-60169697D01*
X47782370Y-59776371D01*
X47590273Y-59696605D01*
X47721143Y-59642397D01*
X47790608Y-59400213D01*
X46990000Y-58599605D01*
X46189392Y-59400213D01*
X46258857Y-59642397D01*
X46399318Y-59692509D01*
X46199697Y-59774990D01*
X45806371Y-60167630D01*
X45593243Y-60680900D01*
X45592758Y-61236661D01*
X38226759Y-61236661D01*
X38227242Y-60683339D01*
X38015010Y-60169697D01*
X37622370Y-59776371D01*
X37430273Y-59696605D01*
X37561143Y-59642397D01*
X37630608Y-59400213D01*
X36830000Y-58599605D01*
X36029392Y-59400213D01*
X36098857Y-59642397D01*
X36239318Y-59692509D01*
X36039697Y-59774990D01*
X35646371Y-60167630D01*
X35433243Y-60680900D01*
X35432758Y-61236661D01*
X34407911Y-61236661D01*
X34258250Y-61087000D01*
X33147000Y-61087000D01*
X32893000Y-61087000D01*
X31781750Y-61087000D01*
X31623000Y-61245750D01*
X29337000Y-61245750D01*
X29337000Y-53616661D01*
X31622758Y-53616661D01*
X31834990Y-54130303D01*
X32227630Y-54523629D01*
X32435512Y-54609949D01*
X32229697Y-54694990D01*
X31836371Y-55087630D01*
X31623243Y-55600900D01*
X31622758Y-56156661D01*
X31834990Y-56670303D01*
X32227630Y-57063629D01*
X32435512Y-57149949D01*
X32229697Y-57234990D01*
X31836371Y-57627630D01*
X31623243Y-58140900D01*
X31622758Y-58696661D01*
X31834990Y-59210303D01*
X32187072Y-59563000D01*
X32131691Y-59563000D01*
X31898302Y-59659673D01*
X31719673Y-59838301D01*
X31623000Y-60071690D01*
X31623000Y-60674250D01*
X31781750Y-60833000D01*
X32893000Y-60833000D01*
X32893000Y-60813000D01*
X33147000Y-60813000D01*
X33147000Y-60833000D01*
X34258250Y-60833000D01*
X34417000Y-60674250D01*
X34417000Y-60071690D01*
X34320327Y-59838301D01*
X34141698Y-59659673D01*
X33908309Y-59563000D01*
X33852386Y-59563000D01*
X34203629Y-59212370D01*
X34416757Y-58699100D01*
X34417181Y-58212302D01*
X35420856Y-58212302D01*
X35448638Y-58767368D01*
X35607603Y-59151143D01*
X35849787Y-59220608D01*
X36650395Y-58420000D01*
X37009605Y-58420000D01*
X37810213Y-59220608D01*
X38052397Y-59151143D01*
X38239144Y-58627698D01*
X38218353Y-58212302D01*
X45580856Y-58212302D01*
X45608638Y-58767368D01*
X45767603Y-59151143D01*
X46009787Y-59220608D01*
X46810395Y-58420000D01*
X47169605Y-58420000D01*
X47970213Y-59220608D01*
X48212397Y-59151143D01*
X48399144Y-58627698D01*
X48371362Y-58072632D01*
X48212397Y-57688857D01*
X47970213Y-57619392D01*
X47169605Y-58420000D01*
X46810395Y-58420000D01*
X46009787Y-57619392D01*
X45767603Y-57688857D01*
X45580856Y-58212302D01*
X38218353Y-58212302D01*
X38211362Y-58072632D01*
X38052397Y-57688857D01*
X37810213Y-57619392D01*
X37009605Y-58420000D01*
X36650395Y-58420000D01*
X35849787Y-57619392D01*
X35607603Y-57688857D01*
X35420856Y-58212302D01*
X34417181Y-58212302D01*
X34417242Y-58143339D01*
X34205010Y-57629697D01*
X33812370Y-57236371D01*
X33604488Y-57150051D01*
X33810303Y-57065010D01*
X34203629Y-56672370D01*
X34416757Y-56159100D01*
X34417242Y-55603339D01*
X34205010Y-55089697D01*
X33812370Y-54696371D01*
X33604488Y-54610051D01*
X33810303Y-54525010D01*
X34203629Y-54132370D01*
X34416757Y-53619100D01*
X34417242Y-53063339D01*
X34205010Y-52549697D01*
X33812370Y-52156371D01*
X33299100Y-51943243D01*
X32743339Y-51942758D01*
X32229697Y-52154990D01*
X31836371Y-52547630D01*
X31623243Y-53060900D01*
X31622758Y-53616661D01*
X29337000Y-53616661D01*
X29337000Y-50038000D01*
X35420560Y-50038000D01*
X35420560Y-51562000D01*
X35464838Y-51797317D01*
X35603910Y-52013441D01*
X35816110Y-52158431D01*
X35999124Y-52195492D01*
X35646371Y-52547630D01*
X35433243Y-53060900D01*
X35432758Y-53616661D01*
X35644990Y-54130303D01*
X36037630Y-54523629D01*
X36245512Y-54609949D01*
X36039697Y-54694990D01*
X35646371Y-55087630D01*
X35433243Y-55600900D01*
X35432758Y-56156661D01*
X35644990Y-56670303D01*
X36037630Y-57063629D01*
X36229727Y-57143395D01*
X36098857Y-57197603D01*
X36029392Y-57439787D01*
X36830000Y-58240395D01*
X37630608Y-57439787D01*
X37561143Y-57197603D01*
X37420682Y-57147491D01*
X37620303Y-57065010D01*
X38013629Y-56672370D01*
X38226757Y-56159100D01*
X38227242Y-55603339D01*
X38015010Y-55089697D01*
X37622370Y-54696371D01*
X37414488Y-54610051D01*
X37620303Y-54525010D01*
X38013629Y-54132370D01*
X38226757Y-53619100D01*
X38227242Y-53063339D01*
X38015010Y-52549697D01*
X37662167Y-52196237D01*
X37827317Y-52165162D01*
X38043441Y-52026090D01*
X38188431Y-51813890D01*
X38239440Y-51562000D01*
X38239440Y-51076661D01*
X45592758Y-51076661D01*
X45804990Y-51590303D01*
X46197630Y-51983629D01*
X46405512Y-52069949D01*
X46199697Y-52154990D01*
X45806371Y-52547630D01*
X45593243Y-53060900D01*
X45592758Y-53616661D01*
X45804990Y-54130303D01*
X46197630Y-54523629D01*
X46405512Y-54609949D01*
X46199697Y-54694990D01*
X45806371Y-55087630D01*
X45593243Y-55600900D01*
X45592758Y-56156661D01*
X45804990Y-56670303D01*
X46197630Y-57063629D01*
X46389727Y-57143395D01*
X46258857Y-57197603D01*
X46189392Y-57439787D01*
X46990000Y-58240395D01*
X47790608Y-57439787D01*
X47721143Y-57197603D01*
X47580682Y-57147491D01*
X47780303Y-57065010D01*
X48173629Y-56672370D01*
X48386757Y-56159100D01*
X48387242Y-55603339D01*
X48175010Y-55089697D01*
X47782370Y-54696371D01*
X47574488Y-54610051D01*
X47780303Y-54525010D01*
X48145783Y-54160167D01*
X49356838Y-54160167D01*
X49498883Y-54503943D01*
X49607000Y-54612249D01*
X49607000Y-56131668D01*
X49499808Y-56238673D01*
X49357162Y-56582201D01*
X49356838Y-56954167D01*
X49498883Y-57297943D01*
X49761673Y-57561192D01*
X50105201Y-57703838D01*
X50477167Y-57704162D01*
X50496000Y-57696380D01*
X50496000Y-61084668D01*
X50388808Y-61191673D01*
X50246162Y-61535201D01*
X50245838Y-61907167D01*
X50387883Y-62250943D01*
X50592474Y-62455891D01*
X50500162Y-62678201D01*
X50499838Y-63050167D01*
X50641883Y-63393943D01*
X50904673Y-63657192D01*
X51015251Y-63703108D01*
X51149883Y-64028943D01*
X51412673Y-64292192D01*
X51756201Y-64434838D01*
X52128167Y-64435162D01*
X52471943Y-64293117D01*
X52735192Y-64030327D01*
X52877838Y-63686799D01*
X52877971Y-63533765D01*
X53897549Y-62514187D01*
X59524752Y-62514187D01*
X59742757Y-63041800D01*
X60146077Y-63445824D01*
X60673309Y-63664750D01*
X61244187Y-63665248D01*
X61771800Y-63447243D01*
X62175824Y-63043923D01*
X62394750Y-62516691D01*
X62394752Y-62514187D01*
X63334752Y-62514187D01*
X63552757Y-63041800D01*
X63956077Y-63445824D01*
X64483309Y-63664750D01*
X65054187Y-63665248D01*
X65581800Y-63447243D01*
X65985824Y-63043923D01*
X66204750Y-62516691D01*
X66205024Y-62201887D01*
X67145000Y-62201887D01*
X67145000Y-62258113D01*
X67254233Y-62807264D01*
X67565302Y-63272811D01*
X68030849Y-63583880D01*
X68580000Y-63693113D01*
X69129151Y-63583880D01*
X69571861Y-63288070D01*
X72107780Y-63288070D01*
X72124623Y-63380230D01*
X72392980Y-63858892D01*
X72824086Y-64198422D01*
X73352308Y-64347130D01*
X73573000Y-64188277D01*
X73573000Y-63072000D01*
X73827000Y-63072000D01*
X73827000Y-64188277D01*
X74047692Y-64347130D01*
X74575914Y-64198422D01*
X75007020Y-63858892D01*
X75275377Y-63380230D01*
X75291375Y-63292692D01*
X84797870Y-63292692D01*
X84946578Y-63820914D01*
X85286108Y-64252020D01*
X85764770Y-64520377D01*
X85856930Y-64537220D01*
X86073000Y-64414720D01*
X86073000Y-63072000D01*
X86327000Y-63072000D01*
X86327000Y-64414720D01*
X86543070Y-64537220D01*
X86635230Y-64520377D01*
X87113892Y-64252020D01*
X87453422Y-63820914D01*
X87602130Y-63292692D01*
X87443277Y-63072000D01*
X86327000Y-63072000D01*
X86073000Y-63072000D01*
X84956723Y-63072000D01*
X84797870Y-63292692D01*
X75291375Y-63292692D01*
X75292220Y-63288070D01*
X75169720Y-63072000D01*
X73827000Y-63072000D01*
X73573000Y-63072000D01*
X72230280Y-63072000D01*
X72107780Y-63288070D01*
X69571861Y-63288070D01*
X69594698Y-63272811D01*
X69905767Y-62807264D01*
X69946610Y-62601930D01*
X72107780Y-62601930D01*
X72230280Y-62818000D01*
X73573000Y-62818000D01*
X73573000Y-61701723D01*
X73827000Y-61701723D01*
X73827000Y-62818000D01*
X75169720Y-62818000D01*
X75292220Y-62601930D01*
X75291376Y-62597308D01*
X84797870Y-62597308D01*
X84956723Y-62818000D01*
X86073000Y-62818000D01*
X86073000Y-61475280D01*
X86327000Y-61475280D01*
X86327000Y-62818000D01*
X87443277Y-62818000D01*
X87602130Y-62597308D01*
X87453422Y-62069086D01*
X87113892Y-61637980D01*
X86635230Y-61369623D01*
X86543070Y-61352780D01*
X86327000Y-61475280D01*
X86073000Y-61475280D01*
X85856930Y-61352780D01*
X85764770Y-61369623D01*
X85286108Y-61637980D01*
X84946578Y-62069086D01*
X84797870Y-62597308D01*
X75291376Y-62597308D01*
X75275377Y-62509770D01*
X75007020Y-62031108D01*
X74575914Y-61691578D01*
X74047692Y-61542870D01*
X73827000Y-61701723D01*
X73573000Y-61701723D01*
X73352308Y-61542870D01*
X72824086Y-61691578D01*
X72392980Y-62031108D01*
X72124623Y-62509770D01*
X72107780Y-62601930D01*
X69946610Y-62601930D01*
X70015000Y-62258113D01*
X70015000Y-62201887D01*
X69905767Y-61652736D01*
X69594698Y-61187189D01*
X69129151Y-60876120D01*
X68580000Y-60766887D01*
X68030849Y-60876120D01*
X67565302Y-61187189D01*
X67254233Y-61652736D01*
X67145000Y-62201887D01*
X66205024Y-62201887D01*
X66205248Y-61945813D01*
X65987243Y-61418200D01*
X65583923Y-61014176D01*
X65056691Y-60795250D01*
X64485813Y-60794752D01*
X63958200Y-61012757D01*
X63554176Y-61416077D01*
X63335250Y-61943309D01*
X63334752Y-62514187D01*
X62394752Y-62514187D01*
X62395248Y-61945813D01*
X62177243Y-61418200D01*
X61773923Y-61014176D01*
X61246691Y-60795250D01*
X60675813Y-60794752D01*
X60148200Y-61012757D01*
X59744176Y-61416077D01*
X59525250Y-61943309D01*
X59524752Y-62514187D01*
X53897549Y-62514187D01*
X55475368Y-60936368D01*
X55623857Y-60714138D01*
X55676000Y-60452000D01*
X55676000Y-60445000D01*
X74532968Y-60445000D01*
X74639308Y-60979609D01*
X74942140Y-61432828D01*
X75395359Y-61735660D01*
X75929968Y-61842000D01*
X76470032Y-61842000D01*
X77004641Y-61735660D01*
X77457860Y-61432828D01*
X77760692Y-60979609D01*
X77867032Y-60445000D01*
X77760692Y-59910391D01*
X77457860Y-59457172D01*
X77004641Y-59154340D01*
X76470032Y-59048000D01*
X75929968Y-59048000D01*
X75395359Y-59154340D01*
X74942140Y-59457172D01*
X74639308Y-59910391D01*
X74532968Y-60445000D01*
X55676000Y-60445000D01*
X55676000Y-55049167D01*
X67644838Y-55049167D01*
X67786883Y-55392943D01*
X68049673Y-55656192D01*
X68393201Y-55798838D01*
X68765167Y-55799162D01*
X69108943Y-55657117D01*
X69217249Y-55549000D01*
X69723000Y-55549000D01*
X69985138Y-55496857D01*
X70207368Y-55348368D01*
X71015736Y-54540000D01*
X74739796Y-54540000D01*
X74942140Y-54842828D01*
X75395359Y-55145660D01*
X75929968Y-55252000D01*
X76470032Y-55252000D01*
X77004641Y-55145660D01*
X77457860Y-54842828D01*
X77760692Y-54389609D01*
X77867032Y-53855000D01*
X77760692Y-53320391D01*
X77457860Y-52867172D01*
X77004641Y-52564340D01*
X76470032Y-52458000D01*
X75929968Y-52458000D01*
X75395359Y-52564340D01*
X74942140Y-52867172D01*
X74739796Y-53170000D01*
X70732000Y-53170000D01*
X70469862Y-53222143D01*
X70247632Y-53370632D01*
X69439264Y-54179000D01*
X69217332Y-54179000D01*
X69110327Y-54071808D01*
X68766799Y-53929162D01*
X68394833Y-53928838D01*
X68051057Y-54070883D01*
X67787808Y-54333673D01*
X67645162Y-54677201D01*
X67644838Y-55049167D01*
X55676000Y-55049167D01*
X55676000Y-53088332D01*
X55783192Y-52981327D01*
X55925838Y-52637799D01*
X55926162Y-52265833D01*
X55833630Y-52041887D01*
X59525000Y-52041887D01*
X59525000Y-52098113D01*
X59634233Y-52647264D01*
X59945302Y-53112811D01*
X60410849Y-53423880D01*
X60960000Y-53533113D01*
X61509151Y-53423880D01*
X61974698Y-53112811D01*
X62285767Y-52647264D01*
X62395000Y-52098113D01*
X62395000Y-52041887D01*
X63335000Y-52041887D01*
X63335000Y-52098113D01*
X63444233Y-52647264D01*
X63755302Y-53112811D01*
X64220849Y-53423880D01*
X64770000Y-53533113D01*
X65319151Y-53423880D01*
X65784698Y-53112811D01*
X65808128Y-53077745D01*
X67751861Y-53077745D01*
X67825995Y-53323864D01*
X68363223Y-53516965D01*
X68933454Y-53489778D01*
X69334005Y-53323864D01*
X69408139Y-53077745D01*
X68580000Y-52249605D01*
X67751861Y-53077745D01*
X65808128Y-53077745D01*
X66095767Y-52647264D01*
X66205000Y-52098113D01*
X66205000Y-52041887D01*
X66167473Y-51853223D01*
X67133035Y-51853223D01*
X67160222Y-52423454D01*
X67326136Y-52824005D01*
X67572255Y-52898139D01*
X68400395Y-52070000D01*
X68759605Y-52070000D01*
X69587745Y-52898139D01*
X69833864Y-52824005D01*
X70026965Y-52286777D01*
X69999778Y-51716546D01*
X69833864Y-51315995D01*
X69587745Y-51241861D01*
X68759605Y-52070000D01*
X68400395Y-52070000D01*
X67572255Y-51241861D01*
X67326136Y-51315995D01*
X67133035Y-51853223D01*
X66167473Y-51853223D01*
X66095767Y-51492736D01*
X65808129Y-51062255D01*
X67751861Y-51062255D01*
X68580000Y-51890395D01*
X69408139Y-51062255D01*
X69334005Y-50816136D01*
X68796777Y-50623035D01*
X68226546Y-50650222D01*
X67825995Y-50816136D01*
X67751861Y-51062255D01*
X65808129Y-51062255D01*
X65784698Y-51027189D01*
X65319151Y-50716120D01*
X64770000Y-50606887D01*
X64220849Y-50716120D01*
X63755302Y-51027189D01*
X63444233Y-51492736D01*
X63335000Y-52041887D01*
X62395000Y-52041887D01*
X62285767Y-51492736D01*
X61974698Y-51027189D01*
X61509151Y-50716120D01*
X60960000Y-50606887D01*
X60410849Y-50716120D01*
X59945302Y-51027189D01*
X59634233Y-51492736D01*
X59525000Y-52041887D01*
X55833630Y-52041887D01*
X55784117Y-51922057D01*
X55521327Y-51658808D01*
X55291110Y-51563213D01*
X55291162Y-51503833D01*
X55149117Y-51160057D01*
X54886327Y-50896808D01*
X54542799Y-50754162D01*
X54406000Y-50754043D01*
X54406000Y-50350167D01*
X69549838Y-50350167D01*
X69691883Y-50693943D01*
X69954673Y-50957192D01*
X70298201Y-51099838D01*
X70451235Y-51099971D01*
X71190632Y-51839368D01*
X71412862Y-51987857D01*
X71675000Y-52040000D01*
X72239796Y-52040000D01*
X72442140Y-52342828D01*
X72895359Y-52645660D01*
X73429968Y-52752000D01*
X73970032Y-52752000D01*
X74504641Y-52645660D01*
X74957860Y-52342828D01*
X75260692Y-51889609D01*
X75297871Y-51702692D01*
X84797870Y-51702692D01*
X84946578Y-52230914D01*
X85286108Y-52662020D01*
X85764770Y-52930377D01*
X85856930Y-52947220D01*
X86073000Y-52824720D01*
X86073000Y-51482000D01*
X86327000Y-51482000D01*
X86327000Y-52824720D01*
X86543070Y-52947220D01*
X86635230Y-52930377D01*
X87113892Y-52662020D01*
X87453422Y-52230914D01*
X87602130Y-51702692D01*
X87443277Y-51482000D01*
X86327000Y-51482000D01*
X86073000Y-51482000D01*
X84956723Y-51482000D01*
X84797870Y-51702692D01*
X75297871Y-51702692D01*
X75367032Y-51355000D01*
X75297872Y-51007308D01*
X84797870Y-51007308D01*
X84956723Y-51228000D01*
X86073000Y-51228000D01*
X86073000Y-49885280D01*
X86327000Y-49885280D01*
X86327000Y-51228000D01*
X87443277Y-51228000D01*
X87602130Y-51007308D01*
X87453422Y-50479086D01*
X87113892Y-50047980D01*
X86635230Y-49779623D01*
X86543070Y-49762780D01*
X86327000Y-49885280D01*
X86073000Y-49885280D01*
X85856930Y-49762780D01*
X85764770Y-49779623D01*
X85286108Y-50047980D01*
X84946578Y-50479086D01*
X84797870Y-51007308D01*
X75297872Y-51007308D01*
X75260692Y-50820391D01*
X74957860Y-50367172D01*
X74504641Y-50064340D01*
X73970032Y-49958000D01*
X73429968Y-49958000D01*
X72895359Y-50064340D01*
X72442140Y-50367172D01*
X72239796Y-50670000D01*
X71958736Y-50670000D01*
X71420030Y-50131294D01*
X71420162Y-49979833D01*
X71278117Y-49636057D01*
X71015327Y-49372808D01*
X70671799Y-49230162D01*
X70299833Y-49229838D01*
X69956057Y-49371883D01*
X69692808Y-49634673D01*
X69550162Y-49978201D01*
X69549838Y-50350167D01*
X54406000Y-50350167D01*
X54406000Y-50167332D01*
X54513192Y-50060327D01*
X54655838Y-49716799D01*
X54656162Y-49344833D01*
X54514117Y-49001057D01*
X54251327Y-48737808D01*
X53907799Y-48595162D01*
X53535833Y-48594838D01*
X53192057Y-48736883D01*
X52928808Y-48999673D01*
X52786162Y-49343201D01*
X52785838Y-49715167D01*
X52835081Y-49834345D01*
X51481030Y-48480294D01*
X51481162Y-48328833D01*
X51339117Y-47985057D01*
X51096017Y-47741532D01*
X60114073Y-47741532D01*
X60212736Y-48008387D01*
X60822461Y-48234908D01*
X61472460Y-48210856D01*
X61961264Y-48008387D01*
X62059927Y-47741532D01*
X61087000Y-46768605D01*
X60114073Y-47741532D01*
X51096017Y-47741532D01*
X51076327Y-47721808D01*
X50732799Y-47579162D01*
X50360833Y-47578838D01*
X50017057Y-47720883D01*
X49753808Y-47983673D01*
X49611162Y-48327201D01*
X49610838Y-48699167D01*
X49752883Y-49042943D01*
X50015673Y-49306192D01*
X50359201Y-49448838D01*
X50512235Y-49448971D01*
X51817264Y-50754000D01*
X51630833Y-50753838D01*
X51287057Y-50895883D01*
X51023808Y-51158673D01*
X50881162Y-51502201D01*
X50881109Y-51563241D01*
X50652057Y-51657883D01*
X50388808Y-51920673D01*
X50246162Y-52264201D01*
X50245838Y-52636167D01*
X50387883Y-52979943D01*
X50447970Y-53040135D01*
X50106833Y-53039838D01*
X49763057Y-53181883D01*
X49499808Y-53444673D01*
X49357162Y-53788201D01*
X49356838Y-54160167D01*
X48145783Y-54160167D01*
X48173629Y-54132370D01*
X48386757Y-53619100D01*
X48387242Y-53063339D01*
X48175010Y-52549697D01*
X47782370Y-52156371D01*
X47574488Y-52070051D01*
X47780303Y-51985010D01*
X48173629Y-51592370D01*
X48386757Y-51079100D01*
X48387242Y-50523339D01*
X48175010Y-50009697D01*
X47782370Y-49616371D01*
X47269100Y-49403243D01*
X46713339Y-49402758D01*
X46199697Y-49614990D01*
X45806371Y-50007630D01*
X45593243Y-50520900D01*
X45592758Y-51076661D01*
X38239440Y-51076661D01*
X38239440Y-50038000D01*
X38195162Y-49802683D01*
X38056090Y-49586559D01*
X37843890Y-49441569D01*
X37592000Y-49390560D01*
X36068000Y-49390560D01*
X35832683Y-49434838D01*
X35616559Y-49573910D01*
X35471569Y-49786110D01*
X35420560Y-50038000D01*
X29337000Y-50038000D01*
X29337000Y-47625000D01*
X29326994Y-47575590D01*
X29298553Y-47533965D01*
X29256159Y-47506685D01*
X29210000Y-47498000D01*
X24257000Y-47498000D01*
X24257000Y-46647745D01*
X27111861Y-46647745D01*
X27185995Y-46893864D01*
X27723223Y-47086965D01*
X28293454Y-47059778D01*
X28694005Y-46893864D01*
X28768139Y-46647745D01*
X27940000Y-45819605D01*
X27111861Y-46647745D01*
X24257000Y-46647745D01*
X24257000Y-45423223D01*
X26493035Y-45423223D01*
X26520222Y-45993454D01*
X26686136Y-46394005D01*
X26932255Y-46468139D01*
X27760395Y-45640000D01*
X28119605Y-45640000D01*
X28947745Y-46468139D01*
X29193864Y-46394005D01*
X29267191Y-46190000D01*
X30302560Y-46190000D01*
X30302560Y-47790000D01*
X30346838Y-48025317D01*
X30485910Y-48241441D01*
X30698110Y-48386431D01*
X30950000Y-48437440D01*
X32550000Y-48437440D01*
X32785317Y-48393162D01*
X33001441Y-48254090D01*
X33146431Y-48041890D01*
X33177815Y-47886911D01*
X33275302Y-48032811D01*
X33740849Y-48343880D01*
X34290000Y-48453113D01*
X34839151Y-48343880D01*
X35304698Y-48032811D01*
X35560000Y-47650725D01*
X35815302Y-48032811D01*
X36280849Y-48343880D01*
X36830000Y-48453113D01*
X37379151Y-48343880D01*
X37844698Y-48032811D01*
X38100000Y-47650725D01*
X38355302Y-48032811D01*
X38820849Y-48343880D01*
X39370000Y-48453113D01*
X39919151Y-48343880D01*
X40384698Y-48032811D01*
X40640000Y-47650725D01*
X40895302Y-48032811D01*
X41360849Y-48343880D01*
X41910000Y-48453113D01*
X42459151Y-48343880D01*
X42924698Y-48032811D01*
X43180000Y-47650725D01*
X43435302Y-48032811D01*
X43900849Y-48343880D01*
X44450000Y-48453113D01*
X44999151Y-48343880D01*
X45464698Y-48032811D01*
X45734986Y-47628297D01*
X45837611Y-47845134D01*
X46252577Y-48221041D01*
X46640961Y-48381904D01*
X46863000Y-48259915D01*
X46863000Y-47117000D01*
X47117000Y-47117000D01*
X47117000Y-48259915D01*
X47339039Y-48381904D01*
X47727423Y-48221041D01*
X48142389Y-47845134D01*
X48381914Y-47339041D01*
X48260629Y-47117000D01*
X47117000Y-47117000D01*
X46863000Y-47117000D01*
X46843000Y-47117000D01*
X46843000Y-46863000D01*
X46863000Y-46863000D01*
X46863000Y-45720085D01*
X47117000Y-45720085D01*
X47117000Y-46863000D01*
X48260629Y-46863000D01*
X48381914Y-46640959D01*
X48232122Y-46324461D01*
X59441092Y-46324461D01*
X59465144Y-46974460D01*
X59667613Y-47463264D01*
X59934468Y-47561927D01*
X60907395Y-46589000D01*
X61266605Y-46589000D01*
X62239532Y-47561927D01*
X62506387Y-47463264D01*
X62732908Y-46853539D01*
X62708856Y-46203540D01*
X62659742Y-46084968D01*
X69803000Y-46084968D01*
X69803000Y-46625032D01*
X69909340Y-47159641D01*
X70212172Y-47612860D01*
X70665391Y-47915692D01*
X71200000Y-48022032D01*
X71734609Y-47915692D01*
X72187828Y-47612860D01*
X72490660Y-47159641D01*
X72597000Y-46625032D01*
X72597000Y-46355000D01*
X74532968Y-46355000D01*
X74639308Y-46889609D01*
X74942140Y-47342828D01*
X75395359Y-47645660D01*
X75929968Y-47752000D01*
X76470032Y-47752000D01*
X77004641Y-47645660D01*
X77457860Y-47342828D01*
X77760692Y-46889609D01*
X77867032Y-46355000D01*
X77760692Y-45820391D01*
X77457860Y-45367172D01*
X77004641Y-45064340D01*
X76470032Y-44958000D01*
X75929968Y-44958000D01*
X75395359Y-45064340D01*
X74942140Y-45367172D01*
X74639308Y-45820391D01*
X74532968Y-46355000D01*
X72597000Y-46355000D01*
X72597000Y-46084968D01*
X72490660Y-45550359D01*
X72187828Y-45097140D01*
X71734609Y-44794308D01*
X71200000Y-44687968D01*
X70665391Y-44794308D01*
X70212172Y-45097140D01*
X69909340Y-45550359D01*
X69803000Y-46084968D01*
X62659742Y-46084968D01*
X62506387Y-45714736D01*
X62239532Y-45616073D01*
X61266605Y-46589000D01*
X60907395Y-46589000D01*
X59934468Y-45616073D01*
X59667613Y-45714736D01*
X59441092Y-46324461D01*
X48232122Y-46324461D01*
X48142389Y-46134866D01*
X47727423Y-45758959D01*
X47339039Y-45598096D01*
X47117000Y-45720085D01*
X46863000Y-45720085D01*
X46640961Y-45598096D01*
X46252577Y-45758959D01*
X45837611Y-46134866D01*
X45734986Y-46351703D01*
X45464698Y-45947189D01*
X44999151Y-45636120D01*
X44450000Y-45526887D01*
X43900849Y-45636120D01*
X43435302Y-45947189D01*
X43180000Y-46329275D01*
X42924698Y-45947189D01*
X42459151Y-45636120D01*
X41910000Y-45526887D01*
X41360849Y-45636120D01*
X40895302Y-45947189D01*
X40640000Y-46329275D01*
X40384698Y-45947189D01*
X39919151Y-45636120D01*
X39370000Y-45526887D01*
X38820849Y-45636120D01*
X38355302Y-45947189D01*
X38100000Y-46329275D01*
X37844698Y-45947189D01*
X37515000Y-45726892D01*
X37515000Y-45512155D01*
X37523167Y-45512162D01*
X37706360Y-45436468D01*
X60114073Y-45436468D01*
X61087000Y-46409395D01*
X62059927Y-45436468D01*
X61961264Y-45169613D01*
X61351539Y-44943092D01*
X60701540Y-44967144D01*
X60212736Y-45169613D01*
X60114073Y-45436468D01*
X37706360Y-45436468D01*
X37866943Y-45370117D01*
X38130192Y-45107327D01*
X38272838Y-44763799D01*
X38273162Y-44391833D01*
X38131117Y-44048057D01*
X37868327Y-43784808D01*
X37524799Y-43642162D01*
X37152833Y-43641838D01*
X36809057Y-43783883D01*
X36545808Y-44046673D01*
X36403162Y-44390201D01*
X36403029Y-44543235D01*
X36345632Y-44600632D01*
X36197143Y-44822862D01*
X36145000Y-45085000D01*
X36145000Y-45726892D01*
X35815302Y-45947189D01*
X35560000Y-46329275D01*
X35304698Y-45947189D01*
X34839151Y-45636120D01*
X34290000Y-45526887D01*
X33740849Y-45636120D01*
X33275302Y-45947189D01*
X33178899Y-46091465D01*
X33153162Y-45954683D01*
X33014090Y-45738559D01*
X32801890Y-45593569D01*
X32550000Y-45542560D01*
X30950000Y-45542560D01*
X30714683Y-45586838D01*
X30498559Y-45725910D01*
X30353569Y-45938110D01*
X30302560Y-46190000D01*
X29267191Y-46190000D01*
X29386965Y-45856777D01*
X29359778Y-45286546D01*
X29193864Y-44885995D01*
X28947745Y-44811861D01*
X28119605Y-45640000D01*
X27760395Y-45640000D01*
X26932255Y-44811861D01*
X26686136Y-44885995D01*
X26493035Y-45423223D01*
X24257000Y-45423223D01*
X24257000Y-44632255D01*
X27111861Y-44632255D01*
X27940000Y-45460395D01*
X28768139Y-44632255D01*
X28694005Y-44386136D01*
X28156777Y-44193035D01*
X27586546Y-44220222D01*
X27185995Y-44386136D01*
X27111861Y-44632255D01*
X24257000Y-44632255D01*
X24257000Y-42730167D01*
X47959838Y-42730167D01*
X48101883Y-43073943D01*
X48364673Y-43337192D01*
X48708201Y-43479838D01*
X49080167Y-43480162D01*
X49423943Y-43338117D01*
X49532249Y-43230000D01*
X52832000Y-43230000D01*
X53094138Y-43177857D01*
X53316368Y-43029368D01*
X54647666Y-41698070D01*
X72107780Y-41698070D01*
X72124623Y-41790230D01*
X72392980Y-42268892D01*
X72824086Y-42608422D01*
X73352308Y-42757130D01*
X73573000Y-42598277D01*
X73573000Y-41482000D01*
X73827000Y-41482000D01*
X73827000Y-42598277D01*
X74047692Y-42757130D01*
X74575914Y-42608422D01*
X75007020Y-42268892D01*
X75275377Y-41790230D01*
X75291375Y-41702692D01*
X84797870Y-41702692D01*
X84946578Y-42230914D01*
X85286108Y-42662020D01*
X85764770Y-42930377D01*
X85856930Y-42947220D01*
X86073000Y-42824720D01*
X86073000Y-41482000D01*
X86327000Y-41482000D01*
X86327000Y-42824720D01*
X86543070Y-42947220D01*
X86635230Y-42930377D01*
X87113892Y-42662020D01*
X87453422Y-42230914D01*
X87602130Y-41702692D01*
X87443277Y-41482000D01*
X86327000Y-41482000D01*
X86073000Y-41482000D01*
X84956723Y-41482000D01*
X84797870Y-41702692D01*
X75291375Y-41702692D01*
X75292220Y-41698070D01*
X75169720Y-41482000D01*
X73827000Y-41482000D01*
X73573000Y-41482000D01*
X72230280Y-41482000D01*
X72107780Y-41698070D01*
X54647666Y-41698070D01*
X55151706Y-41194030D01*
X55303167Y-41194162D01*
X55646943Y-41052117D01*
X55687200Y-41011930D01*
X72107780Y-41011930D01*
X72230280Y-41228000D01*
X73573000Y-41228000D01*
X73573000Y-40111723D01*
X73827000Y-40111723D01*
X73827000Y-41228000D01*
X75169720Y-41228000D01*
X75292220Y-41011930D01*
X75291376Y-41007308D01*
X84797870Y-41007308D01*
X84956723Y-41228000D01*
X86073000Y-41228000D01*
X86073000Y-39885280D01*
X86327000Y-39885280D01*
X86327000Y-41228000D01*
X87443277Y-41228000D01*
X87602130Y-41007308D01*
X87453422Y-40479086D01*
X87113892Y-40047980D01*
X86635230Y-39779623D01*
X86543070Y-39762780D01*
X86327000Y-39885280D01*
X86073000Y-39885280D01*
X85856930Y-39762780D01*
X85764770Y-39779623D01*
X85286108Y-40047980D01*
X84946578Y-40479086D01*
X84797870Y-41007308D01*
X75291376Y-41007308D01*
X75275377Y-40919770D01*
X75007020Y-40441108D01*
X74575914Y-40101578D01*
X74047692Y-39952870D01*
X73827000Y-40111723D01*
X73573000Y-40111723D01*
X73352308Y-39952870D01*
X72824086Y-40101578D01*
X72392980Y-40441108D01*
X72124623Y-40919770D01*
X72107780Y-41011930D01*
X55687200Y-41011930D01*
X55910192Y-40789327D01*
X56052838Y-40445799D01*
X56053162Y-40073833D01*
X55911117Y-39730057D01*
X55648327Y-39466808D01*
X55304799Y-39324162D01*
X54932833Y-39323838D01*
X54589057Y-39465883D01*
X54325808Y-39728673D01*
X54183162Y-40072201D01*
X54183029Y-40225235D01*
X52548264Y-41860000D01*
X50845934Y-41860000D01*
X50845971Y-41816765D01*
X53881706Y-38781030D01*
X54033167Y-38781162D01*
X54376943Y-38639117D01*
X54640192Y-38376327D01*
X54782838Y-38032799D01*
X54782876Y-37989000D01*
X59439560Y-37989000D01*
X59439560Y-39989000D01*
X59483838Y-40224317D01*
X59622910Y-40440441D01*
X59835110Y-40585431D01*
X60087000Y-40636440D01*
X62087000Y-40636440D01*
X62322317Y-40592162D01*
X62538441Y-40453090D01*
X62683431Y-40240890D01*
X62734440Y-39989000D01*
X62734440Y-38855000D01*
X74532968Y-38855000D01*
X74639308Y-39389609D01*
X74942140Y-39842828D01*
X75395359Y-40145660D01*
X75929968Y-40252000D01*
X76470032Y-40252000D01*
X77004641Y-40145660D01*
X77457860Y-39842828D01*
X77760692Y-39389609D01*
X77867032Y-38855000D01*
X77760692Y-38320391D01*
X77457860Y-37867172D01*
X77004641Y-37564340D01*
X76470032Y-37458000D01*
X75929968Y-37458000D01*
X75395359Y-37564340D01*
X74942140Y-37867172D01*
X74639308Y-38320391D01*
X74532968Y-38855000D01*
X62734440Y-38855000D01*
X62734440Y-37989000D01*
X62690162Y-37753683D01*
X62551090Y-37537559D01*
X62338890Y-37392569D01*
X62087000Y-37341560D01*
X60087000Y-37341560D01*
X59851683Y-37385838D01*
X59635559Y-37524910D01*
X59490569Y-37737110D01*
X59439560Y-37989000D01*
X54782876Y-37989000D01*
X54783162Y-37660833D01*
X54641117Y-37317057D01*
X54378327Y-37053808D01*
X54034799Y-36911162D01*
X53662833Y-36910838D01*
X53319057Y-37052883D01*
X53055808Y-37315673D01*
X52913162Y-37659201D01*
X52913029Y-37812235D01*
X49877294Y-40847970D01*
X49725833Y-40847838D01*
X49382057Y-40989883D01*
X49118808Y-41252673D01*
X48976162Y-41596201D01*
X48976150Y-41610070D01*
X48709833Y-41609838D01*
X48366057Y-41751883D01*
X48102808Y-42014673D01*
X47960162Y-42358201D01*
X47959838Y-42730167D01*
X24257000Y-42730167D01*
X24257000Y-40924187D01*
X26504752Y-40924187D01*
X26722757Y-41451800D01*
X27126077Y-41855824D01*
X27653309Y-42074750D01*
X28224187Y-42075248D01*
X28751800Y-41857243D01*
X29155824Y-41453923D01*
X29374750Y-40926691D01*
X29375248Y-40355813D01*
X29157243Y-39828200D01*
X28753923Y-39424176D01*
X28555750Y-39341887D01*
X30315000Y-39341887D01*
X30315000Y-39398113D01*
X30424233Y-39947264D01*
X30735302Y-40412811D01*
X31200849Y-40723880D01*
X31750000Y-40833113D01*
X32299151Y-40723880D01*
X32764698Y-40412811D01*
X33020000Y-40030725D01*
X33275302Y-40412811D01*
X33740849Y-40723880D01*
X34290000Y-40833113D01*
X34839151Y-40723880D01*
X35002000Y-40615068D01*
X35002000Y-40764889D01*
X34767808Y-40998673D01*
X34625162Y-41342201D01*
X34624838Y-41714167D01*
X34766883Y-42057943D01*
X35029673Y-42321192D01*
X35373201Y-42463838D01*
X35745167Y-42464162D01*
X36088943Y-42322117D01*
X36352192Y-42059327D01*
X36494838Y-41715799D01*
X36495162Y-41343833D01*
X36372000Y-41045757D01*
X36372000Y-40742011D01*
X36830000Y-40833113D01*
X37379151Y-40723880D01*
X37844698Y-40412811D01*
X38100000Y-40030725D01*
X38355302Y-40412811D01*
X38820849Y-40723880D01*
X39370000Y-40833113D01*
X39919151Y-40723880D01*
X40384698Y-40412811D01*
X40640000Y-40030725D01*
X40895302Y-40412811D01*
X41360849Y-40723880D01*
X41910000Y-40833113D01*
X42459151Y-40723880D01*
X42924698Y-40412811D01*
X43180000Y-40030725D01*
X43435302Y-40412811D01*
X43900849Y-40723880D01*
X44450000Y-40833113D01*
X44999151Y-40723880D01*
X45464698Y-40412811D01*
X45720000Y-40030725D01*
X45975302Y-40412811D01*
X46440849Y-40723880D01*
X46990000Y-40833113D01*
X47539151Y-40723880D01*
X48004698Y-40412811D01*
X48315767Y-39947264D01*
X48425000Y-39398113D01*
X48425000Y-39341887D01*
X48315767Y-38792736D01*
X48004698Y-38327189D01*
X47539151Y-38016120D01*
X46990000Y-37906887D01*
X46440849Y-38016120D01*
X45975302Y-38327189D01*
X45720000Y-38709275D01*
X45464698Y-38327189D01*
X44999151Y-38016120D01*
X44450000Y-37906887D01*
X43900849Y-38016120D01*
X43435302Y-38327189D01*
X43180000Y-38709275D01*
X42924698Y-38327189D01*
X42459151Y-38016120D01*
X41910000Y-37906887D01*
X41360849Y-38016120D01*
X40895302Y-38327189D01*
X40640000Y-38709275D01*
X40384698Y-38327189D01*
X39919151Y-38016120D01*
X39370000Y-37906887D01*
X38820849Y-38016120D01*
X38355302Y-38327189D01*
X38100000Y-38709275D01*
X37844698Y-38327189D01*
X37379151Y-38016120D01*
X36830000Y-37906887D01*
X36372000Y-37997989D01*
X36372000Y-36451332D01*
X36479192Y-36344327D01*
X36621838Y-36000799D01*
X36622162Y-35628833D01*
X36480117Y-35285057D01*
X36474426Y-35279356D01*
X36945000Y-35372959D01*
X37518489Y-35258885D01*
X38004670Y-34934029D01*
X38215000Y-34619248D01*
X38425330Y-34934029D01*
X38911511Y-35258885D01*
X39485000Y-35372959D01*
X40058489Y-35258885D01*
X40544670Y-34934029D01*
X40760664Y-34610772D01*
X40818179Y-34733490D01*
X41250053Y-35127688D01*
X41665974Y-35299958D01*
X41898000Y-35178817D01*
X41898000Y-33972000D01*
X41878000Y-33972000D01*
X41878000Y-33718000D01*
X41898000Y-33718000D01*
X41898000Y-33698000D01*
X42152000Y-33698000D01*
X42152000Y-33718000D01*
X42172000Y-33718000D01*
X42172000Y-33972000D01*
X42152000Y-33972000D01*
X42152000Y-35178817D01*
X42384026Y-35299958D01*
X42799947Y-35127688D01*
X43231821Y-34733490D01*
X43289336Y-34610772D01*
X43505330Y-34934029D01*
X43790015Y-35124249D01*
X43527294Y-35386970D01*
X43375833Y-35386838D01*
X43032057Y-35528883D01*
X42768808Y-35791673D01*
X42626162Y-36135201D01*
X42625838Y-36507167D01*
X42767883Y-36850943D01*
X43030673Y-37114192D01*
X43374201Y-37256838D01*
X43746167Y-37257162D01*
X44089943Y-37115117D01*
X44353192Y-36852327D01*
X44495838Y-36508799D01*
X44495971Y-36355765D01*
X45049368Y-35802368D01*
X45197857Y-35580138D01*
X45250000Y-35318000D01*
X45250000Y-35184376D01*
X45624670Y-34934029D01*
X45835000Y-34619248D01*
X46045330Y-34934029D01*
X46531511Y-35258885D01*
X47105000Y-35372959D01*
X47678489Y-35258885D01*
X48164670Y-34934029D01*
X48375000Y-34619248D01*
X48585330Y-34934029D01*
X49071511Y-35258885D01*
X49645000Y-35372959D01*
X50218489Y-35258885D01*
X50704670Y-34934029D01*
X50915000Y-34619248D01*
X51125330Y-34934029D01*
X51611511Y-35258885D01*
X52185000Y-35372959D01*
X52758489Y-35258885D01*
X53244670Y-34934029D01*
X53455000Y-34619248D01*
X53665330Y-34934029D01*
X54151511Y-35258885D01*
X54725000Y-35372959D01*
X55298489Y-35258885D01*
X55784670Y-34934029D01*
X55995000Y-34619248D01*
X56205330Y-34934029D01*
X56691511Y-35258885D01*
X57265000Y-35372959D01*
X57838489Y-35258885D01*
X58324670Y-34934029D01*
X58535000Y-34619248D01*
X58745330Y-34934029D01*
X59231511Y-35258885D01*
X59805000Y-35372959D01*
X60378489Y-35258885D01*
X60864670Y-34934029D01*
X61080664Y-34610772D01*
X61138179Y-34733490D01*
X61570053Y-35127688D01*
X61985974Y-35299958D01*
X62218000Y-35178817D01*
X62218000Y-33972000D01*
X62198000Y-33972000D01*
X62198000Y-33718000D01*
X62218000Y-33718000D01*
X62218000Y-33698000D01*
X62472000Y-33698000D01*
X62472000Y-33718000D01*
X62492000Y-33718000D01*
X62492000Y-33972000D01*
X62472000Y-33972000D01*
X62472000Y-35178817D01*
X62704026Y-35299958D01*
X63119947Y-35127688D01*
X63551821Y-34733490D01*
X63609336Y-34610772D01*
X63825330Y-34934029D01*
X64311511Y-35258885D01*
X64885000Y-35372959D01*
X65458489Y-35258885D01*
X65944670Y-34934029D01*
X66155000Y-34619248D01*
X66365330Y-34934029D01*
X66851511Y-35258885D01*
X67425000Y-35372959D01*
X67998489Y-35258885D01*
X68484670Y-34934029D01*
X68695000Y-34619248D01*
X68905330Y-34934029D01*
X69391511Y-35258885D01*
X69965000Y-35372959D01*
X70538489Y-35258885D01*
X71024670Y-34934029D01*
X71235000Y-34619248D01*
X71445330Y-34934029D01*
X71931511Y-35258885D01*
X72505000Y-35372959D01*
X73078489Y-35258885D01*
X73564670Y-34934029D01*
X73775000Y-34619248D01*
X73985330Y-34934029D01*
X74471511Y-35258885D01*
X75045000Y-35372959D01*
X75618489Y-35258885D01*
X76104670Y-34934029D01*
X76315000Y-34619248D01*
X76525330Y-34934029D01*
X77011511Y-35258885D01*
X77585000Y-35372959D01*
X78158489Y-35258885D01*
X78644670Y-34934029D01*
X78860664Y-34610772D01*
X78918179Y-34733490D01*
X79350053Y-35127688D01*
X79765974Y-35299958D01*
X79998000Y-35178817D01*
X79998000Y-33972000D01*
X80252000Y-33972000D01*
X80252000Y-35178817D01*
X80484026Y-35299958D01*
X80899947Y-35127688D01*
X81331821Y-34733490D01*
X81579968Y-34204027D01*
X81459469Y-33972000D01*
X80252000Y-33972000D01*
X79998000Y-33972000D01*
X79978000Y-33972000D01*
X79978000Y-33718000D01*
X79998000Y-33718000D01*
X79998000Y-33698000D01*
X80252000Y-33698000D01*
X80252000Y-33718000D01*
X81459469Y-33718000D01*
X81579968Y-33485973D01*
X81331821Y-32956510D01*
X80913839Y-32574992D01*
X81184670Y-32394029D01*
X81509526Y-31907848D01*
X81623600Y-31334359D01*
X81623600Y-31275641D01*
X81509526Y-30702152D01*
X81184670Y-30215971D01*
X80698489Y-29891115D01*
X80125000Y-29777041D01*
X79551511Y-29891115D01*
X79065330Y-30215971D01*
X78855000Y-30530752D01*
X78644670Y-30215971D01*
X78158489Y-29891115D01*
X77585000Y-29777041D01*
X77011511Y-29891115D01*
X76525330Y-30215971D01*
X76315000Y-30530752D01*
X76104670Y-30215971D01*
X75618489Y-29891115D01*
X75045000Y-29777041D01*
X74471511Y-29891115D01*
X73985330Y-30215971D01*
X73769336Y-30539228D01*
X73711821Y-30416510D01*
X73279947Y-30022312D01*
X72864026Y-29850042D01*
X72632000Y-29971183D01*
X72632000Y-31178000D01*
X72652000Y-31178000D01*
X72652000Y-31432000D01*
X72632000Y-31432000D01*
X72632000Y-31452000D01*
X72378000Y-31452000D01*
X72378000Y-31432000D01*
X72358000Y-31432000D01*
X72358000Y-31178000D01*
X72378000Y-31178000D01*
X72378000Y-29971183D01*
X72145974Y-29850042D01*
X71730053Y-30022312D01*
X71298179Y-30416510D01*
X71240664Y-30539228D01*
X71024670Y-30215971D01*
X70538489Y-29891115D01*
X69965000Y-29777041D01*
X69391511Y-29891115D01*
X68905330Y-30215971D01*
X68689336Y-30539228D01*
X68631821Y-30416510D01*
X68199947Y-30022312D01*
X67784026Y-29850042D01*
X67552000Y-29971183D01*
X67552000Y-31178000D01*
X67572000Y-31178000D01*
X67572000Y-31432000D01*
X67552000Y-31432000D01*
X67552000Y-31452000D01*
X67298000Y-31452000D01*
X67298000Y-31432000D01*
X67278000Y-31432000D01*
X67278000Y-31178000D01*
X67298000Y-31178000D01*
X67298000Y-29971183D01*
X67065974Y-29850042D01*
X66650053Y-30022312D01*
X66218179Y-30416510D01*
X66160664Y-30539228D01*
X65944670Y-30215971D01*
X65458489Y-29891115D01*
X64885000Y-29777041D01*
X64311511Y-29891115D01*
X63825330Y-30215971D01*
X63615000Y-30530752D01*
X63404670Y-30215971D01*
X62918489Y-29891115D01*
X62345000Y-29777041D01*
X61771511Y-29891115D01*
X61285330Y-30215971D01*
X61075000Y-30530752D01*
X60864670Y-30215971D01*
X60378489Y-29891115D01*
X59805000Y-29777041D01*
X59231511Y-29891115D01*
X58745330Y-30215971D01*
X58535000Y-30530752D01*
X58324670Y-30215971D01*
X57838489Y-29891115D01*
X57265000Y-29777041D01*
X56691511Y-29891115D01*
X56205330Y-30215971D01*
X55989336Y-30539228D01*
X55931821Y-30416510D01*
X55499947Y-30022312D01*
X55084026Y-29850042D01*
X54852000Y-29971183D01*
X54852000Y-31178000D01*
X54872000Y-31178000D01*
X54872000Y-31432000D01*
X54852000Y-31432000D01*
X54852000Y-31452000D01*
X54598000Y-31452000D01*
X54598000Y-31432000D01*
X54578000Y-31432000D01*
X54578000Y-31178000D01*
X54598000Y-31178000D01*
X54598000Y-29971183D01*
X54365974Y-29850042D01*
X53950053Y-30022312D01*
X53518179Y-30416510D01*
X53460664Y-30539228D01*
X53244670Y-30215971D01*
X52758489Y-29891115D01*
X52185000Y-29777041D01*
X51611511Y-29891115D01*
X51125330Y-30215971D01*
X50915000Y-30530752D01*
X50704670Y-30215971D01*
X50218489Y-29891115D01*
X49645000Y-29777041D01*
X49071511Y-29891115D01*
X48585330Y-30215971D01*
X48369336Y-30539228D01*
X48311821Y-30416510D01*
X47879947Y-30022312D01*
X47464026Y-29850042D01*
X47232000Y-29971183D01*
X47232000Y-31178000D01*
X47252000Y-31178000D01*
X47252000Y-31432000D01*
X47232000Y-31432000D01*
X47232000Y-31452000D01*
X46978000Y-31452000D01*
X46978000Y-31432000D01*
X46958000Y-31432000D01*
X46958000Y-31178000D01*
X46978000Y-31178000D01*
X46978000Y-29971183D01*
X46745974Y-29850042D01*
X46330053Y-30022312D01*
X45898179Y-30416510D01*
X45840664Y-30539228D01*
X45624670Y-30215971D01*
X45138489Y-29891115D01*
X44565000Y-29777041D01*
X43991511Y-29891115D01*
X43505330Y-30215971D01*
X43295000Y-30530752D01*
X43084670Y-30215971D01*
X42598489Y-29891115D01*
X42025000Y-29777041D01*
X41451511Y-29891115D01*
X40965330Y-30215971D01*
X40755000Y-30530752D01*
X40544670Y-30215971D01*
X40058489Y-29891115D01*
X39485000Y-29777041D01*
X38911511Y-29891115D01*
X38425330Y-30215971D01*
X38209336Y-30539228D01*
X38151821Y-30416510D01*
X37719947Y-30022312D01*
X37304026Y-29850042D01*
X37072000Y-29971183D01*
X37072000Y-31178000D01*
X37092000Y-31178000D01*
X37092000Y-31432000D01*
X37072000Y-31432000D01*
X37072000Y-31452000D01*
X36818000Y-31452000D01*
X36818000Y-31432000D01*
X36798000Y-31432000D01*
X36798000Y-31178000D01*
X36818000Y-31178000D01*
X36818000Y-29971183D01*
X36585974Y-29850042D01*
X36170053Y-30022312D01*
X35738179Y-30416510D01*
X35680664Y-30539228D01*
X35464670Y-30215971D01*
X34978489Y-29891115D01*
X34405000Y-29777041D01*
X33831511Y-29891115D01*
X33345330Y-30215971D01*
X33135000Y-30530752D01*
X32924670Y-30215971D01*
X32438489Y-29891115D01*
X31865000Y-29777041D01*
X31291511Y-29891115D01*
X30805330Y-30215971D01*
X30480474Y-30702152D01*
X30366400Y-31275641D01*
X30366400Y-31334359D01*
X30480474Y-31907848D01*
X30791574Y-32373442D01*
X30766083Y-32378238D01*
X30549959Y-32517310D01*
X30404969Y-32729510D01*
X30353960Y-32981400D01*
X30353960Y-34708600D01*
X30398238Y-34943917D01*
X30537310Y-35160041D01*
X30749510Y-35305031D01*
X31001400Y-35356040D01*
X32728600Y-35356040D01*
X32963917Y-35311762D01*
X33180041Y-35172690D01*
X33325031Y-34960490D01*
X33333864Y-34916869D01*
X33345330Y-34934029D01*
X33831511Y-35258885D01*
X34405000Y-35372959D01*
X34904995Y-35273504D01*
X34894808Y-35283673D01*
X34752162Y-35627201D01*
X34751838Y-35999167D01*
X34893883Y-36342943D01*
X35002000Y-36451249D01*
X35002000Y-38124932D01*
X34839151Y-38016120D01*
X34290000Y-37906887D01*
X33740849Y-38016120D01*
X33275302Y-38327189D01*
X33020000Y-38709275D01*
X32764698Y-38327189D01*
X32299151Y-38016120D01*
X31750000Y-37906887D01*
X31200849Y-38016120D01*
X30735302Y-38327189D01*
X30424233Y-38792736D01*
X30315000Y-39341887D01*
X28555750Y-39341887D01*
X28226691Y-39205250D01*
X27655813Y-39204752D01*
X27128200Y-39422757D01*
X26724176Y-39826077D01*
X26505250Y-40353309D01*
X26504752Y-40924187D01*
X24257000Y-40924187D01*
X24257000Y-36322000D01*
X29210000Y-36322000D01*
X29259410Y-36311994D01*
X29301035Y-36283553D01*
X29328315Y-36241159D01*
X29337000Y-36195000D01*
X29337000Y-34796775D01*
X29729123Y-34405336D01*
X30221439Y-33219706D01*
X30222559Y-31935926D01*
X29732313Y-30749439D01*
X29337000Y-30353435D01*
X29337000Y-29337000D01*
X82423000Y-29337000D01*
X82423000Y-30582824D01*
M02*
