G04 #@! TF.FileFunction,Legend,Bot*
%FSLAX46Y46*%
G04 Gerber Fmt 4.6, Leading zero omitted, Abs format (unit mm)*
G04 Created by KiCad (PCBNEW 4.0.7) date 10/03/18 00:11:05*
%MOMM*%
%LPD*%
G01*
G04 APERTURE LIST*
%ADD10C,0.100000*%
%ADD11C,0.300000*%
%ADD12C,0.400000*%
%ADD13C,0.150000*%
G04 APERTURE END LIST*
D10*
D11*
X73302857Y-81958571D02*
X73302857Y-80458571D01*
X72660000Y-81958571D02*
X72660000Y-81172857D01*
X72731429Y-81030000D01*
X72874286Y-80958571D01*
X73088571Y-80958571D01*
X73231429Y-81030000D01*
X73302857Y-81101429D01*
X72160000Y-80958571D02*
X71588571Y-80958571D01*
X71945714Y-80458571D02*
X71945714Y-81744286D01*
X71874286Y-81887143D01*
X71731428Y-81958571D01*
X71588571Y-81958571D01*
X71302857Y-80958571D02*
X70731428Y-80958571D01*
X71088571Y-80458571D02*
X71088571Y-81744286D01*
X71017143Y-81887143D01*
X70874285Y-81958571D01*
X70731428Y-81958571D01*
X70231428Y-80958571D02*
X70231428Y-82458571D01*
X70231428Y-81030000D02*
X70088571Y-80958571D01*
X69802857Y-80958571D01*
X69660000Y-81030000D01*
X69588571Y-81101429D01*
X69517142Y-81244286D01*
X69517142Y-81672857D01*
X69588571Y-81815714D01*
X69660000Y-81887143D01*
X69802857Y-81958571D01*
X70088571Y-81958571D01*
X70231428Y-81887143D01*
X68945714Y-81887143D02*
X68802857Y-81958571D01*
X68517142Y-81958571D01*
X68374285Y-81887143D01*
X68302857Y-81744286D01*
X68302857Y-81672857D01*
X68374285Y-81530000D01*
X68517142Y-81458571D01*
X68731428Y-81458571D01*
X68874285Y-81387143D01*
X68945714Y-81244286D01*
X68945714Y-81172857D01*
X68874285Y-81030000D01*
X68731428Y-80958571D01*
X68517142Y-80958571D01*
X68374285Y-81030000D01*
X67659999Y-81815714D02*
X67588571Y-81887143D01*
X67659999Y-81958571D01*
X67731428Y-81887143D01*
X67659999Y-81815714D01*
X67659999Y-81958571D01*
X67659999Y-81030000D02*
X67588571Y-81101429D01*
X67659999Y-81172857D01*
X67731428Y-81101429D01*
X67659999Y-81030000D01*
X67659999Y-81172857D01*
X65874285Y-80387143D02*
X67159999Y-82315714D01*
X64302856Y-80387143D02*
X65588570Y-82315714D01*
X63802855Y-81958571D02*
X63802855Y-80458571D01*
X63159998Y-81958571D02*
X63159998Y-81172857D01*
X63231427Y-81030000D01*
X63374284Y-80958571D01*
X63588569Y-80958571D01*
X63731427Y-81030000D01*
X63802855Y-81101429D01*
X62588569Y-80958571D02*
X62231426Y-81958571D01*
X61874284Y-80958571D01*
X60731427Y-81887143D02*
X60874284Y-81958571D01*
X61159998Y-81958571D01*
X61302855Y-81887143D01*
X61374284Y-81744286D01*
X61374284Y-81172857D01*
X61302855Y-81030000D01*
X61159998Y-80958571D01*
X60874284Y-80958571D01*
X60731427Y-81030000D01*
X60659998Y-81172857D01*
X60659998Y-81315714D01*
X61374284Y-81458571D01*
X60231427Y-80958571D02*
X59659998Y-80958571D01*
X60017141Y-80458571D02*
X60017141Y-81744286D01*
X59945713Y-81887143D01*
X59802855Y-81958571D01*
X59659998Y-81958571D01*
X58588570Y-81887143D02*
X58731427Y-81958571D01*
X59017141Y-81958571D01*
X59159998Y-81887143D01*
X59231427Y-81744286D01*
X59231427Y-81172857D01*
X59159998Y-81030000D01*
X59017141Y-80958571D01*
X58731427Y-80958571D01*
X58588570Y-81030000D01*
X58517141Y-81172857D01*
X58517141Y-81315714D01*
X59231427Y-81458571D01*
X57874284Y-81958571D02*
X57874284Y-80458571D01*
X57874284Y-81030000D02*
X57731427Y-80958571D01*
X57445713Y-80958571D01*
X57302856Y-81030000D01*
X57231427Y-81101429D01*
X57159998Y-81244286D01*
X57159998Y-81672857D01*
X57231427Y-81815714D01*
X57302856Y-81887143D01*
X57445713Y-81958571D01*
X57731427Y-81958571D01*
X57874284Y-81887143D01*
X56302855Y-81958571D02*
X56445713Y-81887143D01*
X56517141Y-81815714D01*
X56588570Y-81672857D01*
X56588570Y-81244286D01*
X56517141Y-81101429D01*
X56445713Y-81030000D01*
X56302855Y-80958571D01*
X56088570Y-80958571D01*
X55945713Y-81030000D01*
X55874284Y-81101429D01*
X55802855Y-81244286D01*
X55802855Y-81672857D01*
X55874284Y-81815714D01*
X55945713Y-81887143D01*
X56088570Y-81958571D01*
X56302855Y-81958571D01*
X54945712Y-81958571D02*
X55088570Y-81887143D01*
X55159998Y-81744286D01*
X55159998Y-80458571D01*
X54159998Y-81958571D02*
X54302856Y-81887143D01*
X54374284Y-81744286D01*
X54374284Y-80458571D01*
X53017142Y-81887143D02*
X53159999Y-81958571D01*
X53445713Y-81958571D01*
X53588570Y-81887143D01*
X53659999Y-81744286D01*
X53659999Y-81172857D01*
X53588570Y-81030000D01*
X53445713Y-80958571D01*
X53159999Y-80958571D01*
X53017142Y-81030000D01*
X52945713Y-81172857D01*
X52945713Y-81315714D01*
X53659999Y-81458571D01*
X52302856Y-81815714D02*
X52231428Y-81887143D01*
X52302856Y-81958571D01*
X52374285Y-81887143D01*
X52302856Y-81815714D01*
X52302856Y-81958571D01*
X51588570Y-81958571D02*
X51588570Y-80458571D01*
X51588570Y-81030000D02*
X51445713Y-80958571D01*
X51159999Y-80958571D01*
X51017142Y-81030000D01*
X50945713Y-81101429D01*
X50874284Y-81244286D01*
X50874284Y-81672857D01*
X50945713Y-81815714D01*
X51017142Y-81887143D01*
X51159999Y-81958571D01*
X51445713Y-81958571D01*
X51588570Y-81887143D01*
X50017141Y-81958571D02*
X50159999Y-81887143D01*
X50231427Y-81744286D01*
X50231427Y-80458571D01*
X49231427Y-81958571D02*
X49374285Y-81887143D01*
X49445713Y-81815714D01*
X49517142Y-81672857D01*
X49517142Y-81244286D01*
X49445713Y-81101429D01*
X49374285Y-81030000D01*
X49231427Y-80958571D01*
X49017142Y-80958571D01*
X48874285Y-81030000D01*
X48802856Y-81101429D01*
X48731427Y-81244286D01*
X48731427Y-81672857D01*
X48802856Y-81815714D01*
X48874285Y-81887143D01*
X49017142Y-81958571D01*
X49231427Y-81958571D01*
X47445713Y-80958571D02*
X47445713Y-82172857D01*
X47517142Y-82315714D01*
X47588570Y-82387143D01*
X47731427Y-82458571D01*
X47945713Y-82458571D01*
X48088570Y-82387143D01*
X47445713Y-81887143D02*
X47588570Y-81958571D01*
X47874284Y-81958571D01*
X48017142Y-81887143D01*
X48088570Y-81815714D01*
X48159999Y-81672857D01*
X48159999Y-81244286D01*
X48088570Y-81101429D01*
X48017142Y-81030000D01*
X47874284Y-80958571D01*
X47588570Y-80958571D01*
X47445713Y-81030000D01*
X46802856Y-81887143D02*
X46659999Y-81958571D01*
X46374284Y-81958571D01*
X46231427Y-81887143D01*
X46159999Y-81744286D01*
X46159999Y-81672857D01*
X46231427Y-81530000D01*
X46374284Y-81458571D01*
X46588570Y-81458571D01*
X46731427Y-81387143D01*
X46802856Y-81244286D01*
X46802856Y-81172857D01*
X46731427Y-81030000D01*
X46588570Y-80958571D01*
X46374284Y-80958571D01*
X46231427Y-81030000D01*
X45517141Y-80958571D02*
X45517141Y-82458571D01*
X45517141Y-81030000D02*
X45374284Y-80958571D01*
X45088570Y-80958571D01*
X44945713Y-81030000D01*
X44874284Y-81101429D01*
X44802855Y-81244286D01*
X44802855Y-81672857D01*
X44874284Y-81815714D01*
X44945713Y-81887143D01*
X45088570Y-81958571D01*
X45374284Y-81958571D01*
X45517141Y-81887143D01*
X43945712Y-81958571D02*
X44088570Y-81887143D01*
X44159998Y-81815714D01*
X44231427Y-81672857D01*
X44231427Y-81244286D01*
X44159998Y-81101429D01*
X44088570Y-81030000D01*
X43945712Y-80958571D01*
X43731427Y-80958571D01*
X43588570Y-81030000D01*
X43517141Y-81101429D01*
X43445712Y-81244286D01*
X43445712Y-81672857D01*
X43517141Y-81815714D01*
X43588570Y-81887143D01*
X43731427Y-81958571D01*
X43945712Y-81958571D01*
X43017141Y-80958571D02*
X42445712Y-80958571D01*
X42802855Y-80458571D02*
X42802855Y-81744286D01*
X42731427Y-81887143D01*
X42588569Y-81958571D01*
X42445712Y-81958571D01*
X41945712Y-81815714D02*
X41874284Y-81887143D01*
X41945712Y-81958571D01*
X42017141Y-81887143D01*
X41945712Y-81815714D01*
X41945712Y-81958571D01*
X40588569Y-81887143D02*
X40731426Y-81958571D01*
X41017140Y-81958571D01*
X41159998Y-81887143D01*
X41231426Y-81815714D01*
X41302855Y-81672857D01*
X41302855Y-81244286D01*
X41231426Y-81101429D01*
X41159998Y-81030000D01*
X41017140Y-80958571D01*
X40731426Y-80958571D01*
X40588569Y-81030000D01*
X39731426Y-81958571D02*
X39874284Y-81887143D01*
X39945712Y-81815714D01*
X40017141Y-81672857D01*
X40017141Y-81244286D01*
X39945712Y-81101429D01*
X39874284Y-81030000D01*
X39731426Y-80958571D01*
X39517141Y-80958571D01*
X39374284Y-81030000D01*
X39302855Y-81101429D01*
X39231426Y-81244286D01*
X39231426Y-81672857D01*
X39302855Y-81815714D01*
X39374284Y-81887143D01*
X39517141Y-81958571D01*
X39731426Y-81958571D01*
X38588569Y-81958571D02*
X38588569Y-80958571D01*
X38588569Y-81101429D02*
X38517141Y-81030000D01*
X38374283Y-80958571D01*
X38159998Y-80958571D01*
X38017141Y-81030000D01*
X37945712Y-81172857D01*
X37945712Y-81958571D01*
X37945712Y-81172857D02*
X37874283Y-81030000D01*
X37731426Y-80958571D01*
X37517141Y-80958571D01*
X37374283Y-81030000D01*
X37302855Y-81172857D01*
X37302855Y-81958571D01*
X73302857Y-79926571D02*
X73302857Y-78426571D01*
X72660000Y-79926571D02*
X72660000Y-79140857D01*
X72731429Y-78998000D01*
X72874286Y-78926571D01*
X73088571Y-78926571D01*
X73231429Y-78998000D01*
X73302857Y-79069429D01*
X72160000Y-78926571D02*
X71588571Y-78926571D01*
X71945714Y-78426571D02*
X71945714Y-79712286D01*
X71874286Y-79855143D01*
X71731428Y-79926571D01*
X71588571Y-79926571D01*
X71302857Y-78926571D02*
X70731428Y-78926571D01*
X71088571Y-78426571D02*
X71088571Y-79712286D01*
X71017143Y-79855143D01*
X70874285Y-79926571D01*
X70731428Y-79926571D01*
X70231428Y-78926571D02*
X70231428Y-80426571D01*
X70231428Y-78998000D02*
X70088571Y-78926571D01*
X69802857Y-78926571D01*
X69660000Y-78998000D01*
X69588571Y-79069429D01*
X69517142Y-79212286D01*
X69517142Y-79640857D01*
X69588571Y-79783714D01*
X69660000Y-79855143D01*
X69802857Y-79926571D01*
X70088571Y-79926571D01*
X70231428Y-79855143D01*
X68945714Y-79855143D02*
X68802857Y-79926571D01*
X68517142Y-79926571D01*
X68374285Y-79855143D01*
X68302857Y-79712286D01*
X68302857Y-79640857D01*
X68374285Y-79498000D01*
X68517142Y-79426571D01*
X68731428Y-79426571D01*
X68874285Y-79355143D01*
X68945714Y-79212286D01*
X68945714Y-79140857D01*
X68874285Y-78998000D01*
X68731428Y-78926571D01*
X68517142Y-78926571D01*
X68374285Y-78998000D01*
X67659999Y-79783714D02*
X67588571Y-79855143D01*
X67659999Y-79926571D01*
X67731428Y-79855143D01*
X67659999Y-79783714D01*
X67659999Y-79926571D01*
X67659999Y-78998000D02*
X67588571Y-79069429D01*
X67659999Y-79140857D01*
X67731428Y-79069429D01*
X67659999Y-78998000D01*
X67659999Y-79140857D01*
X65874285Y-78355143D02*
X67159999Y-80283714D01*
X64302856Y-78355143D02*
X65588570Y-80283714D01*
X63159998Y-79855143D02*
X63302855Y-79926571D01*
X63588569Y-79926571D01*
X63731427Y-79855143D01*
X63802855Y-79783714D01*
X63874284Y-79640857D01*
X63874284Y-79212286D01*
X63802855Y-79069429D01*
X63731427Y-78998000D01*
X63588569Y-78926571D01*
X63302855Y-78926571D01*
X63159998Y-78998000D01*
X62517141Y-79926571D02*
X62517141Y-78426571D01*
X62517141Y-78998000D02*
X62374284Y-78926571D01*
X62088570Y-78926571D01*
X61945713Y-78998000D01*
X61874284Y-79069429D01*
X61802855Y-79212286D01*
X61802855Y-79640857D01*
X61874284Y-79783714D01*
X61945713Y-79855143D01*
X62088570Y-79926571D01*
X62374284Y-79926571D01*
X62517141Y-79855143D01*
X61159998Y-79926571D02*
X61159998Y-78926571D01*
X61159998Y-79069429D02*
X61088570Y-78998000D01*
X60945712Y-78926571D01*
X60731427Y-78926571D01*
X60588570Y-78998000D01*
X60517141Y-79140857D01*
X60517141Y-79926571D01*
X60517141Y-79140857D02*
X60445712Y-78998000D01*
X60302855Y-78926571D01*
X60088570Y-78926571D01*
X59945712Y-78998000D01*
X59874284Y-79140857D01*
X59874284Y-79926571D01*
X59159998Y-79355143D02*
X58017141Y-79355143D01*
X57302855Y-78926571D02*
X57302855Y-80426571D01*
X57302855Y-78998000D02*
X57159998Y-78926571D01*
X56874284Y-78926571D01*
X56731427Y-78998000D01*
X56659998Y-79069429D01*
X56588569Y-79212286D01*
X56588569Y-79640857D01*
X56659998Y-79783714D01*
X56731427Y-79855143D01*
X56874284Y-79926571D01*
X57159998Y-79926571D01*
X57302855Y-79855143D01*
X55945712Y-79926571D02*
X55945712Y-78926571D01*
X55945712Y-78426571D02*
X56017141Y-78498000D01*
X55945712Y-78569429D01*
X55874284Y-78498000D01*
X55945712Y-78426571D01*
X55945712Y-78569429D01*
X54445712Y-79926571D02*
X55302855Y-79926571D01*
X54874283Y-79926571D02*
X54874283Y-78426571D01*
X55017140Y-78640857D01*
X55159998Y-78783714D01*
X55302855Y-78855143D01*
X53088569Y-78426571D02*
X53802855Y-78426571D01*
X53874284Y-79140857D01*
X53802855Y-79069429D01*
X53659998Y-78998000D01*
X53302855Y-78998000D01*
X53159998Y-79069429D01*
X53088569Y-79140857D01*
X53017141Y-79283714D01*
X53017141Y-79640857D01*
X53088569Y-79783714D01*
X53159998Y-79855143D01*
X53302855Y-79926571D01*
X53659998Y-79926571D01*
X53802855Y-79855143D01*
X53874284Y-79783714D01*
X51731427Y-78926571D02*
X51731427Y-79926571D01*
X52088570Y-78355143D02*
X52445713Y-79426571D01*
X51517141Y-79426571D01*
X50159999Y-79926571D02*
X51017142Y-79926571D01*
X50588570Y-79926571D02*
X50588570Y-78426571D01*
X50731427Y-78640857D01*
X50874285Y-78783714D01*
X51017142Y-78855143D01*
X49517142Y-79783714D02*
X49445714Y-79855143D01*
X49517142Y-79926571D01*
X49588571Y-79855143D01*
X49517142Y-79783714D01*
X49517142Y-79926571D01*
X49017142Y-78926571D02*
X48445713Y-78926571D01*
X48802856Y-79926571D02*
X48802856Y-78640857D01*
X48731428Y-78498000D01*
X48588570Y-78426571D01*
X48445713Y-78426571D01*
X47945713Y-79926571D02*
X47945713Y-78926571D01*
X47945713Y-78426571D02*
X48017142Y-78498000D01*
X47945713Y-78569429D01*
X47874285Y-78498000D01*
X47945713Y-78426571D01*
X47945713Y-78569429D01*
X47231427Y-79926571D02*
X47231427Y-78926571D01*
X47231427Y-79212286D02*
X47159999Y-79069429D01*
X47088570Y-78998000D01*
X46945713Y-78926571D01*
X46802856Y-78926571D01*
X45731428Y-79855143D02*
X45874285Y-79926571D01*
X46159999Y-79926571D01*
X46302856Y-79855143D01*
X46374285Y-79712286D01*
X46374285Y-79140857D01*
X46302856Y-78998000D01*
X46159999Y-78926571D01*
X45874285Y-78926571D01*
X45731428Y-78998000D01*
X45659999Y-79140857D01*
X45659999Y-79283714D01*
X46374285Y-79426571D01*
X45017142Y-79926571D02*
X45017142Y-78426571D01*
X45017142Y-78998000D02*
X44874285Y-78926571D01*
X44588571Y-78926571D01*
X44445714Y-78998000D01*
X44374285Y-79069429D01*
X44302856Y-79212286D01*
X44302856Y-79640857D01*
X44374285Y-79783714D01*
X44445714Y-79855143D01*
X44588571Y-79926571D01*
X44874285Y-79926571D01*
X45017142Y-79855143D01*
X43017142Y-79926571D02*
X43017142Y-79140857D01*
X43088571Y-78998000D01*
X43231428Y-78926571D01*
X43517142Y-78926571D01*
X43659999Y-78998000D01*
X43017142Y-79855143D02*
X43159999Y-79926571D01*
X43517142Y-79926571D01*
X43659999Y-79855143D01*
X43731428Y-79712286D01*
X43731428Y-79569429D01*
X43659999Y-79426571D01*
X43517142Y-79355143D01*
X43159999Y-79355143D01*
X43017142Y-79283714D01*
X42374285Y-79855143D02*
X42231428Y-79926571D01*
X41945713Y-79926571D01*
X41802856Y-79855143D01*
X41731428Y-79712286D01*
X41731428Y-79640857D01*
X41802856Y-79498000D01*
X41945713Y-79426571D01*
X42159999Y-79426571D01*
X42302856Y-79355143D01*
X42374285Y-79212286D01*
X42374285Y-79140857D01*
X42302856Y-78998000D01*
X42159999Y-78926571D01*
X41945713Y-78926571D01*
X41802856Y-78998000D01*
X40517142Y-79855143D02*
X40659999Y-79926571D01*
X40945713Y-79926571D01*
X41088570Y-79855143D01*
X41159999Y-79712286D01*
X41159999Y-79140857D01*
X41088570Y-78998000D01*
X40945713Y-78926571D01*
X40659999Y-78926571D01*
X40517142Y-78998000D01*
X40445713Y-79140857D01*
X40445713Y-79283714D01*
X41159999Y-79426571D01*
X39159999Y-79926571D02*
X39159999Y-79140857D01*
X39231428Y-78998000D01*
X39374285Y-78926571D01*
X39659999Y-78926571D01*
X39802856Y-78998000D01*
X39159999Y-79855143D02*
X39302856Y-79926571D01*
X39659999Y-79926571D01*
X39802856Y-79855143D01*
X39874285Y-79712286D01*
X39874285Y-79569429D01*
X39802856Y-79426571D01*
X39659999Y-79355143D01*
X39302856Y-79355143D01*
X39159999Y-79283714D01*
X38445713Y-78926571D02*
X38445713Y-80426571D01*
X38445713Y-78998000D02*
X38302856Y-78926571D01*
X38017142Y-78926571D01*
X37874285Y-78998000D01*
X37802856Y-79069429D01*
X37731427Y-79212286D01*
X37731427Y-79640857D01*
X37802856Y-79783714D01*
X37874285Y-79855143D01*
X38017142Y-79926571D01*
X38302856Y-79926571D01*
X38445713Y-79855143D01*
X37088570Y-78926571D02*
X37088570Y-80426571D01*
X37088570Y-78998000D02*
X36945713Y-78926571D01*
X36659999Y-78926571D01*
X36517142Y-78998000D01*
X36445713Y-79069429D01*
X36374284Y-79212286D01*
X36374284Y-79640857D01*
X36445713Y-79783714D01*
X36517142Y-79855143D01*
X36659999Y-79926571D01*
X36945713Y-79926571D01*
X37088570Y-79855143D01*
X35731427Y-79783714D02*
X35659999Y-79855143D01*
X35731427Y-79926571D01*
X35802856Y-79855143D01*
X35731427Y-79783714D01*
X35731427Y-79926571D01*
X34374284Y-79855143D02*
X34517141Y-79926571D01*
X34802855Y-79926571D01*
X34945713Y-79855143D01*
X35017141Y-79783714D01*
X35088570Y-79640857D01*
X35088570Y-79212286D01*
X35017141Y-79069429D01*
X34945713Y-78998000D01*
X34802855Y-78926571D01*
X34517141Y-78926571D01*
X34374284Y-78998000D01*
X33517141Y-79926571D02*
X33659999Y-79855143D01*
X33731427Y-79783714D01*
X33802856Y-79640857D01*
X33802856Y-79212286D01*
X33731427Y-79069429D01*
X33659999Y-78998000D01*
X33517141Y-78926571D01*
X33302856Y-78926571D01*
X33159999Y-78998000D01*
X33088570Y-79069429D01*
X33017141Y-79212286D01*
X33017141Y-79640857D01*
X33088570Y-79783714D01*
X33159999Y-79855143D01*
X33302856Y-79926571D01*
X33517141Y-79926571D01*
X32374284Y-79926571D02*
X32374284Y-78926571D01*
X32374284Y-79069429D02*
X32302856Y-78998000D01*
X32159998Y-78926571D01*
X31945713Y-78926571D01*
X31802856Y-78998000D01*
X31731427Y-79140857D01*
X31731427Y-79926571D01*
X31731427Y-79140857D02*
X31659998Y-78998000D01*
X31517141Y-78926571D01*
X31302856Y-78926571D01*
X31159998Y-78998000D01*
X31088570Y-79140857D01*
X31088570Y-79926571D01*
D12*
X60765238Y-72509524D02*
X60265238Y-68509524D01*
X58741429Y-68509524D01*
X58384286Y-68700000D01*
X58217619Y-68890476D01*
X58074763Y-69271429D01*
X58146191Y-69842857D01*
X58384286Y-70223810D01*
X58598572Y-70414286D01*
X59003334Y-70604762D01*
X60527143Y-70604762D01*
X56765238Y-72509524D02*
X56431905Y-69842857D01*
X56265238Y-68509524D02*
X56479524Y-68700000D01*
X56312857Y-68890476D01*
X56098572Y-68700000D01*
X56265238Y-68509524D01*
X56312857Y-68890476D01*
X52765238Y-72509524D02*
X55050952Y-72509524D01*
X53908095Y-72509524D02*
X53408095Y-68509524D01*
X53860476Y-69080952D01*
X54289048Y-69461905D01*
X54693810Y-69652381D01*
X48646190Y-68509524D02*
X50550952Y-68509524D01*
X50979524Y-70414286D01*
X50765238Y-70223810D01*
X50360477Y-70033333D01*
X49408096Y-70033333D01*
X49050952Y-70223810D01*
X48884286Y-70414286D01*
X48741429Y-70795238D01*
X48860476Y-71747619D01*
X49098571Y-72128571D01*
X49312857Y-72319048D01*
X49717619Y-72509524D01*
X50670000Y-72509524D01*
X51027143Y-72319048D01*
X51193809Y-72128571D01*
X45193809Y-69842857D02*
X45527142Y-72509524D01*
X45955714Y-68319048D02*
X47265238Y-71176190D01*
X44789048Y-71176190D01*
X41336666Y-72509524D02*
X43622380Y-72509524D01*
X42479523Y-72509524D02*
X41979523Y-68509524D01*
X42431904Y-69080952D01*
X42860476Y-69461905D01*
X43265238Y-69652381D01*
D13*
X81930762Y-42608952D02*
X79930762Y-42608952D01*
X80883143Y-43561333D02*
X80883143Y-44228000D01*
X81930762Y-44513714D02*
X81930762Y-43561333D01*
X79930762Y-43561333D01*
X79930762Y-44513714D01*
X81740286Y-46513715D02*
X81835524Y-46418477D01*
X81930762Y-46132762D01*
X81930762Y-45942286D01*
X81835524Y-45656572D01*
X81645048Y-45466096D01*
X81454571Y-45370857D01*
X81073619Y-45275619D01*
X80787905Y-45275619D01*
X80406952Y-45370857D01*
X80216476Y-45466096D01*
X80026000Y-45656572D01*
X79930762Y-45942286D01*
X79930762Y-46132762D01*
X80026000Y-46418477D01*
X80121238Y-46513715D01*
X82121238Y-46894667D02*
X82121238Y-48418477D01*
X81930762Y-49942287D02*
X81930762Y-48799429D01*
X81930762Y-49370858D02*
X79930762Y-49370858D01*
X80216476Y-49180382D01*
X80406952Y-48989906D01*
X80502190Y-48799429D01*
X81930762Y-64198952D02*
X79930762Y-64198952D01*
X80883143Y-65151333D02*
X80883143Y-65818000D01*
X81930762Y-66103714D02*
X81930762Y-65151333D01*
X79930762Y-65151333D01*
X79930762Y-66103714D01*
X81740286Y-68103715D02*
X81835524Y-68008477D01*
X81930762Y-67722762D01*
X81930762Y-67532286D01*
X81835524Y-67246572D01*
X81645048Y-67056096D01*
X81454571Y-66960857D01*
X81073619Y-66865619D01*
X80787905Y-66865619D01*
X80406952Y-66960857D01*
X80216476Y-67056096D01*
X80026000Y-67246572D01*
X79930762Y-67532286D01*
X79930762Y-67722762D01*
X80026000Y-68008477D01*
X80121238Y-68103715D01*
X82121238Y-68484667D02*
X82121238Y-70008477D01*
X80121238Y-70389429D02*
X80026000Y-70484667D01*
X79930762Y-70675144D01*
X79930762Y-71151334D01*
X80026000Y-71341810D01*
X80121238Y-71437048D01*
X80311714Y-71532287D01*
X80502190Y-71532287D01*
X80787905Y-71437048D01*
X81930762Y-70294191D01*
X81930762Y-71532287D01*
M02*
