G04 #@! TF.FileFunction,Legend,Top*
%FSLAX46Y46*%
G04 Gerber Fmt 4.6, Leading zero omitted, Abs format (unit mm)*
G04 Created by KiCad (PCBNEW 4.0.7) date 06/12/18 20:24:26*
%MOMM*%
%LPD*%
G01*
G04 APERTURE LIST*
%ADD10C,0.100000*%
%ADD11C,0.300000*%
%ADD12C,0.250000*%
%ADD13C,0.200000*%
%ADD14C,0.125000*%
%ADD15C,0.175000*%
%ADD16C,0.150000*%
%ADD17C,0.120000*%
G04 APERTURE END LIST*
D10*
D11*
X29039429Y-51150001D02*
X30539429Y-51150001D01*
X30539429Y-51721429D01*
X30468000Y-51864287D01*
X30396571Y-51935715D01*
X30253714Y-52007144D01*
X30039429Y-52007144D01*
X29896571Y-51935715D01*
X29825143Y-51864287D01*
X29753714Y-51721429D01*
X29753714Y-51150001D01*
X29182286Y-53507144D02*
X29110857Y-53435715D01*
X29039429Y-53221429D01*
X29039429Y-53078572D01*
X29110857Y-52864287D01*
X29253714Y-52721429D01*
X29396571Y-52650001D01*
X29682286Y-52578572D01*
X29896571Y-52578572D01*
X30182286Y-52650001D01*
X30325143Y-52721429D01*
X30468000Y-52864287D01*
X30539429Y-53078572D01*
X30539429Y-53221429D01*
X30468000Y-53435715D01*
X30396571Y-53507144D01*
X29825143Y-54650001D02*
X29753714Y-54864287D01*
X29682286Y-54935715D01*
X29539429Y-55007144D01*
X29325143Y-55007144D01*
X29182286Y-54935715D01*
X29110857Y-54864287D01*
X29039429Y-54721429D01*
X29039429Y-54150001D01*
X30539429Y-54150001D01*
X30539429Y-54650001D01*
X30468000Y-54792858D01*
X30396571Y-54864287D01*
X30253714Y-54935715D01*
X30110857Y-54935715D01*
X29968000Y-54864287D01*
X29896571Y-54792858D01*
X29825143Y-54650001D01*
X29825143Y-54150001D01*
X29039429Y-57650001D02*
X29753714Y-57150001D01*
X29039429Y-56792858D02*
X30539429Y-56792858D01*
X30539429Y-57364286D01*
X30468000Y-57507144D01*
X30396571Y-57578572D01*
X30253714Y-57650001D01*
X30039429Y-57650001D01*
X29896571Y-57578572D01*
X29825143Y-57507144D01*
X29753714Y-57364286D01*
X29753714Y-56792858D01*
X29110857Y-58864286D02*
X29039429Y-58721429D01*
X29039429Y-58435715D01*
X29110857Y-58292858D01*
X29253714Y-58221429D01*
X29825143Y-58221429D01*
X29968000Y-58292858D01*
X30039429Y-58435715D01*
X30039429Y-58721429D01*
X29968000Y-58864286D01*
X29825143Y-58935715D01*
X29682286Y-58935715D01*
X29539429Y-58221429D01*
X30039429Y-59435715D02*
X29039429Y-59792858D01*
X30039429Y-60150000D01*
X29182286Y-60721429D02*
X29110857Y-60792857D01*
X29039429Y-60721429D01*
X29110857Y-60650000D01*
X29182286Y-60721429D01*
X29039429Y-60721429D01*
X29468000Y-62507143D02*
X29468000Y-63221429D01*
X29039429Y-62364286D02*
X30539429Y-62864286D01*
X29039429Y-63364286D01*
D12*
X25368476Y-69766571D02*
X25368476Y-68266571D01*
X25701810Y-69338000D01*
X26035143Y-68266571D01*
X26035143Y-69766571D01*
X26701809Y-68266571D02*
X26892286Y-68266571D01*
X26987524Y-68338000D01*
X27082762Y-68480857D01*
X27130381Y-68766571D01*
X27130381Y-69266571D01*
X27082762Y-69552286D01*
X26987524Y-69695143D01*
X26892286Y-69766571D01*
X26701809Y-69766571D01*
X26606571Y-69695143D01*
X26511333Y-69552286D01*
X26463714Y-69266571D01*
X26463714Y-68766571D01*
X26511333Y-68480857D01*
X26606571Y-68338000D01*
X26701809Y-68266571D01*
X27558952Y-69766571D02*
X27558952Y-68266571D01*
X27797047Y-68266571D01*
X27939905Y-68338000D01*
X28035143Y-68480857D01*
X28082762Y-68623714D01*
X28130381Y-68909429D01*
X28130381Y-69123714D01*
X28082762Y-69409429D01*
X28035143Y-69552286D01*
X27939905Y-69695143D01*
X27797047Y-69766571D01*
X27558952Y-69766571D01*
X28558952Y-68980857D02*
X28892286Y-68980857D01*
X29035143Y-69766571D02*
X28558952Y-69766571D01*
X28558952Y-68266571D01*
X29035143Y-68266571D01*
D13*
X23622000Y-75438000D02*
X23368000Y-75438000D01*
X55372000Y-70358000D02*
X23368000Y-70358000D01*
X63500000Y-85090000D02*
X63500000Y-72898000D01*
X71628000Y-72898000D02*
X71628000Y-85090000D01*
X55372000Y-72898000D02*
X71628000Y-72898000D01*
X55372000Y-85090000D02*
X55372000Y-70358000D01*
X46990000Y-85090000D02*
X46990000Y-70358000D01*
X38862000Y-85090000D02*
X38862000Y-70358000D01*
X30480000Y-75438000D02*
X30480000Y-70358000D01*
X30480000Y-75438000D02*
X23622000Y-75438000D01*
X30480000Y-85090000D02*
X30480000Y-75438000D01*
D14*
X24042667Y-71774857D02*
X24276000Y-71774857D01*
X24376000Y-72560571D02*
X24042667Y-72560571D01*
X24042667Y-71060571D01*
X24376000Y-71060571D01*
X24676000Y-72560571D02*
X24676000Y-71060571D01*
X24909333Y-72132000D01*
X25142666Y-71060571D01*
X25142666Y-72560571D01*
X25476000Y-71060571D02*
X25476000Y-72274857D01*
X25509333Y-72417714D01*
X25542666Y-72489143D01*
X25609333Y-72560571D01*
X25742666Y-72560571D01*
X25809333Y-72489143D01*
X25842666Y-72417714D01*
X25876000Y-72274857D01*
X25876000Y-71060571D01*
X26542666Y-72560571D02*
X26209333Y-72560571D01*
X26209333Y-71060571D01*
X26742666Y-72132000D02*
X27076000Y-72132000D01*
X26676000Y-72560571D02*
X26909333Y-71060571D01*
X27142666Y-72560571D01*
X27276000Y-71060571D02*
X27676000Y-71060571D01*
X27476000Y-72560571D02*
X27476000Y-71060571D01*
X27909333Y-72560571D02*
X27909333Y-71060571D01*
X28375999Y-71060571D02*
X28509332Y-71060571D01*
X28575999Y-71132000D01*
X28642666Y-71274857D01*
X28675999Y-71560571D01*
X28675999Y-72060571D01*
X28642666Y-72346286D01*
X28575999Y-72489143D01*
X28509332Y-72560571D01*
X28375999Y-72560571D01*
X28309332Y-72489143D01*
X28242666Y-72346286D01*
X28209332Y-72060571D01*
X28209332Y-71560571D01*
X28242666Y-71274857D01*
X28309332Y-71132000D01*
X28375999Y-71060571D01*
X28975999Y-72560571D02*
X28975999Y-71060571D01*
X29375999Y-72560571D01*
X29375999Y-71060571D01*
D15*
X24276000Y-74060857D02*
X24376000Y-74132286D01*
X24409333Y-74203714D01*
X24442667Y-74346571D01*
X24442667Y-74560857D01*
X24409333Y-74703714D01*
X24376000Y-74775143D01*
X24309333Y-74846571D01*
X24042667Y-74846571D01*
X24042667Y-73346571D01*
X24276000Y-73346571D01*
X24342667Y-73418000D01*
X24376000Y-73489429D01*
X24409333Y-73632286D01*
X24409333Y-73775143D01*
X24376000Y-73918000D01*
X24342667Y-73989429D01*
X24276000Y-74060857D01*
X24042667Y-74060857D01*
X25142667Y-74846571D02*
X24909333Y-74132286D01*
X24742667Y-74846571D02*
X24742667Y-73346571D01*
X25009333Y-73346571D01*
X25076000Y-73418000D01*
X25109333Y-73489429D01*
X25142667Y-73632286D01*
X25142667Y-73846571D01*
X25109333Y-73989429D01*
X25076000Y-74060857D01*
X25009333Y-74132286D01*
X24742667Y-74132286D01*
X25576000Y-73346571D02*
X25709333Y-73346571D01*
X25776000Y-73418000D01*
X25842667Y-73560857D01*
X25876000Y-73846571D01*
X25876000Y-74346571D01*
X25842667Y-74632286D01*
X25776000Y-74775143D01*
X25709333Y-74846571D01*
X25576000Y-74846571D01*
X25509333Y-74775143D01*
X25442667Y-74632286D01*
X25409333Y-74346571D01*
X25409333Y-73846571D01*
X25442667Y-73560857D01*
X25509333Y-73418000D01*
X25576000Y-73346571D01*
X26109333Y-73346571D02*
X26276000Y-74846571D01*
X26409333Y-73775143D01*
X26542666Y-74846571D01*
X26709333Y-73346571D01*
X26942666Y-74775143D02*
X27042666Y-74846571D01*
X27209333Y-74846571D01*
X27276000Y-74775143D01*
X27309333Y-74703714D01*
X27342666Y-74560857D01*
X27342666Y-74418000D01*
X27309333Y-74275143D01*
X27276000Y-74203714D01*
X27209333Y-74132286D01*
X27076000Y-74060857D01*
X27009333Y-73989429D01*
X26976000Y-73918000D01*
X26942666Y-73775143D01*
X26942666Y-73632286D01*
X26976000Y-73489429D01*
X27009333Y-73418000D01*
X27076000Y-73346571D01*
X27242666Y-73346571D01*
X27342666Y-73418000D01*
X27642667Y-74060857D02*
X27876000Y-74060857D01*
X27976000Y-74846571D02*
X27642667Y-74846571D01*
X27642667Y-73346571D01*
X27976000Y-73346571D01*
D12*
X49458762Y-72560571D02*
X49458762Y-71060571D01*
X50030191Y-72560571D01*
X50030191Y-71060571D01*
X50506381Y-71774857D02*
X50839715Y-71774857D01*
X50982572Y-72560571D02*
X50506381Y-72560571D01*
X50506381Y-71060571D01*
X50982572Y-71060571D01*
X51315905Y-71060571D02*
X51982572Y-72560571D01*
X51982572Y-71060571D02*
X51315905Y-72560571D01*
X52220667Y-71060571D02*
X52792096Y-71060571D01*
X52506381Y-72560571D02*
X52506381Y-71060571D01*
X41822858Y-71774857D02*
X41965715Y-71846286D01*
X42013334Y-71917714D01*
X42060953Y-72060571D01*
X42060953Y-72274857D01*
X42013334Y-72417714D01*
X41965715Y-72489143D01*
X41870477Y-72560571D01*
X41489524Y-72560571D01*
X41489524Y-71060571D01*
X41822858Y-71060571D01*
X41918096Y-71132000D01*
X41965715Y-71203429D01*
X42013334Y-71346286D01*
X42013334Y-71489143D01*
X41965715Y-71632000D01*
X41918096Y-71703429D01*
X41822858Y-71774857D01*
X41489524Y-71774857D01*
X42441905Y-72132000D02*
X42918096Y-72132000D01*
X42346667Y-72560571D02*
X42680000Y-71060571D01*
X43013334Y-72560571D01*
X43918096Y-72417714D02*
X43870477Y-72489143D01*
X43727620Y-72560571D01*
X43632382Y-72560571D01*
X43489524Y-72489143D01*
X43394286Y-72346286D01*
X43346667Y-72203429D01*
X43299048Y-71917714D01*
X43299048Y-71703429D01*
X43346667Y-71417714D01*
X43394286Y-71274857D01*
X43489524Y-71132000D01*
X43632382Y-71060571D01*
X43727620Y-71060571D01*
X43870477Y-71132000D01*
X43918096Y-71203429D01*
X44346667Y-72560571D02*
X44346667Y-71060571D01*
X44918096Y-72560571D02*
X44489524Y-71703429D01*
X44918096Y-71060571D02*
X44346667Y-71917714D01*
X33234476Y-71774857D02*
X33567810Y-71774857D01*
X33710667Y-72560571D02*
X33234476Y-72560571D01*
X33234476Y-71060571D01*
X33710667Y-71060571D01*
X34044000Y-71060571D02*
X34710667Y-72560571D01*
X34710667Y-71060571D02*
X34044000Y-72560571D01*
X35091619Y-72560571D02*
X35091619Y-71060571D01*
X35424952Y-71060571D02*
X35996381Y-71060571D01*
X35710666Y-72560571D02*
X35710666Y-71060571D01*
X66325905Y-74418000D02*
X66802096Y-74418000D01*
X66230667Y-74846571D02*
X66564000Y-73346571D01*
X66897334Y-74846571D01*
X67230667Y-74846571D02*
X67230667Y-73346571D01*
X67468762Y-73346571D01*
X67611620Y-73418000D01*
X67706858Y-73560857D01*
X67754477Y-73703714D01*
X67802096Y-73989429D01*
X67802096Y-74203714D01*
X67754477Y-74489429D01*
X67706858Y-74632286D01*
X67611620Y-74775143D01*
X67468762Y-74846571D01*
X67230667Y-74846571D01*
X68230667Y-74846571D02*
X68230667Y-73346571D01*
X68468762Y-73346571D01*
X68611620Y-73418000D01*
X68706858Y-73560857D01*
X68754477Y-73703714D01*
X68802096Y-73989429D01*
X68802096Y-74203714D01*
X68754477Y-74489429D01*
X68706858Y-74632286D01*
X68611620Y-74775143D01*
X68468762Y-74846571D01*
X68230667Y-74846571D01*
X58126476Y-74060857D02*
X58459810Y-74060857D01*
X58602667Y-74846571D02*
X58126476Y-74846571D01*
X58126476Y-73346571D01*
X58602667Y-73346571D01*
X58936000Y-73346571D02*
X59602667Y-74846571D01*
X59602667Y-73346571D02*
X58936000Y-74846571D01*
X59983619Y-74846571D02*
X59983619Y-73346571D01*
X60316952Y-73346571D02*
X60888381Y-73346571D01*
X60602666Y-74846571D02*
X60602666Y-73346571D01*
X49300048Y-74973571D02*
X49300048Y-73473571D01*
X49538143Y-73473571D01*
X49681001Y-73545000D01*
X49776239Y-73687857D01*
X49823858Y-73830714D01*
X49871477Y-74116429D01*
X49871477Y-74330714D01*
X49823858Y-74616429D01*
X49776239Y-74759286D01*
X49681001Y-74902143D01*
X49538143Y-74973571D01*
X49300048Y-74973571D01*
X50490524Y-73473571D02*
X50681001Y-73473571D01*
X50776239Y-73545000D01*
X50871477Y-73687857D01*
X50919096Y-73973571D01*
X50919096Y-74473571D01*
X50871477Y-74759286D01*
X50776239Y-74902143D01*
X50681001Y-74973571D01*
X50490524Y-74973571D01*
X50395286Y-74902143D01*
X50300048Y-74759286D01*
X50252429Y-74473571D01*
X50252429Y-73973571D01*
X50300048Y-73687857D01*
X50395286Y-73545000D01*
X50490524Y-73473571D01*
X51252429Y-73473571D02*
X51490524Y-74973571D01*
X51681001Y-73902143D01*
X51871477Y-74973571D01*
X52109572Y-73473571D01*
X52490524Y-74973571D02*
X52490524Y-73473571D01*
X53061953Y-74973571D01*
X53061953Y-73473571D01*
X42267286Y-73346571D02*
X42267286Y-74560857D01*
X42314905Y-74703714D01*
X42362524Y-74775143D01*
X42457762Y-74846571D01*
X42648239Y-74846571D01*
X42743477Y-74775143D01*
X42791096Y-74703714D01*
X42838715Y-74560857D01*
X42838715Y-73346571D01*
X43314905Y-74846571D02*
X43314905Y-73346571D01*
X43695858Y-73346571D01*
X43791096Y-73418000D01*
X43838715Y-73489429D01*
X43886334Y-73632286D01*
X43886334Y-73846571D01*
X43838715Y-73989429D01*
X43791096Y-74060857D01*
X43695858Y-74132286D01*
X43314905Y-74132286D01*
X32067809Y-74775143D02*
X32210666Y-74846571D01*
X32448762Y-74846571D01*
X32544000Y-74775143D01*
X32591619Y-74703714D01*
X32639238Y-74560857D01*
X32639238Y-74418000D01*
X32591619Y-74275143D01*
X32544000Y-74203714D01*
X32448762Y-74132286D01*
X32258285Y-74060857D01*
X32163047Y-73989429D01*
X32115428Y-73918000D01*
X32067809Y-73775143D01*
X32067809Y-73632286D01*
X32115428Y-73489429D01*
X32163047Y-73418000D01*
X32258285Y-73346571D01*
X32496381Y-73346571D01*
X32639238Y-73418000D01*
X33067809Y-74060857D02*
X33401143Y-74060857D01*
X33544000Y-74846571D02*
X33067809Y-74846571D01*
X33067809Y-73346571D01*
X33544000Y-73346571D01*
X34448762Y-74846571D02*
X33972571Y-74846571D01*
X33972571Y-73346571D01*
X34782095Y-74060857D02*
X35115429Y-74060857D01*
X35258286Y-74846571D02*
X34782095Y-74846571D01*
X34782095Y-73346571D01*
X35258286Y-73346571D01*
X36258286Y-74703714D02*
X36210667Y-74775143D01*
X36067810Y-74846571D01*
X35972572Y-74846571D01*
X35829714Y-74775143D01*
X35734476Y-74632286D01*
X35686857Y-74489429D01*
X35639238Y-74203714D01*
X35639238Y-73989429D01*
X35686857Y-73703714D01*
X35734476Y-73560857D01*
X35829714Y-73418000D01*
X35972572Y-73346571D01*
X36067810Y-73346571D01*
X36210667Y-73418000D01*
X36258286Y-73489429D01*
X36544000Y-73346571D02*
X37115429Y-73346571D01*
X36829714Y-74846571D02*
X36829714Y-73346571D01*
D16*
X81395000Y-30035000D02*
X30595000Y-30035000D01*
X33135000Y-35115000D02*
X81395000Y-35115000D01*
X81395000Y-30035000D02*
X81395000Y-35115000D01*
X30595000Y-30035000D02*
X30595000Y-32575000D01*
X30315000Y-33845000D02*
X30315000Y-35395000D01*
X30595000Y-32575000D02*
X33135000Y-32575000D01*
X33135000Y-32575000D02*
X33135000Y-35115000D01*
X30315000Y-35395000D02*
X31865000Y-35395000D01*
D17*
X67187000Y-42789000D02*
G75*
G03X67187000Y-42789000I-6100000J0D01*
G01*
X76835462Y-78290000D02*
G75*
G03X75290170Y-83840000I-462J-2990000D01*
G01*
X76834538Y-78290000D02*
G75*
G02X78379830Y-83840000I462J-2990000D01*
G01*
X79335000Y-81280000D02*
G75*
G03X79335000Y-81280000I-2500000J0D01*
G01*
X75290000Y-83840000D02*
X78380000Y-83840000D01*
X30420000Y-42180000D02*
G75*
G02X30420000Y-44180000I0J-1000000D01*
G01*
X30420000Y-44180000D02*
X30420000Y-45830000D01*
X30420000Y-45830000D02*
X48320000Y-45830000D01*
X48320000Y-45830000D02*
X48320000Y-40530000D01*
X48320000Y-40530000D02*
X30420000Y-40530000D01*
X30420000Y-40530000D02*
X30420000Y-42180000D01*
X30360000Y-48320000D02*
X48380000Y-48320000D01*
X48380000Y-48320000D02*
X48380000Y-38040000D01*
X48380000Y-38040000D02*
X30360000Y-38040000D01*
X30360000Y-38040000D02*
X30360000Y-48320000D01*
D16*
X35560000Y-49530000D02*
X48260000Y-49530000D01*
X48260000Y-49530000D02*
X48260000Y-64770000D01*
X48260000Y-64770000D02*
X35560000Y-64770000D01*
X35560000Y-64770000D02*
X35560000Y-49530000D01*
D17*
X69890000Y-53940000D02*
X67270000Y-53940000D01*
X67270000Y-53940000D02*
X67270000Y-60360000D01*
X67270000Y-60360000D02*
X69890000Y-60360000D01*
X69890000Y-60360000D02*
X69890000Y-53940000D01*
X68580000Y-53050000D02*
X68580000Y-53940000D01*
X68580000Y-61250000D02*
X68580000Y-60360000D01*
X63460000Y-60360000D02*
X66080000Y-60360000D01*
X66080000Y-60360000D02*
X66080000Y-53940000D01*
X66080000Y-53940000D02*
X63460000Y-53940000D01*
X63460000Y-53940000D02*
X63460000Y-60360000D01*
X64770000Y-61250000D02*
X64770000Y-60360000D01*
X64770000Y-53050000D02*
X64770000Y-53940000D01*
X59650000Y-60360000D02*
X62270000Y-60360000D01*
X62270000Y-60360000D02*
X62270000Y-53940000D01*
X62270000Y-53940000D02*
X59650000Y-53940000D01*
X59650000Y-53940000D02*
X59650000Y-60360000D01*
X60960000Y-61250000D02*
X60960000Y-60360000D01*
X60960000Y-53050000D02*
X60960000Y-53940000D01*
X31330000Y-77835000D02*
X31330000Y-82335000D01*
X35330000Y-76585000D02*
X33830000Y-76585000D01*
X37830000Y-82335000D02*
X37830000Y-77835000D01*
X33830000Y-83585000D02*
X35330000Y-83585000D01*
X39585000Y-77835000D02*
X39585000Y-82335000D01*
X43585000Y-76585000D02*
X42085000Y-76585000D01*
X46085000Y-82335000D02*
X46085000Y-77835000D01*
X42085000Y-83585000D02*
X43585000Y-83585000D01*
X47840000Y-77835000D02*
X47840000Y-82335000D01*
X51840000Y-76585000D02*
X50340000Y-76585000D01*
X54340000Y-82335000D02*
X54340000Y-77835000D01*
X50340000Y-83585000D02*
X51840000Y-83585000D01*
X56095000Y-77835000D02*
X56095000Y-82335000D01*
X60095000Y-76585000D02*
X58595000Y-76585000D01*
X62595000Y-82335000D02*
X62595000Y-77835000D01*
X58595000Y-83585000D02*
X60095000Y-83585000D01*
X64350000Y-77835000D02*
X64350000Y-82335000D01*
X68350000Y-76585000D02*
X66850000Y-76585000D01*
X70850000Y-82335000D02*
X70850000Y-77835000D01*
X66850000Y-83585000D02*
X68350000Y-83585000D01*
X29250000Y-40730000D02*
X29250000Y-45550000D01*
X26630000Y-40730000D02*
X26630000Y-45550000D01*
X29250000Y-40730000D02*
X28936000Y-40730000D01*
X26944000Y-40730000D02*
X26630000Y-40730000D01*
X29250000Y-45550000D02*
X28936000Y-45550000D01*
X26944000Y-45550000D02*
X26630000Y-45550000D01*
D16*
X76200000Y-54105000D02*
X72700000Y-51355000D01*
X72700000Y-51355000D02*
X71200000Y-46355000D01*
X71200000Y-46355000D02*
X72700000Y-41105000D01*
X72700000Y-41105000D02*
X76200000Y-38355000D01*
X86700000Y-54105000D02*
X76200000Y-54105000D01*
X76200000Y-38355000D02*
X86700000Y-38355000D01*
X88700000Y-56855000D02*
X86700000Y-56855000D01*
X86700000Y-56855000D02*
X86700000Y-35855000D01*
X86700000Y-35855000D02*
X88700000Y-35855000D01*
X88700000Y-46355000D02*
X88700000Y-35855000D01*
X88700000Y-46355000D02*
X88700000Y-56855000D01*
X76200000Y-75695000D02*
X72700000Y-72945000D01*
X72700000Y-72945000D02*
X71200000Y-67945000D01*
X71200000Y-67945000D02*
X72700000Y-62695000D01*
X72700000Y-62695000D02*
X76200000Y-59945000D01*
X86700000Y-75695000D02*
X76200000Y-75695000D01*
X76200000Y-59945000D02*
X86700000Y-59945000D01*
X88700000Y-78445000D02*
X86700000Y-78445000D01*
X86700000Y-78445000D02*
X86700000Y-57445000D01*
X86700000Y-57445000D02*
X88700000Y-57445000D01*
X88700000Y-67945000D02*
X88700000Y-57445000D01*
X88700000Y-67945000D02*
X88700000Y-78445000D01*
X38100000Y-60960000D02*
X60325000Y-60960000D01*
X60325000Y-60960000D02*
X60325000Y-53340000D01*
X60325000Y-53340000D02*
X38100000Y-53340000D01*
X38100000Y-57150000D02*
X38100000Y-60960000D01*
X38100000Y-57150000D02*
X38100000Y-53340000D01*
X31750000Y-62865000D02*
X69850000Y-62865000D01*
X69850000Y-62865000D02*
X69850000Y-51435000D01*
X69850000Y-51435000D02*
X31750000Y-51435000D01*
X31750000Y-57150000D02*
X31750000Y-62865000D01*
X31750000Y-57150000D02*
X31750000Y-51435000D01*
X64952571Y-43679952D02*
X65000190Y-43537095D01*
X65047810Y-43489476D01*
X65143048Y-43441857D01*
X65285905Y-43441857D01*
X65381143Y-43489476D01*
X65428762Y-43537095D01*
X65476381Y-43632333D01*
X65476381Y-44013286D01*
X64476381Y-44013286D01*
X64476381Y-43679952D01*
X64524000Y-43584714D01*
X64571619Y-43537095D01*
X64666857Y-43489476D01*
X64762095Y-43489476D01*
X64857333Y-43537095D01*
X64904952Y-43584714D01*
X64952571Y-43679952D01*
X64952571Y-44013286D01*
X64476381Y-43108524D02*
X64476381Y-42441857D01*
X65476381Y-43108524D01*
X65476381Y-42441857D01*
X65476381Y-41537095D02*
X65476381Y-42108524D01*
X65476381Y-41822810D02*
X64476381Y-41822810D01*
X64619238Y-41918048D01*
X64714476Y-42013286D01*
X64762095Y-42108524D01*
X63698429Y-39359952D02*
X63698429Y-38598047D01*
X64079381Y-38978999D02*
X63317476Y-38978999D01*
X38393810Y-43632381D02*
X38393810Y-42632381D01*
X39441429Y-43537143D02*
X39393810Y-43584762D01*
X39250953Y-43632381D01*
X39155715Y-43632381D01*
X39012857Y-43584762D01*
X38917619Y-43489524D01*
X38870000Y-43394286D01*
X38822381Y-43203810D01*
X38822381Y-43060952D01*
X38870000Y-42870476D01*
X38917619Y-42775238D01*
X39012857Y-42680000D01*
X39155715Y-42632381D01*
X39250953Y-42632381D01*
X39393810Y-42680000D01*
X39441429Y-42727619D01*
X39822381Y-42727619D02*
X39870000Y-42680000D01*
X39965238Y-42632381D01*
X40203334Y-42632381D01*
X40298572Y-42680000D01*
X40346191Y-42727619D01*
X40393810Y-42822857D01*
X40393810Y-42918095D01*
X40346191Y-43060952D01*
X39774762Y-43632381D01*
X40393810Y-43632381D01*
X40933810Y-64460381D02*
X40933810Y-63460381D01*
X41981429Y-64365143D02*
X41933810Y-64412762D01*
X41790953Y-64460381D01*
X41695715Y-64460381D01*
X41552857Y-64412762D01*
X41457619Y-64317524D01*
X41410000Y-64222286D01*
X41362381Y-64031810D01*
X41362381Y-63888952D01*
X41410000Y-63698476D01*
X41457619Y-63603238D01*
X41552857Y-63508000D01*
X41695715Y-63460381D01*
X41790953Y-63460381D01*
X41933810Y-63508000D01*
X41981429Y-63555619D01*
X42314762Y-63460381D02*
X42933810Y-63460381D01*
X42600476Y-63841333D01*
X42743334Y-63841333D01*
X42838572Y-63888952D01*
X42886191Y-63936571D01*
X42933810Y-64031810D01*
X42933810Y-64269905D01*
X42886191Y-64365143D01*
X42838572Y-64412762D01*
X42743334Y-64460381D01*
X42457619Y-64460381D01*
X42362381Y-64412762D01*
X42314762Y-64365143D01*
X43688096Y-57920000D02*
X43592858Y-57872381D01*
X43450001Y-57872381D01*
X43307143Y-57920000D01*
X43211905Y-58015238D01*
X43164286Y-58110476D01*
X43116667Y-58300952D01*
X43116667Y-58443810D01*
X43164286Y-58634286D01*
X43211905Y-58729524D01*
X43307143Y-58824762D01*
X43450001Y-58872381D01*
X43545239Y-58872381D01*
X43688096Y-58824762D01*
X43735715Y-58777143D01*
X43735715Y-58443810D01*
X43545239Y-58443810D01*
X44164286Y-58872381D02*
X44164286Y-57872381D01*
X44735715Y-58872381D01*
X44735715Y-57872381D01*
X45211905Y-58872381D02*
X45211905Y-57872381D01*
X45450000Y-57872381D01*
X45592858Y-57920000D01*
X45688096Y-58015238D01*
X45735715Y-58110476D01*
X45783334Y-58300952D01*
X45783334Y-58443810D01*
X45735715Y-58634286D01*
X45688096Y-58729524D01*
X45592858Y-58824762D01*
X45450000Y-58872381D01*
X45211905Y-58872381D01*
X38608096Y-57920000D02*
X38512858Y-57872381D01*
X38370001Y-57872381D01*
X38227143Y-57920000D01*
X38131905Y-58015238D01*
X38084286Y-58110476D01*
X38036667Y-58300952D01*
X38036667Y-58443810D01*
X38084286Y-58634286D01*
X38131905Y-58729524D01*
X38227143Y-58824762D01*
X38370001Y-58872381D01*
X38465239Y-58872381D01*
X38608096Y-58824762D01*
X38655715Y-58777143D01*
X38655715Y-58443810D01*
X38465239Y-58443810D01*
X39084286Y-58872381D02*
X39084286Y-57872381D01*
X39655715Y-58872381D01*
X39655715Y-57872381D01*
X40131905Y-58872381D02*
X40131905Y-57872381D01*
X40370000Y-57872381D01*
X40512858Y-57920000D01*
X40608096Y-58015238D01*
X40655715Y-58110476D01*
X40703334Y-58300952D01*
X40703334Y-58443810D01*
X40655715Y-58634286D01*
X40608096Y-58729524D01*
X40512858Y-58824762D01*
X40370000Y-58872381D01*
X40131905Y-58872381D01*
X43735714Y-56332381D02*
X43735714Y-55332381D01*
X43735714Y-55808571D02*
X44307143Y-55808571D01*
X44307143Y-56332381D02*
X44307143Y-55332381D01*
X44640476Y-55332381D02*
X44973809Y-56332381D01*
X45307143Y-55332381D01*
X39250953Y-56332381D02*
X38774762Y-56332381D01*
X38774762Y-55332381D01*
X39441429Y-55332381D02*
X39774762Y-56332381D01*
X40108096Y-55332381D01*
X68413334Y-57602381D02*
X68080000Y-57126190D01*
X67841905Y-57602381D02*
X67841905Y-56602381D01*
X68222858Y-56602381D01*
X68318096Y-56650000D01*
X68365715Y-56697619D01*
X68413334Y-56792857D01*
X68413334Y-56935714D01*
X68365715Y-57030952D01*
X68318096Y-57078571D01*
X68222858Y-57126190D01*
X67841905Y-57126190D01*
X69365715Y-57602381D02*
X68794286Y-57602381D01*
X69080000Y-57602381D02*
X69080000Y-56602381D01*
X68984762Y-56745238D01*
X68889524Y-56840476D01*
X68794286Y-56888095D01*
X64603334Y-57602381D02*
X64270000Y-57126190D01*
X64031905Y-57602381D02*
X64031905Y-56602381D01*
X64412858Y-56602381D01*
X64508096Y-56650000D01*
X64555715Y-56697619D01*
X64603334Y-56792857D01*
X64603334Y-56935714D01*
X64555715Y-57030952D01*
X64508096Y-57078571D01*
X64412858Y-57126190D01*
X64031905Y-57126190D01*
X64984286Y-56697619D02*
X65031905Y-56650000D01*
X65127143Y-56602381D01*
X65365239Y-56602381D01*
X65460477Y-56650000D01*
X65508096Y-56697619D01*
X65555715Y-56792857D01*
X65555715Y-56888095D01*
X65508096Y-57030952D01*
X64936667Y-57602381D01*
X65555715Y-57602381D01*
X60793334Y-57602381D02*
X60460000Y-57126190D01*
X60221905Y-57602381D02*
X60221905Y-56602381D01*
X60602858Y-56602381D01*
X60698096Y-56650000D01*
X60745715Y-56697619D01*
X60793334Y-56792857D01*
X60793334Y-56935714D01*
X60745715Y-57030952D01*
X60698096Y-57078571D01*
X60602858Y-57126190D01*
X60221905Y-57126190D01*
X61126667Y-56602381D02*
X61745715Y-56602381D01*
X61412381Y-56983333D01*
X61555239Y-56983333D01*
X61650477Y-57030952D01*
X61698096Y-57078571D01*
X61745715Y-57173810D01*
X61745715Y-57411905D01*
X61698096Y-57507143D01*
X61650477Y-57554762D01*
X61555239Y-57602381D01*
X61269524Y-57602381D01*
X61174286Y-57554762D01*
X61126667Y-57507143D01*
X33337667Y-80541762D02*
X33480524Y-80589381D01*
X33718620Y-80589381D01*
X33813858Y-80541762D01*
X33861477Y-80494143D01*
X33909096Y-80398905D01*
X33909096Y-80303667D01*
X33861477Y-80208429D01*
X33813858Y-80160810D01*
X33718620Y-80113190D01*
X33528143Y-80065571D01*
X33432905Y-80017952D01*
X33385286Y-79970333D01*
X33337667Y-79875095D01*
X33337667Y-79779857D01*
X33385286Y-79684619D01*
X33432905Y-79637000D01*
X33528143Y-79589381D01*
X33766239Y-79589381D01*
X33909096Y-79637000D01*
X34242429Y-79589381D02*
X34480524Y-80589381D01*
X34671001Y-79875095D01*
X34861477Y-80589381D01*
X35099572Y-79589381D01*
X36004334Y-80589381D02*
X35432905Y-80589381D01*
X35718619Y-80589381D02*
X35718619Y-79589381D01*
X35623381Y-79732238D01*
X35528143Y-79827476D01*
X35432905Y-79875095D01*
X41592667Y-80541762D02*
X41735524Y-80589381D01*
X41973620Y-80589381D01*
X42068858Y-80541762D01*
X42116477Y-80494143D01*
X42164096Y-80398905D01*
X42164096Y-80303667D01*
X42116477Y-80208429D01*
X42068858Y-80160810D01*
X41973620Y-80113190D01*
X41783143Y-80065571D01*
X41687905Y-80017952D01*
X41640286Y-79970333D01*
X41592667Y-79875095D01*
X41592667Y-79779857D01*
X41640286Y-79684619D01*
X41687905Y-79637000D01*
X41783143Y-79589381D01*
X42021239Y-79589381D01*
X42164096Y-79637000D01*
X42497429Y-79589381D02*
X42735524Y-80589381D01*
X42926001Y-79875095D01*
X43116477Y-80589381D01*
X43354572Y-79589381D01*
X43687905Y-79684619D02*
X43735524Y-79637000D01*
X43830762Y-79589381D01*
X44068858Y-79589381D01*
X44164096Y-79637000D01*
X44211715Y-79684619D01*
X44259334Y-79779857D01*
X44259334Y-79875095D01*
X44211715Y-80017952D01*
X43640286Y-80589381D01*
X44259334Y-80589381D01*
X49847667Y-80541762D02*
X49990524Y-80589381D01*
X50228620Y-80589381D01*
X50323858Y-80541762D01*
X50371477Y-80494143D01*
X50419096Y-80398905D01*
X50419096Y-80303667D01*
X50371477Y-80208429D01*
X50323858Y-80160810D01*
X50228620Y-80113190D01*
X50038143Y-80065571D01*
X49942905Y-80017952D01*
X49895286Y-79970333D01*
X49847667Y-79875095D01*
X49847667Y-79779857D01*
X49895286Y-79684619D01*
X49942905Y-79637000D01*
X50038143Y-79589381D01*
X50276239Y-79589381D01*
X50419096Y-79637000D01*
X50752429Y-79589381D02*
X50990524Y-80589381D01*
X51181001Y-79875095D01*
X51371477Y-80589381D01*
X51609572Y-79589381D01*
X51895286Y-79589381D02*
X52514334Y-79589381D01*
X52181000Y-79970333D01*
X52323858Y-79970333D01*
X52419096Y-80017952D01*
X52466715Y-80065571D01*
X52514334Y-80160810D01*
X52514334Y-80398905D01*
X52466715Y-80494143D01*
X52419096Y-80541762D01*
X52323858Y-80589381D01*
X52038143Y-80589381D01*
X51942905Y-80541762D01*
X51895286Y-80494143D01*
X58102667Y-80541762D02*
X58245524Y-80589381D01*
X58483620Y-80589381D01*
X58578858Y-80541762D01*
X58626477Y-80494143D01*
X58674096Y-80398905D01*
X58674096Y-80303667D01*
X58626477Y-80208429D01*
X58578858Y-80160810D01*
X58483620Y-80113190D01*
X58293143Y-80065571D01*
X58197905Y-80017952D01*
X58150286Y-79970333D01*
X58102667Y-79875095D01*
X58102667Y-79779857D01*
X58150286Y-79684619D01*
X58197905Y-79637000D01*
X58293143Y-79589381D01*
X58531239Y-79589381D01*
X58674096Y-79637000D01*
X59007429Y-79589381D02*
X59245524Y-80589381D01*
X59436001Y-79875095D01*
X59626477Y-80589381D01*
X59864572Y-79589381D01*
X60674096Y-79922714D02*
X60674096Y-80589381D01*
X60436000Y-79541762D02*
X60197905Y-80256048D01*
X60816953Y-80256048D01*
X66357667Y-80541762D02*
X66500524Y-80589381D01*
X66738620Y-80589381D01*
X66833858Y-80541762D01*
X66881477Y-80494143D01*
X66929096Y-80398905D01*
X66929096Y-80303667D01*
X66881477Y-80208429D01*
X66833858Y-80160810D01*
X66738620Y-80113190D01*
X66548143Y-80065571D01*
X66452905Y-80017952D01*
X66405286Y-79970333D01*
X66357667Y-79875095D01*
X66357667Y-79779857D01*
X66405286Y-79684619D01*
X66452905Y-79637000D01*
X66548143Y-79589381D01*
X66786239Y-79589381D01*
X66929096Y-79637000D01*
X67262429Y-79589381D02*
X67500524Y-80589381D01*
X67691001Y-79875095D01*
X67881477Y-80589381D01*
X68119572Y-79589381D01*
X68976715Y-79589381D02*
X68500524Y-79589381D01*
X68452905Y-80065571D01*
X68500524Y-80017952D01*
X68595762Y-79970333D01*
X68833858Y-79970333D01*
X68929096Y-80017952D01*
X68976715Y-80065571D01*
X69024334Y-80160810D01*
X69024334Y-80398905D01*
X68976715Y-80494143D01*
X68929096Y-80541762D01*
X68833858Y-80589381D01*
X68595762Y-80589381D01*
X68500524Y-80541762D01*
X68452905Y-80494143D01*
X27773334Y-43537143D02*
X27725715Y-43584762D01*
X27582858Y-43632381D01*
X27487620Y-43632381D01*
X27344762Y-43584762D01*
X27249524Y-43489524D01*
X27201905Y-43394286D01*
X27154286Y-43203810D01*
X27154286Y-43060952D01*
X27201905Y-42870476D01*
X27249524Y-42775238D01*
X27344762Y-42680000D01*
X27487620Y-42632381D01*
X27582858Y-42632381D01*
X27725715Y-42680000D01*
X27773334Y-42727619D01*
X28725715Y-43632381D02*
X28154286Y-43632381D01*
X28440000Y-43632381D02*
X28440000Y-42632381D01*
X28344762Y-42775238D01*
X28249524Y-42870476D01*
X28154286Y-42918095D01*
X35250381Y-62444190D02*
X34250381Y-62444190D01*
X35155143Y-61396571D02*
X35202762Y-61444190D01*
X35250381Y-61587047D01*
X35250381Y-61682285D01*
X35202762Y-61825143D01*
X35107524Y-61920381D01*
X35012286Y-61968000D01*
X34821810Y-62015619D01*
X34678952Y-62015619D01*
X34488476Y-61968000D01*
X34393238Y-61920381D01*
X34298000Y-61825143D01*
X34250381Y-61682285D01*
X34250381Y-61587047D01*
X34298000Y-61444190D01*
X34345619Y-61396571D01*
X35250381Y-60444190D02*
X35250381Y-61015619D01*
X35250381Y-60729905D02*
X34250381Y-60729905D01*
X34393238Y-60825143D01*
X34488476Y-60920381D01*
X34536095Y-61015619D01*
M02*
