M48
;DRILL file {KiCad 4.0.7} date 06/12/18 20:24:07
;FORMAT={2:4/ absolute / inch / suppress leading zeros}
FMAT,2
INCH,TZ
T1C0.016
T2C0.030
T3C0.031
T4C0.035
T5C0.039
T6C0.040
T7C0.043
T8C0.108
%
G90
G05
M72
T1
X14000Y-16350
X14050Y-14100
X14700Y-17550
X17150Y-14300
X19250Y-16750
X19650Y-16450
X19800Y-21250
X19800Y-22350
X19900Y-19100
X20150Y-20650
X20150Y-24300
X20250Y-24750
X20400Y-20350
X20400Y-24050
X20450Y-25000
X20650Y-20650
X20650Y-23800
X20900Y-23500
X21150Y-19500
X21150Y-23250
X21200Y-14900
X21400Y-20350
X21650Y-20650
X21700Y-15850
X26550Y-26000
X27000Y-21600
X27750Y-19750
T2
X13000Y-21000
X13000Y-22000
X13000Y-23000
X13000Y-24000
X14500Y-20000
X14500Y-21000
X14500Y-22000
X14500Y-23000
X14500Y-24000
X14500Y-25000
X18500Y-20000
X18500Y-21000
X18500Y-22000
X18500Y-23000
X18500Y-24000
X18500Y-25000
T3
X11000Y-16000
X11000Y-17969
X12500Y-15500
X12500Y-18500
X13500Y-15500
X13500Y-18500
X14500Y-15500
X14500Y-18500
X15500Y-15500
X15500Y-18500
X16500Y-15500
X16500Y-18500
X17500Y-15500
X17500Y-18500
X18500Y-15500
X18500Y-18500
X24000Y-20500
X24000Y-24500
X25500Y-20500
X25500Y-24500
X27000Y-20500
X27000Y-24500
T4
X30250Y-31500
X30250Y-32500
T5
X24050Y-15350
X24050Y-18342
T6
X12545Y-12325
X12545Y-13325
X13545Y-12325
X13545Y-13325
X14545Y-12325
X14545Y-13325
X15545Y-12325
X15545Y-13325
X16545Y-12325
X16545Y-13325
X17545Y-12325
X17545Y-13325
X18545Y-12325
X18545Y-13325
X19545Y-12325
X19545Y-13325
X20545Y-12325
X20545Y-13325
X21545Y-12325
X21545Y-13325
X22545Y-12325
X22545Y-13325
X23545Y-12325
X23545Y-13325
X24545Y-12325
X24545Y-13325
X25545Y-12325
X25545Y-13325
X26545Y-12325
X26545Y-13325
X27545Y-12325
X27545Y-13325
X28545Y-12325
X28545Y-13325
X29545Y-12325
X29545Y-13325
X30545Y-12325
X30545Y-13325
X31545Y-12325
X31545Y-13325
T7
X12728Y-30250
X12728Y-32809
X14500Y-30250
X14500Y-32809
X15978Y-30250
X15978Y-32809
X17750Y-30250
X17750Y-32809
X19228Y-30250
X19228Y-32809
X21000Y-30250
X21000Y-32809
X22478Y-30250
X22478Y-32809
X24250Y-30250
X24250Y-32809
X25728Y-30250
X25728Y-32809
X27500Y-30250
X27500Y-32809
T8
X10628Y-12825
X10628Y-32116
X33463Y-12825
X33463Y-32116
T2
X28031Y-18336G85X28031Y-18164
G05
X28031Y-26836G85X28031Y-26664
G05
X28910Y-16281G85X29122Y-16281
G05
X28910Y-20219G85X29122Y-20219
G05
X28910Y-24781G85X29122Y-24781
G05
X28910Y-28719G85X29122Y-28719
G05
X29894Y-15297G85X30106Y-15297
G05
X29894Y-18250G85X30106Y-18250
G05
X29894Y-21203G85X30106Y-21203
G05
X29894Y-23797G85X30106Y-23797
G05
X29894Y-26750G85X30106Y-26750
G05
X29894Y-29703G85X30106Y-29703
G05
X33937Y-16368G85X33937Y-16195
G05
X33937Y-20305G85X33937Y-20132
G05
X33937Y-24868G85X33937Y-24695
G05
X33937Y-28805G85X33937Y-28632
G05
T0
M30
