G04 #@! TF.FileFunction,Soldermask,Bot*
%FSLAX46Y46*%
G04 Gerber Fmt 4.6, Leading zero omitted, Abs format (unit mm)*
G04 Created by KiCad (PCBNEW 4.0.7) date 06/12/18 20:28:49*
%MOMM*%
%LPD*%
G01*
G04 APERTURE LIST*
%ADD10C,0.100000*%
%ADD11R,1.727200X1.727200*%
%ADD12O,1.727200X1.727200*%
%ADD13C,6.200000*%
%ADD14R,2.000000X2.000000*%
%ADD15C,2.000000*%
%ADD16R,1.800000X1.800000*%
%ADD17C,1.800000*%
%ADD18R,1.600000X1.600000*%
%ADD19O,1.600000X1.600000*%
%ADD20R,1.524000X1.524000*%
%ADD21C,1.524000*%
%ADD22C,1.600000*%
%ADD23O,2.000000X1.524000*%
%ADD24O,1.524000X2.000000*%
G04 APERTURE END LIST*
D10*
D11*
X31865000Y-33845000D03*
D12*
X31865000Y-31305000D03*
X34405000Y-33845000D03*
X34405000Y-31305000D03*
X36945000Y-33845000D03*
X36945000Y-31305000D03*
X39485000Y-33845000D03*
X39485000Y-31305000D03*
X42025000Y-33845000D03*
X42025000Y-31305000D03*
X44565000Y-33845000D03*
X44565000Y-31305000D03*
X47105000Y-33845000D03*
X47105000Y-31305000D03*
X49645000Y-33845000D03*
X49645000Y-31305000D03*
X52185000Y-33845000D03*
X52185000Y-31305000D03*
X54725000Y-33845000D03*
X54725000Y-31305000D03*
X57265000Y-33845000D03*
X57265000Y-31305000D03*
X59805000Y-33845000D03*
X59805000Y-31305000D03*
X62345000Y-33845000D03*
X62345000Y-31305000D03*
X64885000Y-33845000D03*
X64885000Y-31305000D03*
X67425000Y-33845000D03*
X67425000Y-31305000D03*
X69965000Y-33845000D03*
X69965000Y-31305000D03*
X72505000Y-33845000D03*
X72505000Y-31305000D03*
X75045000Y-33845000D03*
X75045000Y-31305000D03*
X77585000Y-33845000D03*
X77585000Y-31305000D03*
X80125000Y-33845000D03*
X80125000Y-31305000D03*
D13*
X84995000Y-32575000D03*
X84995000Y-81575000D03*
X26995000Y-81575000D03*
X26995000Y-32575000D03*
D14*
X61087000Y-38989000D03*
D15*
X61087000Y-46589000D03*
D16*
X76835000Y-82550000D03*
D17*
X76835000Y-80010000D03*
D18*
X31750000Y-46990000D03*
D19*
X46990000Y-39370000D03*
X34290000Y-46990000D03*
X44450000Y-39370000D03*
X36830000Y-46990000D03*
X41910000Y-39370000D03*
X39370000Y-46990000D03*
X39370000Y-39370000D03*
X41910000Y-46990000D03*
X36830000Y-39370000D03*
X44450000Y-46990000D03*
X34290000Y-39370000D03*
X46990000Y-46990000D03*
X31750000Y-39370000D03*
D20*
X36830000Y-50800000D03*
D21*
X36830000Y-53340000D03*
X36830000Y-55880000D03*
X36830000Y-58420000D03*
X36830000Y-60960000D03*
X36830000Y-63500000D03*
X46990000Y-63500000D03*
X46990000Y-60960000D03*
X46990000Y-58420000D03*
X46990000Y-55880000D03*
X46990000Y-53340000D03*
X46990000Y-50800000D03*
D22*
X68580000Y-52070000D03*
D19*
X68580000Y-62230000D03*
D22*
X64770000Y-62230000D03*
D19*
X64770000Y-52070000D03*
D22*
X60960000Y-62230000D03*
D19*
X60960000Y-52070000D03*
D15*
X32330000Y-76835000D03*
X36830000Y-76835000D03*
X32330000Y-83335000D03*
X36830000Y-83335000D03*
X40585000Y-76835000D03*
X45085000Y-76835000D03*
X40585000Y-83335000D03*
X45085000Y-83335000D03*
X48840000Y-76835000D03*
X53340000Y-76835000D03*
X48840000Y-83335000D03*
X53340000Y-83335000D03*
X57095000Y-76835000D03*
X61595000Y-76835000D03*
X57095000Y-83335000D03*
X61595000Y-83335000D03*
X65350000Y-76835000D03*
X69850000Y-76835000D03*
X65350000Y-83335000D03*
X69850000Y-83335000D03*
D22*
X27940000Y-40640000D03*
X27940000Y-45640000D03*
D23*
X73700000Y-51355000D03*
X73700000Y-41355000D03*
X76200000Y-53855000D03*
X76200000Y-38855000D03*
D24*
X86200000Y-51355000D03*
X86200000Y-41355000D03*
D23*
X76200000Y-46355000D03*
D24*
X71200000Y-46355000D03*
D23*
X73700000Y-72945000D03*
X73700000Y-62945000D03*
X76200000Y-75445000D03*
X76200000Y-60445000D03*
D24*
X86200000Y-72945000D03*
X86200000Y-62945000D03*
D23*
X76200000Y-67945000D03*
D24*
X71200000Y-67945000D03*
D20*
X33020000Y-60960000D03*
D21*
X33020000Y-58420000D03*
X33020000Y-55880000D03*
X33020000Y-53340000D03*
M02*
